<svg width="876" height="366" viewBox="0 0 876 366" fill="none" xmlns="http://www.w3.org/2000/svg">
<g clip-path="url(#clip0_1_43)">
<path fill-rule="evenodd" clip-rule="evenodd" d="M524.469 0.256181C521.946 0.354871 518.923 1.31553 515.469 3.50635C509.83 7.07599 504.849 13.8139 503.371 20.8133C502.916 22.948 502.752 24.6435 503.494 26.5754C504.426 28.9831 505.972 30.6217 507.219 31.6506C508.137 32.4135 508.166 31.7493 508.902 29.5795C509.63 27.4237 509.617 27.6022 508.594 26.8112C507.726 25.9153 506.819 25.0648 506.07 24.0429C505.551 23.35 505.271 22.5582 505.495 21.7463C507.26 15.4889 511.106 9.4127 518.209 6.61299C526.748 3.23931 532.106 7.00775 530.943 12.9083C530.754 13.8392 530.959 14.6437 531.785 13.2159C535.105 7.48346 532.038 -0.0391026 524.469 0.256181ZM521.206 10.8884C517.969 11.4414 514.165 15.9046 512.617 21.0491C511.923 23.3588 512.372 24.7014 513.633 25.4783C515.454 26.6122 518.105 27.5065 521.257 28.3183C517.607 34.4217 505.861 42.3153 503.69 43.5542C501.133 45.0381 501.594 46.6533 504.767 45.2254C516.619 39.885 522.448 34.1976 525.054 29.2001C525.866 29.3749 526.559 29.629 527.414 29.8461C528.836 30.2308 528.514 30.3736 529.271 28.1338C529.628 27.0769 529.867 26.3383 529.979 25.8064L526.439 24.5966L526.777 23.356C527.219 19.2754 526.18 15.9155 525.823 14.9076C524.723 11.7229 523.139 10.5525 521.206 10.8884ZM269.691 11.3189C266.938 11.4727 264.024 13.4571 262.231 17.5937C257.292 28.9325 263.235 33.0413 267.956 32.9012C275.606 32.6703 278.322 25.2112 276.34 17.6449C275.1 12.9204 272.458 11.1789 269.691 11.3189ZM836.392 13.9642C829.877 16.6869 807.654 24.8739 801.945 27.3237C801.573 27.4917 801.388 27.5688 801.226 28.0516C801.002 28.7306 800.3 30.9662 799.985 32.1631C799.859 32.6528 800.304 32.6318 800.703 32.4707C801.488 32.1489 802.498 31.553 803.402 31.1891C807.899 29.3062 829.06 21.3524 834.832 19.0496C835.204 18.8817 835.536 18.7142 835.704 18.3012C836.055 17.4962 836.593 15.5837 836.915 14.4358C837.048 13.9529 836.791 13.7892 836.392 13.9642ZM520.816 15.7277C521.22 15.7224 521.604 15.8258 521.831 16.1581C522.56 16.984 523.668 18.7143 523.822 21.7869C523.848 22.6689 523.697 23.8739 523.648 23.9298C523.557 23.9928 521.985 23.2976 521.698 23.1506C521.131 22.8634 519.534 22.2562 516.711 21.1923C515.618 20.9965 516.69 19.2135 516.69 19.2135C517.11 18.4226 517.821 17.4412 518.599 16.6503L519.656 15.9633C519.988 15.8478 520.412 15.7329 520.816 15.7277ZM268.788 17.6962C271.709 17.712 274.146 21.2626 274.195 23.6634C272.682 26.5471 268.239 27.3015 265.094 26.3496C263.181 25.7757 262.539 24.1446 263.4 22.4228C265.124 18.9441 267.036 17.6962 268.788 17.6962ZM332.603 31.4761C329.366 32.0221 325.562 36.4923 324.014 41.6367C323.327 43.9535 323.769 45.289 325.03 46.066C326.865 47.2069 329.502 48.0909 332.654 48.8958C328.997 54.9988 317.255 62.896 315.076 64.1418C312.534 65.6187 312.984 67.2377 316.164 65.8028C328.017 60.4693 333.852 54.7955 336.451 49.798C337.256 49.966 337.963 50.2028 338.811 50.4337C340.226 50.8117 339.912 50.9612 340.668 48.7215C341.032 47.6576 341.274 46.926 341.386 46.3941L337.836 45.174L338.174 43.9436C338.622 39.8631 337.577 36.4929 337.22 35.485C336.127 32.3003 334.536 31.1402 332.603 31.4761ZM777.461 35.3107C774.225 35.8567 770.421 40.3198 768.872 45.4713C768.186 47.7881 768.628 49.1166 769.888 49.9005C771.71 51.0414 774.37 51.9325 777.523 52.7304C773.866 58.8337 762.113 66.7235 759.935 67.9764C757.385 69.4463 757.842 71.0653 761.023 69.6374C772.875 64.3039 778.703 58.6269 781.309 53.6224C782.122 53.7904 782.822 54.0339 783.669 54.258C785.091 54.636 784.77 54.7959 785.527 52.5561C785.884 51.4922 786.133 50.7573 786.245 50.2184L782.694 49.0086L783.043 47.7782C783.485 43.6976 782.429 40.3275 782.079 39.3196C780.979 36.1419 779.395 34.9677 777.461 35.3107ZM332.213 36.3155C332.614 36.3108 332.997 36.4173 333.229 36.7459C333.964 37.5718 335.065 39.3091 335.219 42.3748C335.246 43.2497 335.091 44.4617 335.034 44.5176C334.95 44.5874 333.382 43.8784 333.095 43.7384C332.528 43.4512 330.948 42.844 328.118 41.7801C327.018 41.577 328.087 39.8013 328.087 39.8013C328.514 39.0104 329.218 38.0323 329.995 37.2483L331.063 36.5511C331.392 36.4356 331.812 36.3202 332.213 36.3155ZM433.061 37.8944C432.76 37.9506 432.492 38.369 432.373 38.971L431.019 45.9224C430.626 47.8612 430.732 48.1332 431.019 49.757C431.811 54.3416 432.869 58.8923 433.779 63.4139C436.014 74.2698 439.183 90.8685 441.096 100.898C442.525 108.353 443.451 116.008 443.774 122.727C443.83 124.015 444.553 123.944 444.882 122.922C446.087 119.191 446.551 115.264 446.544 111.141C446.544 107.081 445.221 98.8806 443.897 92.3783C442.076 83.3842 439.227 67.6897 437.504 59.5075C436.033 52.5502 434.613 45.578 433.779 38.8376C433.688 38.0677 433.341 37.8174 433.061 37.8944ZM829.158 38.0377C829.035 38.0797 828.923 38.2424 828.86 38.3968L827.26 41.3906C827.085 41.7266 826.938 41.9736 827.085 42.3236C827.547 43.5275 827.938 44.8919 827.896 45.6968C826.011 47.5097 823.98 47.8199 822.509 46.6093C821.563 45.8184 821.207 44.3644 821.298 42.4467C821.354 41.0748 821.525 40.558 820.313 41.5239C818.737 42.8118 819.155 42.6825 819.071 43.4104C818.511 47.9179 816.577 49.9426 813.089 50.1876C810.889 50.3278 809.298 48.7921 810.811 44.4665C811.14 43.5496 810.488 42.5697 809.528 44.4665C806.264 50.9968 808.253 54.6326 811.58 55.1295C814.312 55.5216 817.545 53.9821 819.184 49.8595C820.459 51.9453 823.022 52.5498 825.341 51.9408C828.29 51.1849 828.936 49.8201 829.784 47.4193C830.589 45.1096 830.627 42.0366 829.507 38.3763C829.416 38.0718 829.281 37.9947 829.158 38.0377ZM270.44 39.6167C270.145 39.6796 269.875 40.0912 269.762 40.6932L268.398 47.6447C268.005 49.5835 268.12 49.8451 268.408 51.469C269.207 56.0535 270.258 60.6216 271.168 65.1361C273.403 75.992 276.148 89.6244 278.074 99.6474C279.496 107.102 280.437 114.757 280.753 121.476C280.8 122.771 281.532 122.696 281.861 121.681C283.059 117.943 283.527 114.027 283.513 109.89C283.518 105.838 282.196 97.6195 280.865 91.1172C279.037 82.1231 276.61 69.4121 274.893 61.23C273.415 54.2727 271.999 47.3004 271.158 40.5601C271.06 39.7832 270.734 39.5467 270.44 39.6167ZM847.731 39.6586C847.436 39.7148 847.172 40.1295 847.053 40.7454L845.689 47.6867C845.304 49.6325 845.409 49.8941 845.689 51.511C846.487 56.1026 847.556 60.6566 848.459 65.1781C850.694 76.0341 853.863 92.6295 855.776 102.652C857.205 110.114 858.138 117.772 858.454 124.491C858.517 125.779 859.24 125.701 859.562 124.686C860.767 120.955 861.238 117.039 861.224 112.895C861.229 108.849 859.901 100.635 858.577 94.1322C856.755 85.1452 853.907 69.4469 852.184 61.2717C850.713 54.3074 849.29 47.3422 848.449 40.6019C848.351 39.8319 848.018 39.5886 847.731 39.6586ZM777.071 40.1406C777.474 40.1367 777.856 40.2455 778.087 40.571C778.816 41.4039 779.931 43.1374 780.078 46.2101C780.115 47.085 779.949 48.2969 779.893 48.353C779.809 48.4159 778.248 47.7137 777.953 47.5737C777.393 47.2797 775.8 46.6794 772.977 45.6154C771.884 45.4123 772.956 43.6264 772.956 43.6264C773.376 42.8425 774.077 41.8606 774.854 41.0837L775.911 40.3762C776.244 40.2607 776.668 40.1442 777.071 40.1406ZM161.506 45.7899C161.383 45.8319 161.271 45.9946 161.208 46.149L159.608 49.1428C159.425 49.4788 159.282 49.7189 159.423 50.0758C159.899 51.2797 160.275 52.6474 160.233 53.4593C158.356 55.2651 156.327 55.5724 154.856 54.3615C153.904 53.5846 153.547 52.1166 153.646 50.1988C153.709 48.827 153.872 48.3065 152.66 49.2864C151.091 50.5603 151.503 50.4384 151.419 51.1523C150.865 55.6739 148.925 57.7018 145.436 57.9398C143.244 58.0799 141.631 56.5545 143.158 52.2289C143.488 51.305 142.829 50.3181 141.876 52.2289C138.604 58.7453 140.59 62.3918 143.918 62.8817C146.643 63.2875 149.893 61.7412 151.532 57.6117C152.814 59.6975 155.36 60.3154 157.678 59.7135C160.627 58.9506 161.281 57.569 162.121 55.1613C162.934 52.8518 162.968 49.7858 161.855 46.1182C161.764 45.8205 161.629 45.7463 161.506 45.7899ZM616.174 47.5124C611.88 47.2394 607.907 49.1664 605.687 53.6949C605.442 54.2758 605.084 55.0685 604.845 55.6634C604.586 56.6503 605.09 57.3184 605.615 56.5554C606.203 55.6665 606.948 54.7982 607.873 54.2383C610.065 52.9085 612.407 52.3873 614.789 52.6183C616.953 52.8283 621.021 54.3391 621.007 54.5561C620.97 55.0322 611.55 59.6917 610.079 60.6156C609.434 61.0145 608.649 61.7569 608.796 62.4919C608.894 63.0588 609.815 63.1781 610.571 62.9123C614.277 61.5685 615.608 61.6636 618.606 60.3901C622.648 58.6543 623.846 56.5092 624.568 56.2992C624.862 56.2084 625.206 56.2388 625.563 55.9097C626.726 54.8248 627.695 51.9375 627.8 50.9575C627.681 50.1947 624.969 49.9297 624.198 49.7477C621.515 49.1108 618.962 47.6944 616.174 47.5124ZM526.572 48.066C526.352 48.0923 526.183 48.2445 526.008 48.507C524.915 50.2008 523.535 52.6662 522.211 54.71C520.306 53.4081 517.811 51.9299 516.116 50.8241C515.191 50.2291 514.809 50.2948 514.248 51.1627C513.254 52.6815 511.745 54.9427 510.708 56.8325C510.33 57.4974 510.426 58.0869 511.406 58.6678C513.22 59.7107 516.093 61.3674 517.809 62.2563C518.348 62.5435 518.802 62.3618 519.215 61.7949C520.146 60.507 521.171 58.6046 522.663 56.1968C525.206 57.6876 527.285 59.0029 529.281 60.0108C529.835 60.2838 530.14 60.2444 530.554 59.7342C531.555 58.4743 533.344 55.6525 534.094 54.2386C534.612 53.2518 534.479 52.8738 533.632 52.3419C532.315 51.516 529.062 49.4444 527.444 48.3945C527.062 48.1425 526.792 48.0403 526.572 48.066ZM417.71 48.3222C411.203 51.0449 381.861 60.4725 376.152 62.9223C375.773 63.0835 375.595 63.157 375.433 63.64C375.202 64.3189 374.179 66.9922 373.863 68.1821C373.744 68.665 374.175 68.664 374.582 68.5102C375.373 68.1884 376.701 67.4205 377.619 67.1055C382.368 65.4537 410.063 56.141 415.842 53.8382C416.207 53.6703 416.54 53.5028 416.715 53.0898C417.065 52.2779 417.911 49.9487 418.233 48.7938C418.359 48.3177 418.102 48.1477 417.71 48.3222ZM719.947 51.8902C715.652 51.6104 711.663 53.5339 709.449 58.0624C709.204 58.6504 708.846 59.4361 708.608 60.031C708.349 61.0179 708.866 61.686 709.377 60.923C709.973 60.0341 710.71 59.1658 711.635 58.6059C713.835 57.276 716.169 56.7549 718.551 56.9859C720.709 57.1959 724.783 58.7067 724.769 58.9237C724.733 59.3998 715.319 64.0592 713.841 64.9832C713.197 65.3821 712.418 66.1245 712.558 66.8594C712.67 67.4333 713.574 67.5456 714.323 67.2799C718.036 65.943 719.377 66.0316 722.368 64.7577C726.41 63.0289 727.605 60.8767 728.32 60.6668C728.614 60.576 728.968 60.6059 729.325 60.2773C730.488 59.1923 731.45 56.305 731.562 55.3251C731.436 54.5692 728.728 54.2973 727.95 54.1153C725.274 53.4783 722.721 52.0652 719.947 51.8902ZM652.776 54.1253C652.553 54.1726 652.387 54.3442 652.212 54.6277C651.021 56.5595 649.404 59.477 648.507 61.2409C648.136 61.9548 648.154 62.4614 648.938 62.8813C650.5 63.7073 653.219 65.2051 655.167 66.234C655.965 66.6608 656.458 66.5931 656.829 65.9983C657.908 64.2415 659.48 61.5581 660.482 59.8363C660.839 59.2274 660.933 58.7444 660.339 58.3804C658.496 57.2605 655.508 55.4596 653.659 54.3818C653.28 54.1613 652.999 54.0797 652.776 54.1253ZM210.452 56.0529C203.951 58.7686 182.822 65.9714 177.113 68.4281C176.735 68.5893 176.553 68.656 176.385 69.1458C176.168 69.8178 175.458 72.0571 175.143 73.247C175.024 73.7368 175.455 73.7331 175.861 73.5651C176.646 73.2433 177.653 72.6474 178.55 72.2835C183.047 70.4007 203.123 63.4413 208.903 61.1386C209.274 60.9706 209.593 60.8026 209.775 60.3901C210.125 59.5782 210.66 57.6797 210.975 56.5248C211.102 56.0418 210.851 55.8775 210.452 56.0529ZM35.0453 56.2476C30.7513 55.9678 26.7719 57.8913 24.5583 62.4199C24.3203 63.0148 23.955 63.8005 23.7169 64.3884C23.4579 65.3753 23.968 66.0536 24.4865 65.2907C25.0819 64.4018 25.8123 63.5232 26.744 62.9633C28.9295 61.6334 31.2783 61.1194 33.6601 61.3433C35.8176 61.5601 39.8854 63.0711 39.8784 63.2811C39.8416 63.7572 30.4212 68.4269 28.9501 69.3508C28.3057 69.7498 27.5204 70.4819 27.6675 71.2169C27.7725 71.7908 28.6829 71.9101 29.4324 71.6373C33.1451 70.3005 34.4791 70.389 37.4773 69.1151C41.5192 67.3933 42.7143 65.2342 43.4288 65.0242C43.723 64.9334 44.0702 64.9822 44.4344 64.6447C45.5973 63.5598 46.5663 60.6621 46.6714 59.6822C46.5453 58.9263 43.837 58.6614 43.0594 58.4724C40.3835 57.8355 37.8263 56.4226 35.0453 56.2476ZM578.207 61.2716C571.706 63.9943 553.543 71.231 547.834 73.6878C547.462 73.849 547.259 73.9224 547.105 74.4055C546.881 75.0845 546.179 77.3201 545.863 78.5169C545.744 79.0067 546.176 78.9957 546.582 78.8345C547.366 78.5127 548.377 77.9066 549.28 77.5426C553.778 75.6598 570.886 68.6698 576.658 66.367C577.029 66.199 577.355 66.0247 577.53 65.6185C577.873 64.8066 578.418 62.8978 578.741 61.7429C578.867 61.2668 578.606 61.0892 578.207 61.2716ZM479.801 61.692C473.286 64.4148 458.551 70.2847 452.834 72.7344C452.463 72.9024 452.284 72.9622 452.116 73.4521C451.892 74.124 451.2 76.3666 450.885 77.5635C450.752 78.0464 451.194 78.0354 451.593 77.8816C452.384 77.5598 453.385 76.9607 454.281 76.5898C458.785 74.7069 472.469 69.0805 478.241 66.7777C478.62 66.6029 478.949 66.4391 479.124 66.019C479.467 65.2211 480.002 63.3156 480.324 62.1537C480.451 61.6776 480.186 61.5171 479.801 61.692ZM820.005 62.2559C819.783 62.3032 819.615 62.4748 819.44 62.7583C818.249 64.6972 816.629 67.6076 815.726 69.3715C815.354 70.0854 815.372 70.6022 816.156 71.0222C817.719 71.8481 820.438 73.3389 822.385 74.3748C823.191 74.7948 823.679 74.7308 824.058 74.1287C825.129 72.3788 826.692 69.6847 827.7 67.9769C828.051 67.3539 828.162 66.878 827.567 66.521C825.725 65.4011 822.733 63.604 820.877 62.5121C820.502 62.2916 820.226 62.2098 820.005 62.2559ZM526.028 70.6633C525.66 70.835 525.325 71.7178 525.105 72.8061C524.103 77.8736 524.756 84.0313 524.735 85.1301C521.121 86.691 513.981 89.2525 510.339 93.599C506.682 97.5956 502.069 109.534 503.505 111.654C505.186 114.167 522.483 115.358 529.004 102.857C530.903 108.331 533.803 121.16 541.082 124.471C548.003 127.613 558.741 127.965 570.419 115.653C582.397 137.722 637.155 126.148 645.778 114.228C656.229 121.71 660.524 122.844 667.368 116.719C672.054 112.457 673.872 103.1 672.478 92.748C671.763 87.8905 669.621 83.0578 664.956 77.4097C663.527 75.7019 661.91 74.1946 660.082 74.1596C658.989 74.1386 657.827 74.6483 656.573 75.9641C649.708 83.5443 649.502 92.0048 650.56 95.7214C652.563 102.392 662.567 106.762 667.891 96.6339C674.805 107.714 658.156 115.561 648.405 109.563C649.07 107.47 649.366 106.131 649.359 104.108C649.343 102.61 648.335 101.74 647.368 103.175C643.964 108.432 639.777 110.177 633.711 112.557C616.142 119.381 587.401 121.82 573.692 108.907C571.122 106.548 569.802 106.866 568.12 108.784C560.268 117.883 547.88 119.95 539.902 112.608C532.988 106.302 529.567 83.8308 527.157 72.7859C526.807 71.0326 526.397 70.4918 526.028 70.6633ZM332.038 73.975C331.818 74.0222 331.649 74.1939 331.474 74.4774C330.283 76.4092 328.653 79.3267 327.749 81.0905C327.392 81.8044 327.406 82.304 328.19 82.731C329.753 83.5499 332.472 85.0618 334.419 86.0837C335.225 86.5178 335.713 86.4427 336.092 85.848C337.163 84.0912 338.729 81.404 339.724 79.6962C340.088 79.0802 340.193 78.6043 339.591 78.2403C337.755 77.1204 334.76 75.3163 332.911 74.2314C332.529 74.011 332.258 73.9293 332.038 73.975ZM621.756 74.6619C621.537 74.6882 621.377 74.8473 621.202 75.1129C620.102 76.7927 618.733 79.2721 617.416 81.3159C615.51 80.014 612.998 78.5186 611.31 77.4198C610.392 76.8178 610.003 76.8974 609.443 77.7584C608.455 79.2842 606.949 81.5417 605.913 83.4385C605.541 84.0964 605.623 84.6998 606.61 85.2737C608.418 86.3236 611.287 87.9734 613.003 88.8623C613.55 89.1421 613.992 88.9678 614.399 88.4008C615.344 87.113 616.365 85.2035 617.857 82.8027C620.4 84.3006 622.489 85.6057 624.486 86.6066C625.039 86.8795 625.338 86.8407 625.758 86.3299C626.753 85.07 628.545 82.252 629.288 80.8241C629.82 79.8512 629.674 79.4695 628.826 78.9375C627.509 78.1186 624.257 76.0401 622.638 74.9902C622.253 74.7419 621.975 74.6357 621.756 74.6619ZM157.996 77.1021L157.935 77.174C157.802 77.3488 157.577 77.7026 157.535 78.0455C157.255 80.1243 156.953 82.3272 156.673 84.3921C156.568 85.148 156.323 85.958 157.247 86.658C160.904 89.4648 164.574 93.5487 166.052 99.6381C156.91 108.674 120.129 115.663 105.951 115.089C110.546 112.087 114.05 108.302 115.997 103.914C117.678 99.889 118.81 94.6181 118.747 90.3695C118.628 83.8182 115.601 82.6278 113.534 82.5157C110.536 82.3409 107.342 86.4038 105.192 91.4153C102.761 97.0638 100.922 103.356 99.7943 109.501C88.6143 113.638 70.2656 116.208 55.527 109.881C50.3223 107.641 46.3008 104.039 43.1416 99.1462C41.0891 95.9755 38.6112 97.2446 36.7899 98.7567C34.163 100.94 30.3443 106.026 29.6788 108.517C28.9713 111.177 29.0188 117.187 32.8085 119.693C25.8805 128.197 12.8686 137.541 1.42942 144.218C0.154531 144.974 -1.18226 146.629 1.80911 145.838C9.82985 143.703 19.2305 140.564 25.6051 135.79C30.1233 132.416 34.3746 127.385 35.2712 121.016C39.3061 122.507 45.2702 123.272 50.3348 123.958C52.7305 124.28 52.8652 124.297 53.1875 121.959L53.6595 118.647C63.4525 123.638 78.581 124.068 94.7765 120.113C94.5942 124.586 94.8464 124.992 97.4239 124.943C98.0053 124.927 98.7059 124.943 99.3223 124.943C101.242 133.461 107.255 142.278 115.997 142.362C118.827 142.399 121.479 141.237 122.831 138.774C125.325 134.203 125.357 127.544 123.683 122.861C136.439 120.894 154.451 117.868 165.764 108.251C166.78 107.397 167.256 105.909 167.663 104.755C170.822 95.6975 168.17 83.7196 159.238 77.5742C158.804 77.2802 158.151 77.2928 157.996 77.1947L157.996 77.1021ZM830.471 80.4651L830.399 80.5265C830.266 80.7087 830.048 81.062 829.999 81.398C829.719 83.4768 829.417 85.669 829.137 87.7548C829.032 88.4967 828.787 89.3137 829.711 90.0207C833.368 92.8203 837.041 96.9013 838.526 102.991C830.729 112.027 798.848 117.119 784.305 116.545C788.901 113.542 792.397 109.765 794.351 105.369C796.025 101.352 797.164 96.0668 797.101 91.8252C796.982 85.2668 793.944 84.0802 791.878 83.9612C788.88 83.7864 785.703 87.8563 783.546 92.8607C781.116 98.5162 779.273 104.808 778.138 110.947C771.89 113.334 764.564 114.466 757.195 114.074C744.866 113.423 736.587 108.926 731.039 100.345C728.986 97.1677 726.494 98.4543 724.687 99.9658C722.06 102.143 718.231 107.232 717.566 109.716C716.858 112.383 716.916 118.386 720.706 120.892C713.778 129.403 700.773 138.75 689.327 145.427C688.052 146.169 686.722 147.825 689.706 147.027C697.727 144.906 707.125 141.766 713.492 136.999C718.01 133.612 722.272 128.587 723.169 122.225C727.21 123.702 733.168 124.478 738.232 125.157C740.628 125.479 740.762 125.506 741.085 123.168L741.557 119.856C746.475 122.348 752.499 123.419 759.945 123.363C764.59 123.326 769.051 122.699 773.121 121.558C772.939 126.031 773.208 126.437 775.779 126.388C776.36 126.382 777.043 126.403 777.667 126.388C779.579 134.906 785.609 143.73 794.351 143.807C797.174 143.844 799.823 142.689 801.175 140.219C803.669 135.648 803.701 128.989 802.027 124.306C813.851 122.528 832.999 117.835 838.239 111.613C839.332 110.318 839.721 109.272 840.127 108.117C843.293 99.0528 840.617 87.0716 831.692 80.9262C831.258 80.6254 830.608 80.6448 830.461 80.5467L830.471 80.4651ZM413.287 82.0953C412.118 82.1426 410.915 82.7071 409.963 83.582C406.229 86.8996 404.66 91.9497 402.944 96.5621C401.984 99.1169 400.938 101.568 399.383 103.493C396.756 106.51 393.418 108.493 389.615 109.809C380.158 113.484 361.525 114.284 354.141 110.701C350.597 109.441 347.322 107.364 344.219 104.221C341.508 100.959 340.697 101.664 337.713 104.303C332.088 109.825 324.68 112.059 318.319 113.438C317.002 107.937 313.511 97.5631 307.319 97.8641C302.465 98.571 299.862 104.392 298.853 109.788C297.733 115.381 297.76 120.759 303.974 122.809C307.196 123.887 311.309 123.41 316.031 122.871C310.588 132.481 304.157 138.364 297.509 141.808C285.615 147.974 272.535 146.858 260.332 144.269C258.882 144.045 258.275 146.312 259.788 146.893C271.403 152.031 286.753 154.912 299.418 149.641C308.692 145.764 316.431 136.949 320.515 121.466C328.34 119.415 335.773 114.554 339.591 109.809C340.564 108.766 341.075 109.119 341.817 109.993C343.478 112.212 346.425 118.528 355.475 120.964C367.461 124.163 390.901 121.149 398.347 112.813C399.79 111.231 400.884 108.45 402.103 106.077C404.722 109.94 411.36 111.334 416.992 112.013C422.161 112.65 422.506 112.619 423.641 108.343C424.082 106.754 424.403 105.167 424.452 103.872C424.368 100.758 423.198 95.6707 420.942 90.2463C418.049 83.9399 415.522 82.0113 413.287 82.0953ZM659.025 84.1561C661.246 84.1299 663.704 86.5071 665.449 90.7487C661.267 94.1503 657.208 93.3857 654.49 89.5082C655.491 85.8615 657.176 84.1841 659.025 84.1561ZM232.319 86.0631C232.109 86.0579 231.987 86.3099 231.847 86.7296C231.399 88.5284 230.862 90.2418 230.421 92.0406C230.267 92.6776 230.001 93.4188 230.708 94.1117C233.23 96.5545 235.888 100.917 236.875 105.39C230.795 110.569 219.47 112.054 211.827 111.9C206.23 111.781 199.245 110.835 196.282 105.564C194.832 102.988 194.486 104.539 194.198 106.128C193.253 111.35 193.748 116.22 199.688 119.006C195.107 129.127 187.427 135.771 180.387 139.481C171.378 144.247 163.188 146.2 151.686 143.849C147.749 143.044 147.576 145.566 150.742 146.637C162.125 150.466 172.038 150.773 179.751 148.421C188.654 145.699 197.772 136.703 202.921 120.051C212.279 121.773 224.653 120.757 233.458 116.186C235.217 115.283 235.795 115.04 237.07 113.059C241.841 105.661 240.882 93.2014 233.366 86.545C232.96 86.1949 232.648 85.9862 232.319 86.0631ZM525.936 90.4002C525.978 90.8269 528.122 98.7255 528.122 98.7255C521.159 104.647 513.348 103.692 508.584 102.929C510.419 99.0306 518.539 93.6898 525.936 90.4002ZM111.174 91.5997C111.419 91.5577 111.678 91.563 111.923 91.5997C113.513 91.8307 114.949 93.7176 115.72 96.2443C113.359 101.501 108.522 105.638 102.442 108.466C103.688 102.264 105.923 96.5678 108.886 93.1172C109.656 92.2213 110.417 91.7257 111.174 91.5997ZM411.502 91.8149C414.808 92.4169 417.667 98.5661 418.787 102.591C413.744 101.926 409.762 100.952 405.355 98.0897C405.054 97.9149 405.191 97.6829 405.345 97.4028C407.474 93.4761 409.129 91.9021 410.824 91.8252C411.062 91.8252 411.25 91.7661 411.502 91.8149ZM474.147 92.7685C469.601 92.9013 462.623 101.267 460.038 106.271C459.1 108.105 459.437 110.758 461.146 111.962C462.645 113.026 465.053 114.084 467.806 115.427C466.58 115.987 463.417 118.253 462.275 119.436C461.806 120.71 461.257 122.865 460.92 124.132C460.808 124.58 461.203 125.094 461.7 124.717C464.572 122.589 468.89 119.9 473.542 117.765C477.78 115.819 481.14 114.515 484.306 114.053C484.775 113.928 486.959 109.128 487.302 108.435C487.75 107.525 487.334 107.299 486.666 107.481C483.045 108.524 480.238 109.419 475.748 109.419C470.2 109.424 465.507 105.61 465.507 103.944C465.507 102.677 469.191 99.8168 470.669 99.9147C474.956 100.195 475.208 103.915 476.343 103.852C477.716 103.789 480.039 98.6749 480.088 97.331C480.13 95.8752 476.921 92.6775 474.147 92.7685ZM789.508 93.0556C789.767 93.0084 790.039 93.0136 790.278 93.0556C791.868 93.2798 793.293 95.1632 794.064 97.6899C791.703 102.953 786.883 107.091 780.796 109.911C782.043 103.71 784.263 98.0204 787.24 94.5628C788.011 93.6739 788.765 93.1816 789.508 93.0556ZM39.4372 102.827C39.9765 102.904 40.4852 103.295 40.8635 104.149C42.6218 108.104 44.6794 111.348 47.2153 113.91C42.1646 113.007 36.7759 111.869 33.2804 109.84C32.2296 109.231 32.2705 108.846 32.9007 107.943C34.0986 106.228 35.9545 104.823 37.7338 103.493C38.3292 103.045 38.8908 102.757 39.4372 102.827ZM727.335 104.047C727.881 104.117 728.383 104.515 728.761 105.369C730.519 109.324 732.577 112.551 735.113 115.12C730.062 114.21 724.666 113.079 721.178 111.049C720.12 110.44 720.168 110.056 720.798 109.153C721.996 107.445 723.852 106.033 725.631 104.703C726.234 104.248 726.788 103.977 727.335 104.047ZM306.385 107.184C309.019 107.114 311.604 111.297 312.963 114.279C309.705 114.316 305.153 114.152 302.701 111.982C301.917 111.297 301.754 110.862 302.209 110.239C303.33 108.812 305.32 107.065 306.385 107.184ZM155.072 123.199C154.851 123.241 154.683 123.407 154.507 123.691C153.31 125.63 151.704 128.551 150.793 130.314C150.421 131.028 150.439 131.535 151.224 131.955C152.779 132.781 155.512 134.279 157.452 135.307C158.258 135.734 158.754 135.673 159.125 135.072C160.211 133.322 161.766 130.628 162.768 128.92C163.132 128.304 163.23 127.821 162.634 127.464C160.799 126.337 157.8 124.547 155.944 123.455C155.566 123.235 155.293 123.156 155.072 123.199ZM102.349 124.942C110.517 124.947 119.937 125.623 121.394 130.243C119.034 133.826 113.551 134.094 108.886 131.483C106.252 130.007 103.701 127.77 102.349 124.942ZM780.704 126.388C788.865 126.409 798.295 127.086 799.759 131.699C797.391 135.289 791.899 135.54 787.24 132.929C784.606 131.452 782.049 129.215 780.704 126.388ZM227.075 126.542C226.853 126.589 226.679 126.76 226.501 127.044C225.31 128.969 223.7 131.876 222.796 133.647C222.425 134.368 222.439 134.878 223.238 135.298C224.786 136.123 227.516 137.621 229.456 138.65C230.262 139.077 230.757 139.006 231.129 138.404C232.207 136.654 233.77 133.967 234.771 132.252C235.143 131.636 235.233 131.16 234.638 130.796C232.803 129.677 229.797 127.876 227.948 126.798C227.569 126.57 227.298 126.494 227.075 126.542ZM681.097 129.535C674.583 132.258 659.846 138.131 654.13 140.588C653.759 140.756 653.573 140.823 653.412 141.306C653.188 141.985 652.486 144.22 652.171 145.417C652.044 145.9 652.483 145.879 652.889 145.725C653.673 145.403 654.681 144.821 655.577 144.443C660.082 142.567 673.758 136.934 679.538 134.631C679.909 134.463 680.242 134.296 680.41 133.883C680.76 133.071 681.295 131.172 681.61 130.017C681.751 129.534 681.49 129.368 681.097 129.535ZM862.332 132.16C859.341 132.186 853.059 137.467 851.497 140.721C850.866 142.03 851.11 143.464 852.441 144.423C853.428 145.151 855.315 146.349 857.151 147.273C856.352 147.616 854.576 148.311 853.497 149.088C853.21 149.914 852.84 151.279 852.707 152.133C852.66 152.441 852.877 152.739 853.22 152.543C856.421 150.625 866.138 148.167 870.285 147.201C870.586 147.124 871.911 144.105 872.122 143.664C872.395 143.076 872.127 142.923 871.701 143.028C869.34 143.651 866.978 144.096 864.035 144.033C860.393 143.956 854.84 140.038 854.882 139.296C854.909 138.561 859.214 136.703 860.188 136.794C863.011 137.04 863.399 139.901 864.148 139.88C865.045 139.854 866.467 136.548 866.467 135.667C866.473 134.715 864.147 132.146 862.332 132.16ZM571.147 135.995C570.928 136.021 570.765 136.173 570.593 136.436C569.493 138.123 568.114 140.588 566.797 142.639C564.884 141.337 562.393 139.852 560.691 138.753C559.78 138.151 559.401 138.224 558.834 139.091C557.839 140.603 556.33 142.878 555.294 144.761C554.922 145.433 555.014 146.023 556.002 146.597C557.809 147.639 560.671 149.289 562.394 150.185C562.941 150.465 563.387 150.291 563.8 149.724C564.739 148.443 565.749 146.523 567.248 144.115C569.784 145.606 571.87 146.935 573.867 147.929C574.42 148.202 574.719 148.163 575.139 147.653C576.141 146.4 577.923 143.578 578.679 142.157C579.198 141.184 579.065 140.803 578.217 140.271C576.9 139.445 573.634 137.373 572.03 136.323C571.641 136.075 571.366 135.97 571.147 135.995ZM245.874 141.265C239.366 143.987 224.606 149.864 218.897 152.307C218.526 152.475 218.333 152.552 218.179 153.035C217.955 153.707 217.26 155.95 216.937 157.146C216.818 157.629 217.249 157.619 217.656 157.464C218.44 157.142 219.447 156.533 220.344 156.162C224.848 154.286 238.553 148.663 244.325 146.36C244.703 146.185 245.022 146.014 245.197 145.601C245.547 144.797 246.085 142.891 246.408 141.736C246.541 141.253 246.273 141.089 245.874 141.265ZM875.385 150.513C868.779 152.97 858.241 156.661 852.441 158.879C852.055 159.033 851.863 159.101 851.681 159.576C851.429 160.241 850.619 162.44 850.255 163.616C850.108 164.099 850.539 164.102 850.953 163.955C851.751 163.668 852.785 163.112 853.703 162.776C858.277 161.082 867.736 157.592 873.599 155.527C873.978 155.373 874.313 155.225 874.502 154.819C874.881 154.021 875.523 152.156 875.888 151.015C876.035 150.539 875.791 150.359 875.385 150.513ZM127.223 153.496C120.715 156.219 98.4948 164.406 92.7857 166.856C92.4143 167.024 92.2113 167.101 92.0572 167.584C91.8328 168.263 91.134 170.488 90.8258 171.685C90.6997 172.168 91.1348 172.164 91.5338 172.003C92.3254 171.681 93.3289 171.099 94.2326 170.721C98.7298 168.845 119.901 160.884 125.673 158.582C126.051 158.407 126.363 158.243 126.545 157.823C126.896 157.018 127.434 155.116 127.756 153.968C127.882 153.478 127.608 153.321 127.223 153.496ZM173.163 156.644C166.648 159.36 144.431 167.564 138.715 170.014C138.337 170.182 138.158 170.242 137.997 170.732C137.773 171.404 137.071 173.639 136.755 174.843C136.629 175.326 137.064 175.304 137.463 175.151C138.255 174.829 139.266 174.237 140.162 173.859C144.666 171.983 165.824 164.025 171.603 161.73C171.974 161.555 172.307 161.387 172.475 160.981C172.825 160.169 173.36 158.26 173.676 157.105C173.808 156.629 173.556 156.462 173.163 156.644Z" fill="white"/>
</g>
<g clip-path="url(#clip1_1_43)">
<path fill-rule="evenodd" clip-rule="evenodd" d="M346.189 225.307C342.853 225.87 338.936 230.478 337.347 235.777C336.625 238.174 337.091 239.545 338.384 240.346C340.268 241.523 343.007 242.445 346.242 243.276C342.48 249.572 330.37 257.717 328.125 259.002C325.497 260.533 325.968 262.189 329.246 260.716C341.462 255.207 347.476 249.351 350.155 244.196C350.992 244.369 351.717 244.628 352.598 244.852C354.056 245.249 353.715 245.406 354.502 243.096C354.87 241.999 355.123 241.233 355.231 240.685L351.583 239.437L351.932 238.157C352.394 233.948 351.316 230.489 350.948 229.442C349.822 226.164 348.182 224.953 346.189 225.307ZM555.817 226.629C549.11 229.438 526.205 237.897 520.313 240.431C519.93 240.604 519.739 240.663 519.573 241.161C519.342 241.861 518.618 244.17 518.293 245.412C518.163 245.903 518.612 245.896 519.023 245.729C519.832 245.405 520.88 244.787 521.804 244.397C526.447 242.462 548.253 234.25 554.209 231.875C554.599 231.702 554.928 231.529 555.108 231.103C555.462 230.272 556.032 228.317 556.356 227.126C556.493 226.628 556.222 226.449 555.817 226.629ZM488.236 227.19C484.9 227.753 480.979 232.353 479.384 237.66C478.669 240.05 479.132 241.427 480.431 242.229C482.315 243.406 485.047 244.328 488.289 245.158C484.52 251.454 472.41 259.6 470.172 260.885C467.537 262.401 468.023 264.071 471.293 262.598C483.516 257.089 489.523 251.241 492.202 246.078C493.04 246.259 493.761 246.503 494.635 246.734C496.093 247.124 495.769 247.278 496.549 244.968C496.917 243.878 497.163 243.12 497.279 242.557L493.63 241.319L493.979 240.05C494.441 235.841 493.356 232.365 492.995 231.325C491.862 228.047 490.229 226.843 488.236 227.19ZM273.256 229.389C266.549 232.191 251.357 238.26 245.473 240.78C245.09 240.96 244.881 241.03 244.722 241.52C244.491 242.221 243.778 244.527 243.453 245.761C243.323 246.259 243.772 246.245 244.183 246.079C244.999 245.754 246.033 245.139 246.964 244.757C251.6 242.814 265.7 237.011 271.649 234.635C272.039 234.455 272.367 234.289 272.548 233.863C272.909 233.033 273.471 231.067 273.796 229.876C273.933 229.378 273.668 229.209 273.256 229.389ZM345.798 230.288C346.212 230.285 346.599 230.4 346.834 230.743C347.592 231.595 348.734 233.369 348.886 236.539C348.913 237.441 348.764 238.699 348.706 238.749C348.619 238.821 347 238.101 346.697 237.956C346.112 237.66 344.477 237.03 341.567 235.926C340.434 235.724 341.535 233.884 341.535 233.884C341.975 233.076 342.708 232.06 343.502 231.251L344.602 230.532C344.942 230.413 345.383 230.291 345.798 230.288ZM487.834 232.171C488.25 232.168 488.646 232.275 488.881 232.615C489.632 233.467 490.781 235.259 490.933 238.421C490.96 239.324 490.8 240.584 490.743 240.642C490.649 240.714 489.04 239.983 488.744 239.838C488.159 239.535 486.524 238.913 483.614 237.808C482.481 237.606 483.582 235.767 483.582 235.767C484.016 234.958 484.755 233.942 485.549 233.133L486.639 232.403C486.982 232.288 487.418 232.174 487.834 232.171ZM294.208 232.277C287.5 235.078 272.305 241.133 266.414 243.667C266.031 243.84 265.839 243.909 265.673 244.407C265.442 245.108 264.719 247.414 264.394 248.648C264.264 249.154 264.715 249.139 265.134 248.966C265.943 248.634 266.984 248.026 267.915 247.644C272.551 245.701 286.651 239.898 292.6 237.522C292.99 237.349 293.329 237.176 293.51 236.75C293.871 235.92 294.415 233.954 294.747 232.763C294.884 232.272 294.612 232.097 294.208 232.277ZM581.189 242.779C576.763 242.497 572.651 244.481 570.37 249.145C570.124 249.759 569.758 250.57 569.513 251.176C569.246 252.201 569.765 252.883 570.306 252.096C570.92 251.179 571.669 250.276 572.622 249.706C574.882 248.334 577.296 247.804 579.751 248.035C581.974 248.266 586.174 249.817 586.16 250.034C586.133 250.525 576.423 255.335 574.907 256.295C574.25 256.706 573.43 257.469 573.574 258.22C573.69 258.812 574.624 258.928 575.404 258.653C579.223 257.274 580.605 257.366 583.696 256.052C587.854 254.268 589.086 252.048 589.83 251.832C590.133 251.745 590.495 251.777 590.856 251.43C592.061 250.318 593.063 247.34 593.172 246.322C593.042 245.549 590.243 245.261 589.449 245.074C586.684 244.41 584.048 242.959 581.189 242.779ZM696.362 248.595C689.655 251.397 666.75 259.852 660.858 262.387C660.476 262.56 660.288 262.618 660.129 263.116C659.89 263.817 659.163 266.133 658.838 267.368C658.708 267.866 659.167 267.851 659.579 267.685C660.395 267.36 661.429 266.742 662.36 266.353C666.995 264.418 688.809 256.209 694.765 253.841C695.148 253.661 695.491 253.488 695.664 253.069C696.025 252.232 696.577 250.273 696.902 249.082C697.039 248.584 696.767 248.407 696.362 248.595ZM418.508 250.288C414.082 250.006 409.981 251.99 407.699 256.654C407.454 257.268 407.078 258.082 406.832 258.696C406.558 259.714 407.081 260.403 407.615 259.616C408.228 258.699 408.992 257.803 409.952 257.226C412.212 255.846 414.615 255.323 417.07 255.554C419.293 255.778 423.497 257.326 423.489 257.543C423.451 258.041 413.742 262.851 412.226 263.804C411.562 264.222 410.749 264.981 410.893 265.739C411.009 266.324 411.95 266.447 412.723 266.173C416.549 264.794 417.914 264.885 421.004 263.571C425.17 261.788 426.405 259.561 427.149 259.351C427.452 259.258 427.806 259.289 428.175 258.95C429.373 257.83 430.382 254.849 430.491 253.831C430.361 253.058 427.562 252.781 426.768 252.593C424.003 251.936 421.374 250.475 418.508 250.288ZM510.678 252.403C510.472 252.359 510.284 252.476 510.107 252.815C509.465 254.101 508.412 256.907 508.383 257.702C508.378 258.113 509.602 259.513 510.996 261.477C515.371 267.65 517.69 274.436 516.368 283.613C516.26 284.393 516.027 285.15 516.432 285.136C518.453 285.028 519.627 278.104 519.562 274.443C519.411 265.541 515.788 258.472 511.355 252.964C511.11 252.656 510.885 252.448 510.678 252.403ZM538.515 253.207C538.288 253.255 538.117 253.432 537.933 253.725C536.706 255.718 535.036 258.72 534.104 260.546C533.722 261.276 533.751 261.795 534.559 262.228C536.162 263.08 538.979 264.628 540.979 265.697C541.809 266.13 542.309 266.067 542.692 265.454C543.804 263.642 545.414 260.863 546.447 259.087C546.822 258.459 546.923 257.971 546.309 257.596C544.417 256.441 541.32 254.58 539.414 253.461C539.024 253.233 538.741 253.157 538.515 253.207ZM616.386 261.646C616.161 261.695 615.996 261.875 615.815 262.164C614.588 264.164 612.918 267.17 611.986 268.997C611.611 269.726 611.625 270.256 612.441 270.689C614.044 271.541 616.85 273.086 618.85 274.147C619.681 274.587 620.181 274.518 620.564 273.904C621.676 272.092 623.293 269.317 624.318 267.548C624.693 266.913 624.802 266.425 624.181 266.057C622.289 264.901 619.198 263.03 617.285 261.911C616.895 261.683 616.611 261.598 616.386 261.646ZM236.695 263.73C235.641 263.773 234.536 264.054 233.374 264.523C225.288 267.736 215.976 279.589 212.539 288.679C208.886 298.866 211.322 303.307 216.643 306.404C223.401 310.173 235.141 306.952 238.577 308.837C239.242 309.169 239.236 309.169 238.789 309.725C229.93 318.591 217.197 322.349 205.897 322.681C188.952 323.229 176.547 311.725 187.622 287.907C188.51 286.022 186.848 284.58 185.412 287.23C174.885 306.954 178.204 323.132 188.955 328.561C204.896 336.416 227.83 329.787 239.794 317.044C241.115 315.491 242.448 314.157 243.22 311.724C244.664 307.515 244.342 303.404 242.343 301.296C239.909 298.978 235.14 299.984 230.931 299.984C224.18 300.086 218.301 299.088 215.976 295.543C214.424 293.55 214.427 292 215.871 289.567C218.636 284.13 226.176 276.387 231.714 274.063C235.482 272.626 239.016 273.394 242.12 279.488C242.785 281.149 244.009 280.809 244.341 279.372L245.547 274.062C245.771 272.51 245.558 271.953 244.891 270.509C243.343 267.184 241.62 265.222 239.709 264.322C238.754 263.872 237.749 263.684 236.695 263.73ZM282.331 264.11C282.114 264.105 281.963 264.576 281.717 265.464C281.32 267.45 280.962 269.388 280.564 271.482C280.312 272.587 280.388 272.629 280.691 273.639C281.875 278.766 285.156 291.808 286.751 297.721C284.441 305.851 272.831 309.697 262.86 309.228C257.431 308.983 258.434 306.929 257.466 306.33C256.369 305.659 255.85 307.402 255.764 307.842C255.215 310.485 255.013 312.98 255.446 315.658C255.771 317.658 256.96 318.402 259.169 318.503C265.595 318.77 270.348 318.132 275.15 316.356C282.557 313.613 285.598 311.115 288.169 302.66C291.605 314.169 295.354 320.216 302.69 322.808C314.552 326.981 330.383 321.308 342.794 314.442C344.014 314.543 345.204 314.8 346.316 315.024C352.965 316.677 357.231 318.532 359.896 319.413C364.105 320.849 365.505 318.393 366.833 315.404C370.371 304.329 367.673 296.444 359.695 288.351C353.384 282.149 345.271 277.142 337.517 273.597C334.304 272.276 333.782 273.324 334.005 275.649V282.195C334.005 284.405 334.258 285.076 335.37 285.516C332.041 290.383 329.629 297.244 329.405 302.999C329.296 306.32 329.606 309.437 331.266 311.206C321.411 314.65 311.139 316.158 303.811 313.046C296.584 309.97 292.794 302.427 290.39 293.713C288.151 286.673 284.137 271.739 282.881 265.401C282.686 264.505 282.555 264.002 282.331 264.11ZM547.504 276.77L547.441 276.95C547.318 277.13 547.058 277.282 546.986 277.722C546.632 279.844 546.268 282.1 545.907 284.237C545.784 285.002 545.494 285.844 546.425 286.595C550.108 289.599 553.762 293.928 555.098 300.259C542.174 311.118 502.715 316.355 482.853 314.304C487.668 311.351 491.411 307.563 493.556 303.094C495.411 299 496.748 293.597 496.813 289.207C496.893 282.45 493.81 281.128 491.694 280.948C488.597 280.673 485.189 284.766 482.821 289.863C480.142 295.61 478.037 302.047 476.687 308.35C465.049 312.256 450.598 313.573 435.61 306.584C430.325 304.115 426.287 300.271 423.183 295.13C421.168 291.795 418.578 293.036 416.657 294.538C413.885 296.696 409.779 301.814 409.021 304.363C408.205 307.092 408.068 313.286 411.887 315.986C404.487 324.549 390.798 333.777 378.805 340.311C377.463 341.033 376.039 342.693 379.144 341.971C387.476 340.015 397.251 337.083 403.966 332.368C408.724 329.018 413.272 323.972 414.383 317.446C418.506 319.092 424.633 320.076 429.824 320.936C432.279 321.347 432.406 321.358 432.817 318.968L433.41 315.574C444.254 320.339 454.752 322.412 471.177 319.127C470.845 323.726 471.108 324.146 473.757 324.182C474.357 324.188 475.071 324.237 475.714 324.237C477.418 333.081 483.354 342.355 492.35 342.724C495.267 342.846 498.027 341.739 499.5 339.233C502.214 334.606 502.445 328.631 500.864 323.75C508.531 323.533 539.686 320.459 554.537 309.123C555.62 308.293 556.145 306.747 556.6 305.57C560.137 296.328 557.773 283.903 548.763 277.289C548.33 276.965 547.649 276.957 547.504 276.856V276.77ZM581.538 277.891C580.34 277.864 579.302 278.435 579.042 279.879C578.724 281.634 578.19 286.857 579.042 286.986C579.598 287.073 582.039 285.924 584.277 287.05C589.389 289.62 594.541 298.957 596.44 306.552C592.375 308.971 582.416 310.393 577.435 310.444C575.911 310.46 573.053 310.14 572.273 308.805C571.378 307.238 570.885 307.6 570.56 309.08C570.127 311.044 569.775 313.542 569.725 315.225C569.645 317.78 572.956 319 574.97 319.021C581.454 319.086 590.875 317.871 596.672 314.759C598.145 313.965 598.753 311.222 598.883 308.139C599.229 300.839 598.031 294.45 594.198 288.277C590.855 282.876 586.253 277.992 581.538 277.891ZM679.832 284.702C678.485 284.766 677.236 285.56 675.951 287.008C673.597 289.578 671.573 295.355 671.392 300.799C671.089 306.842 674.352 312.948 680.149 313.056C683.665 313.1 686.895 309.915 688.779 305.272C689.992 312.738 683.781 323.804 675.168 330.771C664.988 338.497 655.278 339.408 640.997 338.809C638.672 338.528 637.633 340.823 640.362 341.517C653.141 344.441 670.537 344.934 679.642 336.768C687.143 330.032 691.625 319.685 692.354 307.895C692.729 300.524 690.389 292.054 684.295 286.733C682.624 285.296 681.179 284.638 679.832 284.702ZM624.255 288.816C623.842 288.885 623.571 289.342 623.557 290.339L623.641 296.389C623.685 298.259 623.625 298.263 624.974 299.657C627.277 301.909 629.496 304.61 631.33 307.895C632.045 309.159 632.072 309.311 631.69 310.582C629.264 317.838 625.068 324.174 619.855 328.297C611.191 335.163 601.583 335.935 587.302 334.621C584.284 334.484 584.078 337.076 586.858 337.603C603.399 341.055 617.864 341.831 626.55 332.495C631.741 327.116 634.946 319.222 635.148 311.237C635.343 303.296 632.925 296.417 625.799 289.63C625.218 289.067 624.667 288.748 624.255 288.816ZM489.738 290.265C491.297 290.85 492.781 292.544 493.503 295.172C490.911 300.515 485.801 304.631 479.447 307.345C480.927 300.992 483.63 295.388 486.576 291.735C487.781 290.226 488.879 289.94 489.738 290.265ZM340.943 292.549C343.932 292.658 347.276 296.856 349.044 301.729C348.164 303.058 346.467 304.512 344.359 305.833C343.37 305.725 342.446 305.455 341.335 305.347C336.237 304.798 333.246 304.955 333.022 302.407C333.022 301.973 333.101 301.678 333.318 301.338C335.866 294.804 338.51 292.441 340.943 292.549ZM351.297 292.549C351.297 292.549 351.379 292.645 351.488 292.645C358.245 297.742 363.88 303.598 364.877 308.572C364.877 308.912 364.985 309.036 364.877 309.26C362.335 312.032 359.514 309.454 354.417 307.8C353.305 307.352 351.961 307.043 350.409 306.711C351.853 301.729 352.294 296.874 351.297 292.549ZM679.716 294.443C681.513 294.363 684.546 297.692 686.04 299.858C683.528 303.547 680.072 305.109 676.13 301.412C674.795 300.105 674.863 299.683 675.39 298.261C676.704 295.697 678.459 294.508 679.716 294.443ZM419.259 298.811C419.815 298.904 420.318 299.34 420.687 300.228C422.369 304.358 424.389 307.758 426.916 310.487C421.747 309.389 416.229 308.056 412.691 305.854C411.623 305.19 411.684 304.804 412.363 303.887C413.648 302.154 415.612 300.774 417.482 299.445C418.117 299.005 418.703 298.724 419.259 298.811ZM478.834 324.341C487.252 324.616 496.936 325.593 498.294 330.401C495.738 334.019 490.084 334.117 485.37 331.279C482.699 329.676 480.141 327.294 478.834 324.341ZM627.502 347.048C620.787 349.849 602.07 357.318 596.186 359.845C595.796 360.018 595.612 360.087 595.446 360.585C595.207 361.286 594.483 363.592 594.166 364.826C594.029 365.325 594.484 365.31 594.896 365.144C595.711 364.819 596.753 364.204 597.677 363.822C602.312 361.88 619.945 354.669 625.894 352.294C626.277 352.106 626.612 351.937 626.793 351.511C627.154 350.681 627.709 348.715 628.041 347.524C628.171 347.026 627.906 346.868 627.502 347.048Z" fill="white"/>
</g>
<defs>
<clipPath id="clip0_1_43">
<rect width="875.931" height="175" fill="white" transform="translate(0 0.247803)"/>
</clipPath>
<clipPath id="clip1_1_43">
<rect width="517.938" height="140" fill="white" transform="translate(179 225.248)"/>
</clipPath>
</defs>
</svg>
