<svg width="281" height="118" viewBox="0 0 281 118" fill="none" xmlns="http://www.w3.org/2000/svg">
<g clip-path="url(#clip0_1_298)">
<path fill-rule="evenodd" clip-rule="evenodd" d="M168.03 0.453116C167.224 0.48465 166.258 0.791595 165.154 1.4916C163.353 2.63216 161.761 4.78503 161.289 7.02144C161.143 7.70353 161.091 8.24527 161.328 8.86252C161.626 9.63184 162.12 10.1554 162.518 10.4841C162.812 10.7279 162.821 10.5157 163.056 9.82238C163.289 9.13357 163.284 9.1906 162.958 8.93788C162.68 8.65162 162.391 8.37988 162.151 8.05336C161.985 7.83196 161.896 7.57897 161.967 7.31954C162.532 5.32021 163.76 3.37877 166.03 2.48422C168.758 1.40627 170.47 2.61035 170.099 4.49567C170.038 4.7931 170.104 5.05016 170.367 4.59396C171.428 2.76235 170.448 0.358769 168.03 0.453116ZM166.987 3.85029C165.953 4.02696 164.738 5.45303 164.243 7.09678C164.021 7.83479 164.165 8.26376 164.568 8.512C165.15 8.87429 165.996 9.16002 167.004 9.41943C165.837 11.3696 162.084 13.8917 161.391 14.2875C160.574 14.7616 160.721 15.2777 161.735 14.8215C165.522 13.1152 167.384 11.298 168.217 9.70117C168.476 9.75702 168.698 9.8382 168.971 9.90756C169.425 10.0305 169.322 10.0761 169.564 9.36047C169.678 9.02279 169.755 8.78679 169.79 8.61683L168.659 8.23026L168.767 7.83387C168.908 6.53006 168.577 5.45652 168.463 5.13448C168.111 4.11692 167.605 3.74295 166.987 3.85029ZM86.6241 3.98783C85.7445 4.03698 84.8135 4.67103 84.2405 5.99273C82.6626 9.61567 84.5615 10.9285 86.07 10.8837C88.5142 10.8099 89.3821 8.42664 88.7487 6.00911C88.3525 4.49954 87.5082 3.9431 86.6241 3.98783ZM267.694 4.83304C265.613 5.703 258.512 8.31889 256.688 9.10162C256.569 9.15529 256.51 9.17995 256.458 9.33421C256.387 9.55115 256.162 10.2655 256.062 10.6479C256.021 10.8044 256.164 10.7977 256.291 10.7462C256.542 10.6434 256.865 10.453 257.153 10.3367C258.59 9.73508 265.352 7.19371 267.196 6.45793C267.315 6.40426 267.421 6.35075 267.475 6.21878C267.587 5.96159 267.759 5.3505 267.862 4.98374C267.904 4.82943 267.822 4.77713 267.694 4.83304ZM166.863 5.39651C166.992 5.39483 167.114 5.42787 167.187 5.53405C167.42 5.79793 167.774 6.35077 167.823 7.33254C167.832 7.61433 167.783 7.99935 167.768 8.01723C167.738 8.03736 167.236 7.81522 167.145 7.76825C166.963 7.6765 166.453 7.48247 165.551 7.14254C165.202 7.07997 165.544 6.51028 165.544 6.51028C165.679 6.25758 165.906 5.94401 166.154 5.69129L166.492 5.4718C166.598 5.4349 166.734 5.39818 166.863 5.39651ZM86.3356 6.02549C87.269 6.03052 88.0478 7.16501 88.0635 7.93211C87.58 8.8535 86.1602 9.09454 85.1553 8.7904C84.5443 8.60702 84.339 8.08586 84.6143 7.53571C85.1649 6.42422 85.7761 6.02549 86.3356 6.02549ZM106.726 10.4284C105.691 10.6028 104.476 12.0311 103.981 13.6749C103.762 14.4151 103.903 14.8418 104.306 15.0901C104.892 15.4546 105.735 15.7371 106.742 15.9943C105.574 17.9443 101.822 20.4675 101.126 20.8656C100.313 21.3375 100.457 21.8548 101.473 21.3963C105.26 19.6922 107.125 17.8793 107.955 16.2825C108.212 16.3362 108.438 16.4119 108.709 16.4857C109.161 16.6064 109.061 16.6542 109.303 15.9386C109.419 15.5986 109.496 15.3649 109.532 15.1949L108.398 14.8051L108.506 14.412C108.649 13.1082 108.315 12.0313 108.201 11.7093C107.852 10.6917 107.343 10.321 106.726 10.4284ZM248.865 11.6536C247.831 11.828 246.615 13.2541 246.121 14.9001C245.901 15.6403 246.043 16.0648 246.445 16.3153C247.027 16.6798 247.877 16.9645 248.885 17.2195C247.716 19.1696 243.961 21.6905 243.265 22.0908C242.45 22.5605 242.596 23.0778 243.613 22.6215C247.4 20.9174 249.262 19.1035 250.095 17.5045C250.354 17.5582 250.578 17.636 250.849 17.7076C251.303 17.8283 251.2 17.8794 251.442 17.1638C251.556 16.8239 251.636 16.589 251.672 16.4169L250.537 16.0303L250.649 15.6372C250.79 14.3334 250.452 13.2565 250.34 12.9345C249.989 11.9192 249.483 11.544 248.865 11.6536ZM106.601 11.9746C106.729 11.9732 106.852 12.0072 106.926 12.1122C107.161 12.3761 107.512 12.9312 107.562 13.9107C107.57 14.1902 107.52 14.5775 107.503 14.5954C107.476 14.6177 106.975 14.3911 106.883 14.3464C106.702 14.2546 106.197 14.0606 105.293 13.7207C104.941 13.6558 105.283 13.0884 105.283 13.0884C105.419 12.8357 105.644 12.5232 105.892 12.2727L106.233 12.0499C106.339 12.013 106.473 11.9761 106.601 11.9746ZM138.824 12.4791C138.727 12.4971 138.642 12.6308 138.604 12.8231L138.171 15.0442C138.046 15.6637 138.079 15.7506 138.171 16.2694C138.424 17.7343 138.762 19.1883 139.053 20.633C139.767 24.1017 140.78 29.4052 141.391 32.61C141.847 34.9917 142.144 37.4376 142.246 39.5845C142.264 39.996 142.495 39.9733 142.601 39.6467C142.986 38.4547 143.134 37.1999 143.132 35.8826C143.132 34.5855 142.709 31.9652 142.286 29.8876C141.704 27.0139 140.794 21.9992 140.243 19.3849C139.773 17.1619 139.319 14.9342 139.053 12.7805C139.024 12.5345 138.913 12.4545 138.824 12.4791ZM265.383 12.5249C265.344 12.5383 265.308 12.5903 265.288 12.6397L264.776 13.5962C264.72 13.7036 264.674 13.7825 264.721 13.8943C264.868 14.279 264.993 14.715 264.98 14.9721C264.378 15.5514 263.728 15.6505 263.258 15.2637C262.956 15.011 262.842 14.5464 262.871 13.9337C262.889 13.4953 262.944 13.3302 262.557 13.6388C262.053 14.0503 262.187 14.009 262.16 14.2416C261.981 15.6818 261.363 16.3287 260.249 16.407C259.546 16.4518 259.037 15.9611 259.521 14.579C259.626 14.2861 259.417 13.973 259.111 14.579C258.068 16.6656 258.703 17.8273 259.767 17.986C260.64 18.1113 261.672 17.6194 262.196 16.3022C262.603 16.9686 263.422 17.1618 264.163 16.9672C265.106 16.7257 265.312 16.2896 265.583 15.5225C265.84 14.7845 265.853 13.8026 265.495 12.6331C265.465 12.5358 265.422 12.5112 265.383 12.5249ZM86.8635 13.0294C86.7695 13.0496 86.6829 13.1811 86.6471 13.3734L86.211 15.5945C86.0856 16.214 86.1224 16.2976 86.2144 16.8164C86.4695 18.2813 86.8054 19.7408 87.0963 21.1833C87.8103 24.6519 88.6874 29.0077 89.3029 32.2102C89.7572 34.5919 90.0579 37.0378 90.1586 39.1847C90.1737 39.5985 90.4075 39.5745 90.5127 39.2503C90.8954 38.0561 91.045 36.8047 91.0406 35.483C91.0422 34.1881 90.6199 31.5623 90.1947 29.4847C89.6105 26.6109 88.8348 22.5496 88.2865 19.9352C87.8142 17.7123 87.3616 15.4845 87.0931 13.3309C87.0617 13.0826 86.9575 13.0071 86.8635 13.0294ZM271.317 13.0428C271.223 13.0608 271.139 13.1933 271.101 13.3901L270.665 15.6079C270.542 16.2297 270.575 16.3132 270.665 16.8299C270.92 18.2969 271.261 19.752 271.55 21.1967C272.264 24.6654 273.277 29.9679 273.888 33.1704C274.344 35.5544 274.643 38.0013 274.743 40.1482C274.764 40.5597 274.995 40.5347 275.098 40.2104C275.483 39.0184 275.633 37.767 275.629 36.4431C275.63 35.1504 275.206 32.5256 274.783 30.448C274.201 27.5765 273.291 22.5607 272.74 19.9486C272.27 17.7234 271.815 15.4979 271.547 13.3442C271.515 13.0982 271.409 13.0205 271.317 13.0428ZM248.74 13.1968C248.869 13.1956 248.991 13.2304 249.065 13.3344C249.298 13.6005 249.654 14.1544 249.701 15.1361C249.713 15.4157 249.66 15.8029 249.642 15.8208C249.615 15.8409 249.116 15.6166 249.022 15.5718C248.843 15.4779 248.334 15.2861 247.432 14.9461C247.083 14.8812 247.425 14.3106 247.425 14.3106C247.56 14.0601 247.784 13.7464 248.032 13.4982L248.37 13.2721C248.476 13.2352 248.612 13.198 248.74 13.1968ZM52.0573 15.0019C52.018 15.0153 51.9823 15.0673 51.9623 15.1166L51.4508 16.0732C51.3926 16.1805 51.3469 16.2572 51.3917 16.3713C51.544 16.756 51.6642 17.193 51.6507 17.4524C51.0509 18.0294 50.4027 18.1275 49.9327 17.7406C49.6283 17.4924 49.5145 17.0234 49.5458 16.4106C49.566 15.9723 49.6184 15.806 49.2311 16.1191C48.7297 16.5261 48.8612 16.4872 48.8344 16.7153C48.6576 18.16 48.0376 18.8079 46.9229 18.884C46.2224 18.9287 45.7071 18.4413 46.1951 17.0592C46.3003 16.764 46.0896 16.4487 45.7852 17.0592C44.74 19.1413 45.3745 20.3064 46.4377 20.463C47.3083 20.5926 48.3467 20.0986 48.8704 18.7791C49.28 19.4456 50.0935 19.643 50.8344 19.4507C51.7766 19.2069 51.9854 18.7655 52.254 17.9962C52.5137 17.2583 52.5247 16.2786 52.1687 15.1068C52.1397 15.0117 52.0966 14.988 52.0573 15.0019ZM197.331 15.5522C195.959 15.465 194.69 16.0807 193.98 17.5276C193.902 17.7133 193.788 17.9665 193.711 18.1566C193.629 18.472 193.79 18.6854 193.957 18.4416C194.145 18.1576 194.383 17.8802 194.679 17.7013C195.379 17.2764 196.128 17.1099 196.889 17.1837C197.58 17.2508 198.88 17.7335 198.875 17.8028C198.864 17.955 195.854 19.4437 195.384 19.7389C195.178 19.8664 194.927 20.1036 194.974 20.3384C195.005 20.5196 195.299 20.5577 195.541 20.4728C196.725 20.0434 197.15 20.0738 198.108 19.6669C199.4 19.1123 199.783 18.4269 200.013 18.3598C200.107 18.3307 200.217 18.3405 200.331 18.2353C200.703 17.8887 201.012 16.9661 201.046 16.653C201.008 16.4093 200.141 16.3246 199.895 16.2665C199.038 16.0629 198.222 15.6104 197.331 15.5522ZM168.702 15.7291C168.632 15.7375 168.578 15.7862 168.522 15.87C168.172 16.4112 167.732 17.199 167.309 17.852C166.7 17.436 165.903 16.9637 165.361 16.6104C165.066 16.4203 164.943 16.4413 164.764 16.7186C164.446 17.2039 163.964 17.9264 163.633 18.5302C163.512 18.7426 163.543 18.931 163.856 19.1166C164.436 19.4498 165.354 19.9791 165.902 20.2632C166.074 20.3549 166.219 20.2969 166.351 20.1157C166.649 19.7042 166.976 19.0964 167.453 18.327C168.265 18.8034 168.93 19.2237 169.568 19.5457C169.744 19.6329 169.842 19.6203 169.974 19.4573C170.294 19.0548 170.866 18.1531 171.105 17.7014C171.271 17.3861 171.228 17.2653 170.958 17.0953C170.537 16.8314 169.498 16.1695 168.981 15.8341C168.859 15.7536 168.772 15.7209 168.702 15.7291ZM133.919 15.811C131.839 16.6809 122.464 19.6932 120.64 20.476C120.519 20.5275 120.462 20.5509 120.411 20.7053C120.337 20.9222 120.01 21.7763 119.909 22.1565C119.871 22.3109 120.009 22.3105 120.139 22.2614C120.391 22.1586 120.816 21.9132 121.109 21.8126C122.627 21.2848 131.475 18.3092 133.322 17.5735C133.438 17.5198 133.545 17.4663 133.601 17.3343C133.713 17.0749 133.983 16.3307 134.086 15.9617C134.126 15.8096 134.044 15.7552 133.919 15.811ZM230.488 16.951C229.116 16.8616 227.841 17.4762 227.134 18.9232C227.056 19.111 226.941 19.362 226.865 19.5521C226.783 19.8675 226.948 20.0809 227.111 19.8371C227.301 19.5531 227.537 19.2757 227.832 19.0968C228.535 18.6719 229.281 18.5054 230.042 18.5792C230.732 18.6463 232.034 19.129 232.029 19.1983C232.017 19.3505 229.01 20.8392 228.537 21.1344C228.331 21.2619 228.083 21.4991 228.128 21.7339C228.163 21.9173 228.452 21.9532 228.691 21.8683C229.878 21.4411 230.306 21.4694 231.262 21.0624C232.553 20.51 232.935 19.8224 233.164 19.7553C233.258 19.7263 233.371 19.7358 233.485 19.6308C233.856 19.2842 234.164 18.3616 234.2 18.0485C234.159 17.807 233.294 17.7201 233.046 17.662C232.191 17.4585 231.375 17.0069 230.488 16.951ZM209.026 17.6652C208.955 17.6803 208.902 17.7351 208.846 17.8257C208.465 18.4429 207.949 19.3751 207.662 19.9387C207.543 20.1668 207.549 20.3287 207.8 20.4629C208.299 20.7268 209.168 21.2053 209.79 21.5341C210.045 21.6705 210.202 21.6488 210.321 21.4588C210.666 20.8974 211.168 20.0401 211.488 19.4899C211.602 19.2954 211.633 19.141 211.442 19.0247C210.854 18.6669 209.899 18.0915 209.308 17.7471C209.187 17.6767 209.097 17.6506 209.026 17.6652ZM67.6964 18.2811C65.6194 19.1488 58.8683 21.4502 57.0441 22.2352C56.9232 22.2866 56.8651 22.308 56.8113 22.4645C56.742 22.6792 56.5153 23.3947 56.4146 23.7749C56.3765 23.9314 56.5143 23.9302 56.6441 23.8765C56.8948 23.7737 57.2167 23.5833 57.5031 23.467C58.9401 22.8654 65.3548 20.6418 67.2014 19.906C67.3201 19.8524 67.4219 19.7987 67.4801 19.6669C67.592 19.4075 67.7629 18.8008 67.8637 18.4318C67.904 18.2775 67.824 18.225 67.6964 18.2811ZM11.6512 18.3433C10.2791 18.2539 9.00766 18.8685 8.30038 20.3154C8.22434 20.5055 8.10763 20.7566 8.03154 20.9444C7.94878 21.2597 8.11178 21.4764 8.27743 21.2327C8.46768 20.9487 8.70106 20.668 8.99874 20.489C9.69706 20.0641 10.4475 19.8999 11.2085 19.9714C11.8979 20.0407 13.1976 20.5235 13.1954 20.5906C13.1837 20.7427 10.1737 22.2348 9.70365 22.53C9.49774 22.6574 9.24681 22.8914 9.29382 23.1262C9.32739 23.3096 9.61825 23.3477 9.85774 23.2606C11.044 22.8334 11.4702 22.8617 12.4282 22.4547C13.7197 21.9045 14.1015 21.2146 14.3298 21.1475C14.4238 21.1185 14.5348 21.1341 14.6511 21.0263C15.0227 20.6796 15.3323 19.7538 15.3659 19.4407C15.3256 19.1992 14.4602 19.1145 14.2118 19.0541C13.3568 18.8506 12.5397 18.3992 11.6512 18.3433ZM185.2 19.9485C183.123 20.8185 177.319 23.1307 175.495 23.9157C175.377 23.9672 175.312 23.9907 175.263 24.145C175.191 24.362 174.967 25.0763 174.866 25.4587C174.828 25.6152 174.966 25.6117 175.095 25.5602C175.346 25.4573 175.669 25.2637 175.958 25.1474C177.395 24.5458 182.861 22.3124 184.705 21.5766C184.824 21.5229 184.928 21.4672 184.984 21.3374C185.093 21.078 185.268 20.4681 185.371 20.0991C185.411 19.947 185.328 19.8902 185.2 19.9485ZM153.758 20.0829C151.676 20.9528 146.968 22.8283 145.142 23.6111C145.023 23.6647 144.966 23.6839 144.912 23.8404C144.84 24.0551 144.619 24.7716 144.519 25.1541C144.476 25.3084 144.617 25.3048 144.745 25.2557C144.998 25.1529 145.317 24.9614 145.604 24.8429C147.043 24.2413 151.415 22.4436 153.259 21.7078C153.38 21.652 153.485 21.5996 153.541 21.4654C153.651 21.2105 153.822 20.6016 153.925 20.2304C153.965 20.0782 153.881 20.027 153.758 20.0829ZM262.458 20.263C262.387 20.2781 262.334 20.333 262.278 20.4236C261.897 21.0431 261.38 21.973 261.091 22.5366C260.972 22.7647 260.978 22.9298 261.229 23.064C261.728 23.3279 262.597 23.8042 263.219 24.1352C263.476 24.2694 263.632 24.249 263.753 24.0566C264.096 23.4975 264.595 22.6367 264.917 22.091C265.029 21.8919 265.065 21.7399 264.875 21.6258C264.286 21.268 263.33 20.6938 262.737 20.3449C262.617 20.2744 262.529 20.2483 262.458 20.263ZM168.528 22.9493C168.41 23.0042 168.304 23.2862 168.233 23.634C167.913 25.2531 168.122 27.2206 168.115 27.5717C166.96 28.0704 164.679 28.8889 163.515 30.2777C162.347 31.5546 160.873 35.369 161.332 36.0466C161.869 36.8495 167.395 37.23 169.479 33.2359C170.086 34.9847 171.012 39.0838 173.338 40.1416C175.549 41.1457 178.981 41.2581 182.712 37.3243C186.539 44.3756 204.035 40.6775 206.79 36.8689C210.13 39.2596 211.502 39.6218 213.688 37.665C215.186 36.303 215.767 33.3134 215.321 30.0058C215.093 28.4537 214.408 26.9096 212.918 25.1049C212.461 24.5592 211.945 24.0776 211.361 24.0664C211.011 24.0597 210.64 24.2226 210.239 24.643C208.046 27.065 207.98 29.7683 208.318 30.9558C208.958 33.0871 212.154 34.4834 213.856 31.2474C216.065 34.7875 210.745 37.2949 207.629 35.3784C207.842 34.7097 207.937 34.2818 207.934 33.6355C207.929 33.157 207.607 32.879 207.298 33.3374C206.21 35.0169 204.873 35.5746 202.934 36.3349C197.321 38.5154 188.138 39.2948 183.758 35.1687C182.936 34.415 182.514 34.5165 181.977 35.1294C179.468 38.0367 175.51 38.6973 172.961 36.3514C170.752 34.3364 169.659 27.1566 168.889 23.6275C168.777 23.0673 168.646 22.8945 168.528 22.9493ZM106.545 24.0075C106.475 24.0226 106.421 24.0774 106.365 24.168C105.984 24.7852 105.463 25.7174 105.175 26.281C105.061 26.5091 105.065 26.6687 105.316 26.8051C105.815 27.0668 106.684 27.5499 107.306 27.8764C107.563 28.0151 107.719 27.9911 107.84 27.8011C108.183 27.2397 108.683 26.3812 109.001 25.8355C109.117 25.6387 109.151 25.4866 108.958 25.3703C108.372 25.0125 107.415 24.4361 106.824 24.0894C106.702 24.019 106.615 23.9929 106.545 24.0075ZM199.115 24.227C199.045 24.2353 198.994 24.2862 198.938 24.371C198.586 24.9078 198.149 25.7 197.728 26.353C197.119 25.937 196.316 25.4592 195.777 25.1081C195.484 24.9158 195.359 24.9412 195.18 25.2163C194.865 25.7039 194.384 26.4251 194.052 27.0312C193.934 27.2414 193.96 27.4342 194.275 27.6176C194.853 27.9531 195.77 28.4802 196.318 28.7642C196.493 28.8536 196.634 28.7979 196.764 28.6168C197.066 28.2053 197.392 27.5952 197.869 26.8281C198.681 27.3067 199.349 27.7236 199.987 28.0435C200.164 28.1307 200.259 28.1183 200.393 27.9551C200.711 27.5525 201.284 26.6521 201.521 26.1959C201.691 25.885 201.644 25.7631 201.374 25.5931C200.953 25.3314 199.914 24.6673 199.397 24.3318C199.274 24.2525 199.185 24.2186 199.115 24.227ZM50.936 25.0066L50.9164 25.0296C50.8739 25.0855 50.8019 25.1985 50.7885 25.3081C50.699 25.9723 50.6026 26.6761 50.5131 27.3359C50.4795 27.5774 50.4013 27.8362 50.6967 28.0599C51.865 28.9567 53.0375 30.2616 53.5098 32.2072C50.5889 35.0944 38.8369 37.3275 34.3067 37.1441C35.775 36.1847 36.8943 34.9755 37.5165 33.5733C38.0537 32.2874 38.4153 30.6033 38.3952 29.2458C38.3571 27.1525 37.3899 26.7722 36.7296 26.7364C35.7717 26.6805 34.7512 27.9787 34.0641 29.5799C33.2874 31.3847 32.6999 33.3952 32.3395 35.3587C28.7673 36.6804 22.9046 37.5016 18.1954 35.48C16.5324 34.7643 15.2475 33.6133 14.2381 32.0501C13.5823 31.037 12.7905 31.4425 12.2086 31.9256C11.3693 32.6233 10.1491 34.2482 9.93647 35.0443C9.71042 35.8942 9.72558 37.8145 10.9365 38.6151C8.72286 41.3323 4.56533 44.3177 0.910335 46.4513C0.502989 46.6928 0.0758609 47.2216 1.03165 46.9688C3.59441 46.2867 6.59805 45.2836 8.63485 43.7584C10.0785 42.6805 11.4368 41.0729 11.7233 39.0377C13.0126 39.5141 14.9182 39.7588 16.5364 39.978C17.3019 40.0808 17.3449 40.0861 17.4479 39.3391L17.5987 38.281C20.7277 39.8755 25.5615 40.013 30.7362 38.7494C30.678 40.1785 30.7586 40.3081 31.5821 40.2924C31.7679 40.2874 31.9917 40.2924 32.1887 40.2924C32.802 43.0141 34.7232 45.8315 37.5165 45.8583C38.4207 45.87 39.2681 45.4989 39.7001 44.7117C40.4969 43.2513 40.5072 41.1236 39.9722 39.6274C44.048 38.999 49.8032 38.032 53.418 34.9592C53.7425 34.6863 53.8947 34.2111 54.0245 33.8421C55.0339 30.9482 54.1865 27.121 51.3327 25.1575C51.1939 25.0635 50.9853 25.0676 50.936 25.0362L50.936 25.0066ZM265.803 26.0812L265.78 26.1008C265.737 26.159 265.667 26.2719 265.652 26.3792C265.562 27.0434 265.466 27.7439 265.376 28.4103C265.343 28.6474 265.264 28.9084 265.56 29.1343C266.728 30.0289 267.902 31.3328 268.376 33.2784C265.885 36.1656 255.698 37.7926 251.052 37.6093C252.52 36.6499 253.637 35.4429 254.262 34.0384C254.797 32.7547 255.16 31.0661 255.14 29.7109C255.102 27.6154 254.132 27.2362 253.471 27.1982C252.513 27.1424 251.499 28.4428 250.809 30.0418C250.033 31.8488 249.444 33.8593 249.081 35.8206C247.085 36.5832 244.744 36.945 242.39 36.8197C238.45 36.6118 235.805 35.175 234.032 32.4332C233.377 31.4179 232.58 31.829 232.003 32.312C231.163 33.0075 229.94 34.6335 229.727 35.4274C229.501 36.2794 229.52 38.1976 230.731 38.9982C228.517 41.7176 224.362 44.7041 220.705 46.8376C220.297 47.0747 219.872 47.6036 220.826 47.3487C223.389 46.671 226.391 45.6677 228.426 44.1448C229.87 43.0623 231.231 41.457 231.518 39.4241C232.809 39.896 234.713 40.1441 236.331 40.361C237.096 40.4638 237.139 40.4724 237.242 39.7255L237.393 38.6673C238.964 39.4635 240.889 39.8056 243.268 39.7877C244.752 39.776 246.178 39.5757 247.478 39.2111C247.42 40.6402 247.506 40.7698 248.327 40.7541C248.513 40.7525 248.731 40.7592 248.931 40.7541C249.542 43.4758 251.468 46.2954 254.262 46.32C255.164 46.3317 256.01 45.9628 256.442 45.1734C257.239 43.713 257.249 41.5853 256.714 40.0891C260.492 39.5211 266.61 38.0216 268.285 36.0335C268.634 35.6197 268.758 35.2854 268.888 34.9164C269.899 32.0202 269.044 28.1921 266.193 26.2285C266.054 26.1324 265.846 26.1386 265.799 26.1072L265.803 26.0812ZM132.506 26.602C132.132 26.6171 131.748 26.7975 131.443 27.0771C130.25 28.1371 129.749 29.7507 129.201 31.2244C128.894 32.0407 128.56 32.824 128.063 33.439C127.224 34.4029 126.157 35.0365 124.942 35.457C121.92 36.6311 115.967 36.887 113.607 35.742C112.475 35.3394 111.429 34.6757 110.437 33.6716C109.571 32.6294 109.312 32.8547 108.358 33.6977C106.561 35.4622 104.194 36.1761 102.162 36.6166C101.741 34.8588 100.626 31.5443 98.6469 31.6404C97.096 31.8663 96.2644 33.7262 95.9421 35.4504C95.584 37.2373 95.5928 38.9556 97.5781 39.6109C98.6077 39.9553 99.922 39.8028 101.431 39.6305C99.6914 42.701 97.6366 44.5809 95.5126 45.6812C91.7122 47.6514 87.5329 47.2949 83.634 46.4674C83.1707 46.3958 82.9768 47.1205 83.4602 47.3061C87.1712 48.9476 92.0757 49.868 96.1224 48.184C99.0857 46.9451 101.558 44.1285 102.863 39.1817C105.363 38.5264 107.738 36.9732 108.958 35.4569C109.269 35.1237 109.433 35.2364 109.67 35.5159C110.2 36.2249 111.142 38.243 114.034 39.0212C117.863 40.0432 125.353 39.0804 127.732 36.4168C128.193 35.9114 128.542 35.0227 128.932 34.2645C129.769 35.499 131.89 35.9444 133.689 36.1613C135.341 36.3648 135.451 36.3549 135.814 34.9885C135.955 34.4809 136.057 33.9739 136.073 33.5602C136.046 32.565 135.672 30.9396 134.951 29.2064C134.027 27.1914 133.22 26.5752 132.506 26.602ZM211.023 27.2605C211.732 27.2521 212.518 28.0117 213.075 29.3669C211.739 30.4538 210.442 30.2095 209.574 28.9706C209.894 27.8054 210.432 27.2694 211.023 27.2605ZM74.6833 27.8698C74.6161 27.8682 74.5772 27.9487 74.5325 28.0828C74.3893 28.6575 74.2178 29.205 74.0768 29.7797C74.0276 29.9833 73.9425 30.2201 74.1686 30.4415C74.9744 31.222 75.8235 32.616 76.1391 34.045C74.1963 35.7 70.5778 36.1745 68.1359 36.1253C66.3475 36.0872 64.1155 35.7847 63.1687 34.1007C62.7054 33.2777 62.5949 33.7732 62.5032 34.2809C62.201 35.9492 62.3593 37.5054 64.2573 38.3955C62.7935 41.6293 60.3395 43.7523 58.0901 44.9376C55.2118 46.4606 52.5949 47.0846 48.9197 46.3332C47.6618 46.076 47.6064 46.8821 48.6181 47.2242C52.2552 48.4475 55.4226 48.5457 57.8868 47.7943C60.7316 46.9243 63.645 44.05 65.29 38.7297C68.2803 39.2798 72.2338 38.955 75.0473 37.4946C75.6091 37.2061 75.794 37.1283 76.2014 36.4955C77.7256 34.1316 77.4193 30.1506 75.0178 28.0238C74.888 27.9119 74.7885 27.8452 74.6833 27.8698ZM168.499 29.2556C168.512 29.3919 169.197 31.9156 169.197 31.9156C166.972 33.8076 164.476 33.5026 162.954 33.2588C163.541 32.0131 166.135 30.3067 168.499 29.2556ZM35.9755 29.6389C36.0539 29.6254 36.1365 29.6271 36.2148 29.6389C36.7229 29.7127 37.1817 30.3155 37.4279 31.1229C36.6737 32.8024 35.1281 34.1243 33.1854 35.0278C33.5838 33.0464 34.2976 31.2262 35.2444 30.1237C35.4906 29.8375 35.7338 29.6791 35.9755 29.6389ZM131.935 29.7076C132.992 29.9 133.905 31.8647 134.263 33.1507C132.651 32.9382 131.379 32.6272 129.971 31.7125C129.875 31.6567 129.919 31.5825 129.968 31.493C130.648 30.2384 131.177 29.7355 131.719 29.7109C131.795 29.7109 131.855 29.692 131.935 29.7076ZM151.951 30.0123C150.499 30.0547 148.269 32.7277 147.443 34.3267C147.143 34.9127 147.251 35.7602 147.797 36.1449C148.276 36.4848 149.045 36.8228 149.925 37.2522C149.533 37.4311 148.523 38.1551 148.158 38.5331C148.008 38.9401 147.833 39.6287 147.725 40.0335C147.689 40.1765 147.815 40.341 147.974 40.2202C148.892 39.5403 150.272 38.6812 151.758 37.9991C153.112 37.3774 154.185 36.9608 155.197 36.8132C155.347 36.7729 156.045 35.2394 156.155 35.018C156.298 34.7272 156.165 34.6551 155.951 34.7133C154.794 35.0465 153.897 35.3324 152.463 35.3324C150.69 35.3341 149.191 34.1153 149.191 33.5831C149.191 33.1783 150.368 32.2643 150.84 32.2956C152.21 32.385 152.29 33.5737 152.653 33.5536C153.092 33.5335 153.834 31.8995 153.85 31.4701C153.863 31.0049 152.838 29.9832 151.951 30.0123ZM252.714 30.104C252.797 30.0889 252.884 30.0906 252.96 30.104C253.468 30.1757 253.924 30.7774 254.17 31.5848C253.416 33.2665 251.876 34.5884 249.931 35.4897C250.329 33.5083 251.038 31.6904 251.99 30.5856C252.236 30.3016 252.477 30.1443 252.714 30.104ZM13.0544 33.226C13.2268 33.2507 13.3893 33.3758 13.5102 33.6486C14.072 34.9122 14.7294 35.9488 15.5397 36.7673C13.9259 36.4788 12.2041 36.1153 11.0872 35.4668C10.7515 35.2722 10.7646 35.1492 10.9659 34.8607C11.3487 34.3128 11.9417 33.8639 12.5102 33.439C12.7004 33.2959 12.8798 33.2037 13.0544 33.226ZM232.849 33.6159C233.023 33.6382 233.184 33.7657 233.305 34.0385C233.866 35.302 234.524 36.3332 235.334 37.1539C233.72 36.8632 231.996 36.5019 230.882 35.8533C230.544 35.6588 230.559 35.5358 230.76 35.2473C231.143 34.7016 231.736 34.2505 232.304 33.8255C232.497 33.6801 232.674 33.5935 232.849 33.6159ZM98.3486 34.6183C99.1902 34.596 100.016 35.9326 100.45 36.8853C99.4094 36.897 97.9548 36.8447 97.1716 36.1515C96.9209 35.9323 96.8688 35.7936 97.0143 35.5945C97.3724 35.1383 98.0084 34.5803 98.3486 34.6183ZM50.0016 39.7354C49.931 39.7488 49.8772 39.802 49.8212 39.8925C49.4385 40.512 48.9253 41.4452 48.6344 42.0088C48.5157 42.2369 48.5215 42.3988 48.7721 42.533C49.269 42.7968 50.1422 43.2754 50.7622 43.6042C51.0196 43.7406 51.178 43.7211 51.2966 43.5289C51.6436 42.9698 52.1405 42.109 52.4606 41.5633C52.5769 41.3665 52.6081 41.2122 52.4179 41.0981C51.8315 40.738 50.8734 40.1661 50.2802 39.8172C50.1594 39.7468 50.0721 39.7214 50.0016 39.7354ZM33.1559 40.2923C35.7656 40.294 38.7755 40.5099 39.241 41.986C38.4868 43.131 36.735 43.2165 35.2444 42.3824C34.4028 41.9105 33.5878 41.1958 33.1559 40.2923ZM249.901 40.7542C252.509 40.7609 255.522 40.9774 255.99 42.4511C255.233 43.5984 253.478 43.6784 251.99 42.8443C251.148 42.3724 250.331 41.6577 249.901 40.7542ZM73.0079 40.8033C72.9367 40.8184 72.8813 40.8733 72.8243 40.9639C72.4438 41.5789 71.9294 42.5078 71.6407 43.0736C71.522 43.3039 71.5265 43.4668 71.7817 43.601C72.2763 43.8649 73.1485 44.3435 73.7685 44.6722C74.0259 44.8086 74.1843 44.786 74.303 44.5936C74.6476 44.0345 75.1468 43.1759 75.4669 42.628C75.5856 42.4312 75.6144 42.2791 75.4242 42.1628C74.8378 41.805 73.8775 41.2296 73.2866 40.8852C73.1657 40.8124 73.079 40.7881 73.0079 40.8033ZM218.075 41.7599C215.994 42.6299 211.285 44.5065 209.459 45.2914C209.34 45.3451 209.281 45.3664 209.229 45.5207C209.158 45.7377 208.933 46.452 208.833 46.8344C208.792 46.9887 208.932 46.9818 209.062 46.9327C209.313 46.8299 209.635 46.644 209.921 46.5232C211.36 45.9239 215.73 44.1239 217.577 43.3881C217.696 43.3344 217.802 43.2809 217.856 43.149C217.967 42.8895 218.138 42.2829 218.239 41.9139C218.284 41.7596 218.201 41.7063 218.075 41.7599ZM275.983 42.5986C275.027 42.607 273.02 44.2941 272.521 45.334C272.319 45.7522 272.397 46.2102 272.822 46.5166C273.138 46.7492 273.741 47.1321 274.327 47.4274C274.072 47.5369 273.504 47.759 273.16 48.0072C273.068 48.2711 272.95 48.7073 272.907 48.9802C272.892 49.0786 272.961 49.1739 273.071 49.1112C274.094 48.4984 277.199 47.713 278.524 47.4044C278.62 47.3797 279.043 46.4151 279.111 46.2742C279.198 46.0863 279.112 46.0375 278.976 46.0711C278.222 46.2701 277.467 46.4122 276.527 46.3921C275.363 46.3674 273.589 45.1157 273.602 44.8786C273.611 44.6438 274.986 44.0502 275.297 44.0793C276.199 44.1576 276.323 45.072 276.563 45.0653C276.849 45.0569 277.304 44.0007 277.304 43.7189C277.306 43.4148 276.562 42.5941 275.983 42.5986ZM182.944 43.8238C182.874 43.8322 182.822 43.8808 182.767 43.9647C182.416 44.5037 181.975 45.2914 181.554 45.9466C180.943 45.5307 180.147 45.0561 179.603 44.705C179.312 44.5127 179.191 44.5359 179.01 44.8132C178.692 45.2963 178.21 46.0232 177.879 46.6248C177.76 46.8395 177.79 47.0279 178.105 47.2112C178.683 47.5444 179.597 48.0716 180.148 48.3578C180.322 48.4472 180.465 48.3915 180.597 48.2104C180.897 47.8011 181.22 47.1878 181.699 46.4184C182.509 46.8948 183.175 47.3195 183.813 47.6371C183.99 47.7243 184.086 47.7119 184.22 47.5487C184.54 47.1484 185.109 46.2467 185.351 45.7928C185.517 45.4819 185.474 45.36 185.203 45.19C184.783 44.9261 183.739 44.2642 183.226 43.9287C183.102 43.8494 183.014 43.8159 182.944 43.8238ZM79.0144 45.5076C76.9351 46.3776 72.2189 48.2554 70.3948 49.0359C70.2761 49.0895 70.2145 49.1142 70.1653 49.2685C70.0936 49.4831 69.8715 50.1997 69.7686 50.5821C69.7305 50.7364 69.8683 50.7331 69.9981 50.6836C70.2488 50.5808 70.5706 50.3861 70.8571 50.2675C72.2963 49.6682 76.675 47.8715 78.5193 47.1357C78.6402 47.0798 78.742 47.0252 78.798 46.8933C78.91 46.6361 79.0819 46.0272 79.1849 45.6582C79.2273 45.5039 79.1419 45.4516 79.0144 45.5076ZM280.153 48.4626C278.043 49.2475 274.675 50.4268 272.822 51.1358C272.699 51.1849 272.638 51.2065 272.58 51.3585C272.499 51.571 272.24 52.2735 272.124 52.6492C272.077 52.8036 272.215 52.8044 272.347 52.7574C272.602 52.6657 272.932 52.488 273.225 52.3807C274.687 51.8395 277.709 50.7243 279.583 50.0646C279.704 50.0154 279.811 49.9683 279.871 49.8385C279.992 49.5836 280.197 48.9877 280.314 48.6231C280.361 48.471 280.283 48.4134 280.153 48.4626ZM41.1033 49.4159C39.024 50.2858 31.9243 52.9017 30.1001 53.6845C29.9815 53.7381 29.9166 53.7628 29.8674 53.917C29.7957 54.134 29.5724 54.845 29.4739 55.2274C29.4336 55.3817 29.5726 55.3806 29.7002 55.3289C29.9531 55.2261 30.2737 55.0402 30.5624 54.9194C31.9994 54.3201 38.7639 51.7764 40.6082 51.0407C40.7291 50.9848 40.8287 50.9325 40.8869 50.7982C40.9989 50.5411 41.1708 49.9332 41.2738 49.5665C41.3141 49.41 41.2265 49.3598 41.1033 49.4159ZM55.7818 50.4216C53.7003 51.2893 46.6018 53.9107 44.7754 54.6934C44.6545 54.7471 44.5974 54.7662 44.5459 54.9228C44.4742 55.1375 44.2499 55.8518 44.1492 56.2364C44.1089 56.3907 44.2479 56.3839 44.3754 56.3347C44.6283 56.2319 44.9512 56.0427 45.2377 55.9219C46.6769 55.3226 53.4369 52.78 55.2835 52.0465C55.4022 51.9906 55.5085 51.9371 55.5622 51.8073C55.6741 51.5479 55.845 50.938 55.9458 50.569C55.9882 50.4169 55.9074 50.3635 55.7818 50.4216Z" fill="white"/>
</g>
<g clip-path="url(#clip1_1_298)">
<path fill-rule="evenodd" clip-rule="evenodd" d="M111.067 72.3605C110.001 72.5404 108.749 74.0127 108.242 75.7059C108.011 76.4718 108.16 76.9097 108.573 77.1658C109.175 77.5418 110.05 77.8365 111.084 78.1018C109.882 80.1134 106.012 82.7161 105.295 83.1267C104.455 83.6156 104.606 84.1447 105.653 83.6741C109.556 81.914 111.478 80.0429 112.334 78.3958C112.601 78.4511 112.833 78.5338 113.114 78.6053C113.58 78.7321 113.471 78.7825 113.723 78.0444C113.84 77.6937 113.921 77.4492 113.956 77.2739L112.79 76.8751L112.902 76.4663C113.049 75.1213 112.705 74.0163 112.587 73.6818C112.227 72.6344 111.703 72.2474 111.067 72.3605ZM178.046 72.7829C175.903 73.6803 168.585 76.3831 166.702 77.1928C166.58 77.2481 166.519 77.2668 166.466 77.426C166.392 77.6497 166.161 78.3876 166.057 78.7844C166.015 78.9413 166.159 78.9389 166.29 78.8858C166.548 78.782 166.883 78.5846 167.179 78.46C168.662 77.8417 175.629 75.218 177.533 74.459C177.657 74.4036 177.762 74.3484 177.82 74.2123C177.933 73.947 178.115 73.3224 178.219 72.9417C178.262 72.7826 178.175 72.7252 178.046 72.7829ZM156.453 72.962C155.387 73.1419 154.134 74.6119 153.625 76.3074C153.396 77.071 153.544 77.5112 153.959 77.7672C154.561 78.1433 155.434 78.438 156.47 78.7033C155.266 80.7149 151.396 83.3176 150.681 83.7282C149.839 84.2127 149.994 84.7462 151.039 84.2756C154.945 82.5155 156.864 80.6467 157.72 78.9973C157.988 79.0549 158.218 79.1329 158.497 79.2068C158.963 79.3314 158.86 79.3807 159.109 78.6425C159.227 78.2941 159.305 78.0519 159.342 77.872L158.176 77.4767L158.288 77.0711C158.436 75.7262 158.089 74.6155 157.974 74.2833C157.611 73.236 157.09 72.8514 156.453 72.962ZM87.7635 73.6649C85.6205 74.56 80.7664 76.4992 78.8863 77.3043C78.764 77.3619 78.6972 77.3841 78.6464 77.5408C78.5725 77.7646 78.3447 78.5014 78.2409 78.8959C78.1994 79.0551 78.3426 79.0504 78.4741 78.9973C78.7347 78.8935 79.0652 78.6972 79.3628 78.5749C80.8438 77.9543 85.349 76.1 87.2499 75.341C87.3745 75.2834 87.4795 75.2304 87.5371 75.0943C87.6525 74.829 87.8321 74.201 87.9359 73.8203C87.9797 73.6612 87.895 73.6072 87.7635 73.6649ZM110.942 73.9521C111.074 73.9511 111.198 73.9878 111.273 74.0975C111.515 74.3697 111.88 74.9365 111.928 75.9493C111.937 76.2376 111.889 76.6394 111.871 76.6555C111.843 76.6785 111.326 76.4482 111.229 76.4021C111.042 76.3074 110.52 76.1062 109.59 75.7533C109.228 75.6887 109.58 75.1011 109.58 75.1011C109.72 74.8427 109.955 74.518 110.208 74.2597L110.56 74.0299C110.668 73.9918 110.809 73.953 110.942 73.9521ZM156.325 74.5536C156.458 74.5526 156.584 74.587 156.659 74.6955C156.899 74.9677 157.266 75.5403 157.315 76.5507C157.323 76.839 157.272 77.2419 157.254 77.2603C157.224 77.2833 156.71 77.0496 156.615 77.0035C156.428 76.9066 155.906 76.7076 154.976 76.3547C154.614 76.2902 154.966 75.7025 154.966 75.7025C155.104 75.4441 155.341 75.1194 155.595 74.8611L155.943 74.6279C156.052 74.5911 156.192 74.5547 156.325 74.5536ZM94.4578 74.5874C92.3147 75.4824 87.4596 77.4171 85.5772 78.2268C85.4549 78.2821 85.3937 78.3041 85.3406 78.4633C85.2668 78.6871 85.0356 79.4239 84.9318 79.8184C84.8902 79.9798 85.0345 79.9751 85.1683 79.9198C85.4267 79.8137 85.7594 79.6196 86.057 79.4974C87.538 78.8768 92.0433 77.0224 93.9441 76.2635C94.0687 76.2081 94.1771 76.1529 94.2348 76.0168C94.3502 75.7515 94.524 75.1235 94.6301 74.7428C94.6739 74.5859 94.5869 74.5298 94.4578 74.5874ZM186.153 77.9429C184.739 77.853 183.425 78.487 182.696 79.9772C182.618 80.1733 182.501 80.4323 182.422 80.626C182.337 80.9536 182.503 81.1715 182.676 80.92C182.872 80.6271 183.111 80.3386 183.416 80.1563C184.138 79.718 184.909 79.5486 185.693 79.6224C186.404 79.6963 187.746 80.1919 187.741 80.2611C187.733 80.418 184.63 81.9548 184.146 82.2616C183.936 82.3931 183.674 82.6367 183.72 82.8766C183.757 83.0657 184.055 83.1028 184.305 83.0152C185.525 82.5746 185.967 82.6037 186.954 82.1839C188.283 81.6141 188.676 80.9048 188.914 80.8356C189.011 80.8079 189.126 80.8179 189.242 80.7072C189.627 80.3519 189.947 79.4003 189.982 79.075C189.94 78.8282 189.046 78.7362 188.792 78.6763C187.909 78.464 187.066 78.0006 186.153 77.9429ZM222.953 79.8015C220.81 80.6966 213.491 83.3983 211.609 84.208C211.486 84.2634 211.426 84.2821 211.376 84.4412C211.299 84.665 211.067 85.4051 210.963 85.7996C210.922 85.9588 211.068 85.9541 211.2 85.901C211.46 85.7972 211.791 85.5998 212.089 85.4752C213.57 84.8569 220.539 82.2342 222.442 81.4776C222.565 81.42 222.674 81.3648 222.73 81.2309C222.845 80.9633 223.021 80.3376 223.125 79.9569C223.169 79.7978 223.082 79.7414 222.953 79.8015ZM134.174 80.3422C132.76 80.2522 131.449 80.8862 130.72 82.3765C130.642 82.5726 130.522 82.8326 130.443 83.0287C130.355 83.3539 130.523 83.5741 130.693 83.3226C130.889 83.0297 131.133 82.7435 131.44 82.5589C132.162 82.1183 132.93 81.9512 133.714 82.025C134.425 82.0965 135.768 82.5911 135.765 82.6603C135.753 82.8195 132.651 84.3563 132.167 84.6608C131.954 84.7946 131.695 85.037 131.741 85.2792C131.778 85.4661 132.079 85.5054 132.325 85.4178C133.548 84.9772 133.984 85.0064 134.971 84.5865C136.302 84.0167 136.697 83.3051 136.935 83.2382C137.032 83.2083 137.145 83.2183 137.262 83.1098C137.645 82.7522 137.968 81.7995 138.002 81.4743C137.961 81.2275 137.067 81.1389 136.813 81.0789C135.929 80.869 135.09 80.4021 134.174 80.3422ZM163.624 81.018C163.558 81.0042 163.498 81.0414 163.441 81.1499C163.236 81.5605 162.9 82.4573 162.89 82.7111C162.889 82.8426 163.28 83.29 163.725 83.9174C165.123 85.8898 165.864 88.0581 165.442 90.9901C165.407 91.2393 165.333 91.4814 165.462 91.4768C166.108 91.4422 166.483 89.2299 166.462 88.0604C166.414 85.216 165.256 82.9573 163.84 81.1972C163.762 81.0991 163.69 81.0324 163.624 81.018ZM172.518 81.2748C172.445 81.2904 172.391 81.347 172.332 81.4404C171.94 82.0771 171.406 83.0364 171.109 83.62C170.986 83.853 170.996 84.0189 171.254 84.1573C171.766 84.4295 172.666 84.9243 173.305 85.2657C173.57 85.4041 173.73 85.384 173.853 85.188C174.208 84.609 174.722 83.7212 175.052 83.1537C175.172 82.953 175.204 82.7972 175.008 82.6772C174.404 82.3081 173.414 81.7135 172.805 81.356C172.68 81.2833 172.59 81.2589 172.518 81.2748ZM197.399 83.9715C197.327 83.987 197.274 84.0446 197.217 84.137C196.824 84.776 196.291 85.7364 195.993 86.32C195.873 86.553 195.878 86.7223 196.139 86.8607C196.651 87.1329 197.547 87.6266 198.186 87.9657C198.452 88.1064 198.612 88.084 198.734 87.888C199.089 87.309 199.606 86.4223 199.933 85.8571C200.053 85.6541 200.088 85.4983 199.89 85.3806C199.285 85.0115 198.298 84.4136 197.686 84.056C197.562 83.9833 197.471 83.9561 197.399 83.9715ZM76.0816 84.6372C75.7447 84.651 75.3919 84.7406 75.0205 84.8906C72.4368 85.9172 69.4615 89.7044 68.3634 92.6087C67.1961 95.8637 67.9744 97.2827 69.6746 98.2723C71.8338 99.4765 75.585 98.4475 76.6831 99.0495C76.8953 99.1556 76.8936 99.1558 76.7506 99.3334C73.9201 102.166 69.8515 103.367 66.2413 103.473C60.827 103.648 56.8632 99.9724 60.402 92.3621C60.6857 91.76 60.1548 91.2992 59.6957 92.1458C56.3323 98.4481 57.3928 103.617 60.8277 105.352C65.9213 107.862 73.2492 105.743 77.0717 101.672C77.4938 101.176 77.9197 100.75 78.1665 99.9721C78.6279 98.6272 78.5251 97.3138 77.8861 96.6402C77.1087 95.8997 75.5848 96.2211 74.2399 96.2211C72.083 96.2535 70.2045 95.9345 69.4617 94.8019C68.9657 94.1652 68.9664 93.67 69.4279 92.8926C70.3114 91.1555 72.7206 88.6815 74.4899 87.9387C75.6941 87.4796 76.8232 87.7252 77.8151 89.6722C78.0273 90.2028 78.4186 90.0941 78.5247 89.635L78.91 87.9386C78.9814 87.4427 78.9134 87.2645 78.7005 86.8032C78.2056 85.7409 77.6551 85.1139 77.0446 84.8264C76.7394 84.6826 76.4184 84.6227 76.0816 84.6372ZM90.6629 84.7588C90.5937 84.7571 90.5454 84.9076 90.4669 85.1913C90.3401 85.8257 90.2255 86.4451 90.0986 87.1141C90.0178 87.4671 90.0422 87.4805 90.1391 87.8035C90.5175 89.4414 91.5656 93.6086 92.0754 95.498C91.3372 98.0955 87.6276 99.3245 84.4418 99.1746C82.707 99.0962 83.0275 98.4401 82.7184 98.2486C82.3677 98.0341 82.202 98.5911 82.1743 98.7319C81.999 99.5762 81.9345 100.373 82.0729 101.229C82.1768 101.868 82.5565 102.106 83.2624 102.138C85.3155 102.223 86.8344 102.02 88.3684 101.452C90.7353 100.576 91.707 99.7774 92.5283 97.0761C93.6263 100.753 94.8242 102.685 97.1679 103.513C100.958 104.847 106.016 103.034 109.982 100.841C110.372 100.873 110.752 100.955 111.107 101.026C113.232 101.555 114.595 102.147 115.446 102.429C116.791 102.888 117.238 102.103 117.663 101.148C118.793 97.6093 117.931 95.09 115.382 92.504C113.366 90.5224 110.773 88.9226 108.296 87.79C107.269 87.3678 107.102 87.7028 107.174 88.4455V90.5373C107.174 91.2431 107.254 91.4576 107.61 91.5983C106.546 93.1532 105.775 95.3456 105.704 97.1842C105.669 98.2454 105.768 99.2413 106.299 99.8065C103.15 100.907 99.8676 101.389 97.5261 100.394C95.2169 99.4117 94.0061 97.0016 93.2379 94.2172C92.5227 91.9681 91.24 87.1964 90.8386 85.1711C90.7764 84.885 90.7345 84.7242 90.6629 84.7588ZM175.39 88.8037L175.37 88.8612C175.331 88.9188 175.248 88.9672 175.225 89.1079C175.112 89.7861 174.995 90.5066 174.88 91.1895C174.841 91.434 174.748 91.7031 175.045 91.943C176.222 92.9027 177.39 94.2858 177.816 96.309C173.687 99.7785 161.079 101.452 154.733 100.797C156.272 99.8531 157.468 98.6426 158.153 97.2146C158.746 95.9066 159.173 94.1803 159.194 92.7777C159.219 90.6185 158.234 90.1962 157.558 90.1385C156.568 90.0508 155.479 91.3586 154.723 92.9872C153.867 94.8235 153.194 96.8802 152.763 98.8941C149.044 100.142 144.427 100.563 139.638 98.3297C137.949 97.5408 136.659 96.3125 135.667 94.6701C135.024 93.6043 134.196 94.001 133.582 94.4808C132.697 95.1706 131.385 96.8058 131.143 97.6201C130.882 98.4921 130.838 100.471 132.058 101.334C129.694 104.07 125.32 107.018 121.488 109.106C121.059 109.337 120.604 109.867 121.596 109.637C124.258 109.011 127.382 108.075 129.527 106.568C131.048 105.498 132.501 103.886 132.856 101.8C134.173 102.326 136.131 102.641 137.79 102.915C138.574 103.047 138.614 103.05 138.746 102.287L138.935 101.202C142.4 102.725 145.754 103.387 151.002 102.338C150.896 103.807 150.98 103.941 151.827 103.953C152.018 103.955 152.247 103.97 152.452 103.97C152.996 106.796 154.893 109.759 157.768 109.877C158.699 109.916 159.581 109.562 160.052 108.762C160.919 107.283 160.993 105.374 160.488 103.815C162.938 103.745 172.892 102.763 177.637 99.1412C177.983 98.8759 178.151 98.3818 178.296 98.0057C179.427 95.053 178.671 91.0828 175.792 88.9697C175.654 88.8659 175.436 88.8635 175.39 88.8311V88.8037ZM186.265 89.1619C185.882 89.1533 185.55 89.3358 185.467 89.7972C185.365 90.3578 185.195 92.0265 185.467 92.0681C185.645 92.0957 186.425 91.7285 187.14 92.0883C188.773 92.9095 190.419 95.8927 191.026 98.3196C189.727 99.0924 186.545 99.547 184.953 99.5631C184.467 99.5683 183.553 99.4661 183.304 99.0394C183.018 98.5388 182.861 98.6543 182.757 99.1272C182.618 99.7547 182.506 100.553 182.49 101.091C182.464 101.907 183.522 102.297 184.166 102.304C186.238 102.324 189.248 101.936 191.1 100.942C191.571 100.688 191.765 99.8115 191.806 98.8265C191.917 96.4943 191.534 94.4527 190.309 92.4803C189.241 90.7548 187.771 89.1942 186.265 89.1619ZM217.671 91.3381C217.24 91.3585 216.841 91.6123 216.431 92.0748C215.679 92.8961 215.032 94.7419 214.974 96.4813C214.877 98.4122 215.92 100.363 217.772 100.398C218.896 100.412 219.928 99.394 220.53 97.9107C220.917 100.296 218.933 103.832 216.181 106.058C212.928 108.526 209.825 108.818 205.262 108.626C204.52 108.536 204.188 109.27 205.06 109.491C209.143 110.426 214.701 110.583 217.61 107.974C220.007 105.822 221.439 102.516 221.672 98.7488C221.792 96.3935 221.044 93.6871 219.097 91.9869C218.563 91.5279 218.102 91.3177 217.671 91.3381ZM199.913 92.6527C199.781 92.6746 199.695 92.8208 199.69 93.1393L199.717 95.0722C199.731 95.6697 199.712 95.6711 200.143 96.1164C200.879 96.8361 201.588 97.6992 202.174 98.7488C202.402 99.1525 202.411 99.2011 202.289 99.6071C201.514 101.925 200.173 103.95 198.507 105.267C195.739 107.461 192.669 107.708 188.106 107.288C187.142 107.244 187.076 108.073 187.964 108.241C193.249 109.344 197.871 109.592 200.646 106.609C202.305 104.89 203.329 102.368 203.394 99.8166C203.456 97.2791 202.683 95.0813 200.407 92.9129C200.221 92.7329 200.045 92.6307 199.913 92.6527ZM156.933 93.1156C157.431 93.3025 157.905 93.8439 158.136 94.6836C157.308 96.3907 155.675 97.7057 153.645 98.573C154.118 96.543 154.981 94.7526 155.922 93.5853C156.308 93.1032 156.658 93.0118 156.933 93.1156ZM109.391 93.8455C110.346 93.8801 111.414 95.2216 111.979 96.7787C111.698 97.2031 111.156 97.6677 110.482 98.0898C110.166 98.0552 109.871 97.9691 109.516 97.9345C107.887 97.7591 106.931 97.8094 106.86 96.995C106.86 96.8566 106.885 96.7622 106.954 96.6537C107.768 94.566 108.613 93.8109 109.391 93.8455ZM112.699 93.8455C112.699 93.8455 112.725 93.876 112.76 93.876C114.919 95.5046 116.719 97.3757 117.038 98.9651C117.038 99.0736 117.072 99.1132 117.038 99.1847C116.226 100.071 115.324 99.2467 113.696 98.7184C113.34 98.5753 112.911 98.4765 112.415 98.3703C112.876 96.7786 113.017 95.2273 112.699 93.8455ZM217.634 94.4504C218.208 94.425 219.177 95.4885 219.655 96.1806C218.852 97.3594 217.748 97.8584 216.488 96.6773C216.062 96.2597 216.083 96.1247 216.252 95.6703C216.672 94.8514 217.232 94.4712 217.634 94.4504ZM134.414 95.8461C134.591 95.876 134.752 96.0151 134.87 96.2989C135.407 97.6184 136.053 98.7047 136.86 99.5767C135.209 99.2261 133.446 98.8002 132.315 98.0966C131.974 97.8844 131.994 97.7611 132.21 97.4681C132.621 96.9145 133.249 96.4733 133.846 96.0488C134.049 95.9082 134.236 95.8184 134.414 95.8461ZM153.449 104.004C156.139 104.091 159.233 104.403 159.667 105.94C158.85 107.096 157.044 107.127 155.537 106.22C154.684 105.708 153.866 104.947 153.449 104.004ZM200.951 111.259C198.805 112.154 192.825 114.54 190.945 115.348C190.82 115.403 190.761 115.425 190.708 115.584C190.632 115.808 190.401 116.545 190.299 116.939C190.256 117.098 190.401 117.094 190.532 117.041C190.793 116.937 191.126 116.74 191.421 116.618C192.902 115.998 198.536 113.694 200.437 112.935C200.559 112.875 200.667 112.821 200.724 112.685C200.84 112.419 201.017 111.791 201.123 111.411C201.164 111.252 201.08 111.201 200.951 111.259Z" fill="white"/>
</g>
<defs>
<clipPath id="clip0_1_298">
<rect width="279.874" height="55.9153" fill="white" transform="translate(0.453613 0.450439)"/>
</clipPath>
<clipPath id="clip1_1_298">
<rect width="165.489" height="44.7323" fill="white" transform="translate(57.6471 72.3416)"/>
</clipPath>
</defs>
</svg>
