<svg width="177" height="25" viewBox="0 0 177 25" fill="none" xmlns="http://www.w3.org/2000/svg">
<path d="M27.9126 23.9102C27.1049 23.8142 25.6888 23.6036 24.7657 23.4421C23.8426 23.2806 22.4307 22.9778 21.6281 22.7693C20.8255 22.5608 19.6702 22.1938 19.0608 21.9537C18.4514 21.7136 17.6179 21.2896 17.2086 21.0114C16.7992 20.7332 15.9921 20.0022 15.4151 19.3869C14.838 18.7716 14.412 18.2271 14.4684 18.1768C14.5249 18.1265 15.0405 18.3924 15.6144 18.7677C16.1882 19.143 17.3585 19.7385 18.2151 20.0911C19.0717 20.4437 20.6065 20.9475 21.6259 21.2107C22.6453 21.4739 24.499 21.8528 25.7453 22.0527C26.9916 22.2526 29.467 22.5134 31.2461 22.6321C33.704 22.7961 35.1477 22.7954 37.2574 22.6292C38.7844 22.509 40.9412 22.2479 42.0502 22.0491C43.1593 21.8503 44.8219 21.4712 45.745 21.2066C46.668 20.9421 48.2809 20.3509 49.3291 19.8929C50.3773 19.4348 51.6282 18.7602 52.1089 18.3936C52.6474 17.9829 52.98 17.5714 52.9754 17.3212C52.9714 17.0979 52.833 16.705 52.6681 16.448C52.5032 16.191 52.3649 15.839 52.3609 15.6658C52.3569 15.4926 52.4549 15.1141 52.5789 14.8247L52.8043 14.2985L53.2257 14.8125C53.5704 15.2329 53.8087 15.3265 54.5337 15.3265C55.0212 15.3265 55.5892 15.2164 55.7957 15.0818C56.0023 14.9472 56.4216 14.3795 56.7275 13.8202C57.1704 13.0101 57.4329 12.7579 58.0178 12.5802C58.4217 12.4575 59.413 12.3453 60.2207 12.3309L61.6892 12.3048L60.5353 11.8186C59.9007 11.5513 58.8828 11.2953 58.2733 11.2499L57.1652 11.1672L57.5115 10.6769C57.702 10.4072 58.0063 10.0814 58.1877 9.95289C58.3692 9.82439 58.6894 9.71925 58.8995 9.71925C59.1095 9.71925 59.8312 10.0536 60.5032 10.4623C61.1752 10.871 62.3357 11.46 63.082 11.7711C63.8283 12.0822 64.9295 12.4406 65.5291 12.5675C66.1287 12.6944 66.6193 12.8942 66.6193 13.0115C66.6193 13.1288 66.4852 13.3239 66.3213 13.4451C66.0909 13.6154 65.6637 13.5994 64.4419 13.3746C63.5723 13.2145 62.2036 13.0836 61.4005 13.0836C60.5974 13.0836 59.7963 13.1328 59.6204 13.193C59.3359 13.2902 59.3384 13.3734 59.643 13.9424C59.8983 14.4194 59.9344 14.7129 59.7847 15.0946C59.6259 15.4995 59.4306 15.6199 58.8532 15.669C58.4515 15.7032 57.7802 15.6399 57.3615 15.5282C56.6301 15.3331 56.5673 15.3544 55.7603 16.0734C55.144 16.6226 54.7484 16.8218 54.2744 16.8218C53.6911 16.8218 53.6056 16.8988 53.3938 17.6161C53.2226 18.1958 52.827 18.6946 51.9297 19.462C51.1001 20.1716 50.0651 20.7905 48.7471 21.3653C47.6729 21.8338 46.0187 22.4306 45.0711 22.6916C44.1236 22.9526 42.4243 23.3455 41.2949 23.5649C39.5985 23.8944 38.3841 23.9743 34.3113 24.0242C31.5997 24.0575 28.7204 24.0062 27.9127 23.9102L27.9126 23.9102ZM58.4293 14.1038C58.1496 13.8386 57.7468 13.6528 57.5175 13.6833C57.2915 13.7132 57.0709 13.8345 57.0273 13.9527C56.9837 14.0709 57.2122 14.2535 57.5353 14.3585C57.8584 14.4635 58.3044 14.556 58.5264 14.5641C58.8972 14.5777 58.8893 14.5401 58.4293 14.1038ZM48.2639 23.3616C48.3169 23.2852 48.9047 23.0301 49.5701 22.7949C50.2355 22.5596 51.4173 22.0912 52.1961 21.754C52.975 21.4168 53.6122 21.2116 53.6122 21.2979C53.6122 21.3843 53.3504 21.7046 53.0304 22.0098C52.6652 22.3581 51.9993 22.6811 51.2425 22.8771C50.5792 23.0489 49.616 23.2594 49.102 23.345C48.588 23.4305 48.2108 23.438 48.2639 23.3616V23.3616ZM91.27 21.7055C92.3084 21.3135 93.5593 20.8096 94.0497 20.5857C94.5401 20.3617 94.9413 20.2554 94.9413 20.3494C94.9413 20.4435 94.6817 20.7671 94.3644 21.0687C93.9412 21.4709 93.3363 21.7253 92.0948 22.023C91.1639 22.2463 90.1726 22.4265 89.892 22.4235C89.5831 22.42 90.1267 22.1369 91.27 21.7055ZM171.002 22.2712C171.111 22.1845 171.767 21.9181 172.46 21.6793C173.152 21.4406 174.271 21.0014 174.946 20.7034C175.621 20.4054 176.212 20.1963 176.26 20.2388C176.308 20.2812 176.149 20.5396 175.908 20.8129C175.667 21.0863 175.289 21.3959 175.068 21.501C174.848 21.606 173.935 21.8565 173.039 22.0576C172.144 22.2587 171.274 22.4245 171.107 22.4261C170.924 22.4275 170.882 22.366 171.002 22.2712ZM87.6348 20.7466C87.6726 20.6472 88.6003 20.0796 89.6965 19.4853C91.4976 18.5089 91.6831 18.3563 91.6233 17.9017C91.5868 17.625 91.7383 17.0375 91.9599 16.5962C92.1816 16.1548 92.567 15.6322 92.8165 15.4348C93.2663 15.0789 93.2751 15.08 93.8436 15.5616C94.1589 15.8287 94.8889 16.2545 95.4658 16.5078C96.0428 16.7611 97.1756 17.0984 97.9833 17.2573C98.791 17.4163 100.443 17.6758 101.655 17.8341C102.866 17.9925 105.368 18.2514 107.214 18.4097C109.06 18.5679 113.25 18.7832 116.523 18.8883C120.609 19.0194 125.001 19.0181 130.527 18.884C134.956 18.7768 140.207 18.6055 142.197 18.5034C144.188 18.4012 147.09 18.2289 148.648 18.1204C150.206 18.0118 152.708 17.8001 154.208 17.6499C155.708 17.4997 157.785 17.2493 158.823 17.0936C159.862 16.9378 161.325 16.6759 162.075 16.5116C162.825 16.3472 163.789 16.0554 164.217 15.863C164.645 15.6706 165.053 15.5131 165.123 15.5131C165.193 15.5131 165.193 15.6739 165.123 15.8705C165.022 16.154 165.125 16.2532 165.623 16.3506C165.968 16.4181 166.679 16.4161 167.203 16.3463C168.087 16.2283 168.174 16.1661 168.401 15.4924C168.535 15.0928 168.724 14.7658 168.822 14.7658C168.919 14.7658 168.998 15.0076 168.998 15.3032C168.998 15.7555 169.102 15.859 169.654 15.9574C170.014 16.0216 170.486 16.0742 170.703 16.0742C170.952 16.0742 171.096 15.9416 171.096 15.7125C171.096 15.5136 171.205 15.1141 171.339 14.8247L171.583 14.2986L171.707 14.851C171.811 15.315 171.966 15.4285 172.67 15.5596C173.131 15.6454 173.721 15.6686 173.981 15.611C174.24 15.5534 174.453 15.3981 174.453 15.2658C174.453 15.1336 174.113 14.2754 173.698 13.3589C173.045 11.9146 172.969 11.592 173.13 10.9395L173.315 10.1866L174.18 12.1491C174.656 13.2285 175.064 14.3219 175.087 14.5789C175.11 14.8359 175.118 15.2728 175.105 15.5498C175.092 15.8267 174.862 16.2817 174.592 16.5609C174.123 17.047 174.062 17.0595 173.15 16.8551C172.627 16.7377 172.047 16.5898 171.862 16.5265C171.633 16.448 171.448 16.5628 171.282 16.8866C171.149 17.1481 170.934 17.3976 170.805 17.4411C170.677 17.4846 170.067 17.4049 169.451 17.264C168.406 17.025 168.295 17.0329 167.797 17.3821C167.503 17.5879 167.063 17.7546 166.819 17.7525C166.575 17.7503 165.771 17.6357 165.032 17.4978C163.787 17.2655 163.562 17.2779 161.976 17.6666C161.034 17.8974 159.137 18.2621 157.76 18.477C156.383 18.6919 153.557 19.0376 151.48 19.2451C149.403 19.4527 145.438 19.7663 142.669 19.9421C138.713 20.1932 134.667 20.2636 123.788 20.2707C114.101 20.277 109.122 20.2083 107.214 20.0424C105.714 19.9119 103.779 19.7188 102.913 19.6132C102.048 19.5076 100.585 19.2938 99.6616 19.138C98.7386 18.9822 97.5209 18.7229 96.9557 18.5617C95.9486 18.2745 95.921 18.2771 95.569 18.6929L95.2098 19.1171L93.6964 18.8126L92.183 18.5081L91.6753 19.0456C91.3961 19.3413 90.7186 19.7716 90.1698 20.002C89.621 20.2324 88.8106 20.5348 88.369 20.6741C87.9273 20.8135 87.5969 20.8461 87.6347 20.7467L87.6348 20.7466ZM93.704 16.8126C93.1656 16.2874 93.0272 16.2345 92.7425 16.445C92.5595 16.5803 92.4421 16.7772 92.4816 16.8827C92.5211 16.9882 92.9255 17.1715 93.3802 17.29C93.835 17.4086 94.2354 17.4876 94.27 17.4658C94.3047 17.444 94.0499 17.15 93.704 16.8126ZM63.1866 20.1014C62.7409 19.9586 62.0952 19.6039 61.7517 19.3131C61.4083 19.0222 60.9823 18.5369 60.8051 18.2345C60.628 17.9321 60.407 17.4485 60.314 17.1597C60.2211 16.871 60.2256 16.6348 60.3239 16.6348C60.4223 16.6348 60.6119 16.9293 60.7452 17.2892C60.8786 17.6491 61.2809 18.2048 61.6392 18.5241C62.2479 19.0663 62.3714 19.0994 63.5121 19.0259C64.4332 18.9666 64.9473 18.8123 65.6039 18.3985C66.0827 18.0967 66.7638 17.5297 67.1175 17.1385C67.6212 16.5813 67.699 16.3935 67.4769 16.2712C67.2767 16.1609 67.2351 15.917 67.3355 15.4404C67.476 14.7733 67.4891 14.7658 68.517 14.7658C69.4552 14.7658 69.5564 14.7249 69.5558 14.3452C69.5554 14.1139 69.221 12.4948 68.8126 10.7472C68.4041 8.99963 67.8818 6.65484 67.6519 5.53658C67.3061 3.85459 67.2771 3.3869 67.4837 2.82911C67.7152 2.20433 67.748 2.18394 67.932 2.55128C68.0412 2.76932 68.3603 3.05724 68.6411 3.19111C68.9733 3.34953 69.1074 3.53646 69.0251 3.72652C68.9555 3.88712 68.7988 4.35496 68.6767 4.76616C68.5064 5.34014 68.5314 5.8611 68.7846 7.00906C68.966 7.83145 69.3547 9.51363 69.6484 10.7472C69.9421 11.9808 70.1832 13.3503 70.1842 13.7905C70.1849 14.2307 70.0491 14.8823 69.882 15.2386C69.7149 15.5949 69.3344 15.9853 69.0365 16.1063C68.7125 16.2378 68.3262 16.6658 68.0753 17.1711C67.8445 17.6358 67.4198 18.2916 67.1315 18.6284C66.8432 18.9652 66.3031 19.4442 65.9315 19.693C65.5598 19.9417 64.9725 20.1937 64.6263 20.253C64.2802 20.3124 63.6323 20.2441 63.1866 20.1014ZM35.7075 19.9135C35.2638 19.7725 34.6613 19.4608 34.3685 19.2208C34.0757 18.9807 33.6136 18.3637 33.3415 17.8497C33.0694 17.3357 32.8513 16.747 32.8569 16.5414C32.8624 16.3214 33.066 16.5576 33.3508 17.1153C33.617 17.6366 34.0963 18.2464 34.416 18.4704C34.8134 18.7489 35.2896 18.8777 35.9214 18.8777C36.4296 18.8777 37.1957 18.7165 37.6239 18.5193C38.0519 18.3222 38.825 17.7738 39.3417 17.3007C40.151 16.5595 40.247 16.3917 40.0347 16.0888C39.8646 15.8461 39.8485 15.5429 39.9828 15.1097C40.1715 14.5007 40.2054 14.4841 41.1254 14.5493L42.0736 14.6165V13.9616C42.0736 13.6015 41.6493 11.489 41.1307 9.26713C40.6121 7.0453 40.1349 4.66105 40.0704 3.9688C40.0057 3.27655 40.0374 2.60078 40.1406 2.46709C40.2848 2.28036 40.4881 2.35708 41.018 2.79806L41.7077 3.37209L41.3493 4.20829C41.1522 4.6682 41.0421 5.27625 41.1047 5.5595C41.1674 5.84276 41.5598 7.50436 41.9769 9.25195C42.5515 11.6599 42.7178 12.7547 42.6633 13.7726C42.6039 14.8822 42.5034 15.1993 42.0861 15.595C41.8083 15.8585 41.4686 16.0741 41.3313 16.0741C41.194 16.0741 40.9205 16.4502 40.7234 16.9099C40.5264 17.3696 39.9261 18.1808 39.3896 18.7124C38.853 19.2441 38.1076 19.7932 37.7331 19.9326C37.3585 20.072 36.9311 20.1824 36.7831 20.1779C36.6352 20.1736 36.1512 20.0544 35.7075 19.9134L35.7075 19.9135ZM173.87 19.7082C173.614 19.5482 173.407 19.3169 173.411 19.1942C173.415 19.0716 173.599 18.7774 173.821 18.5407C174.207 18.1281 174.246 18.1231 174.758 18.422C175.051 18.5935 175.292 18.8112 175.292 18.9058C175.292 19.0004 175.139 19.2851 174.953 19.5385C174.767 19.7919 174.552 19.9992 174.475 19.9992C174.399 19.9992 174.126 19.8683 173.87 19.7082ZM74.5915 19.5795C74.8799 19.4653 76.1308 18.9757 77.3712 18.4915C78.6116 18.0073 79.6265 17.6923 79.6265 17.7915C79.6265 17.8908 79.3668 18.203 79.0495 18.4855C78.6544 18.8372 77.9392 19.1271 76.78 19.4056C75.849 19.6293 74.8577 19.8066 74.5771 19.7996L74.0669 19.787L74.5915 19.5795ZM1.58365 19.4878C1.58365 19.4082 2.17367 19.1437 2.89483 18.9001C3.61599 18.6564 4.79609 18.1829 5.51726 17.8479C6.23841 17.5128 6.82844 17.2671 6.82844 17.3018C6.82844 17.3365 6.72602 17.5652 6.60079 17.8101C6.47557 18.0549 6.12155 18.3825 5.81407 18.5379C5.50658 18.6934 4.68859 18.9516 3.99627 19.1117C3.30395 19.2718 2.47789 19.4545 2.16057 19.5177C1.84326 19.5808 1.58365 19.5674 1.58365 19.4878V19.4878ZM20.4837 18.9889C20.0281 18.5569 20.0236 18.5204 20.3663 18.0544C20.5625 17.7876 20.8391 17.5694 20.9811 17.5694C21.123 17.5694 21.417 17.7445 21.6344 17.9585L22.0296 18.3476L22.4831 17.8409L22.9366 17.3342L23.4774 17.6854C23.7749 17.8786 24.0181 18.1208 24.0179 18.2236C24.0177 18.3264 23.8403 18.5997 23.6237 18.831C23.4071 19.0623 23.1567 19.2515 23.0673 19.2515C22.9778 19.2515 22.6942 19.0754 22.4369 18.8601L21.9692 18.4686L21.6125 18.9535C21.4164 19.2202 21.1888 19.4385 21.1068 19.4385C21.0248 19.4385 20.7444 19.2362 20.4837 18.9889ZM25.9434 18.7942C25.995 18.7483 27.0631 18.3277 28.317 17.8597C29.5709 17.3916 30.7268 16.9126 30.8857 16.7951C31.0446 16.6777 31.2321 16.6328 31.3023 16.6954C31.3726 16.7581 31.1107 17.0924 30.7203 17.4384C30.1794 17.9178 29.6078 18.1638 28.3179 18.4726C27.387 18.6954 26.4508 18.8777 26.2375 18.8777C26.0242 18.8777 25.8919 18.8401 25.9434 18.7942ZM0.534668 18.0836C0.534668 18.0358 1.51115 17.4719 2.70459 16.8306C4.60694 15.8084 4.86292 15.6107 4.78072 15.2276C4.72918 14.9873 4.92811 14.3214 5.22282 13.7479C5.51753 13.1744 5.89483 12.6586 6.06127 12.6017C6.2294 12.5442 6.86333 12.8373 7.48779 13.2612C8.18248 13.7328 9.22598 14.1985 10.2202 14.4805C11.1049 14.7315 12.8514 15.0312 14.1014 15.1466C15.3673 15.2634 17.2569 15.3014 18.3671 15.2322C19.4632 15.164 21.3042 14.948 22.458 14.7524C23.6288 14.5539 25.0967 14.1585 25.7796 13.8578C26.8343 13.3933 26.9897 13.3652 26.9048 13.6546C26.8351 13.8921 26.9853 14.0564 27.4185 14.2162C27.7882 14.3527 28.5476 14.4047 29.3353 14.3477C30.0529 14.2957 31.2325 14.1044 31.9568 13.9227C32.6812 13.7409 33.2325 13.5554 33.182 13.5105C33.1316 13.4656 32.3974 13.2684 31.5504 13.0725C30.7035 12.8765 29.4205 12.7147 28.6993 12.713C27.9782 12.7116 27.3881 12.6421 27.3881 12.5594C27.3881 12.4767 27.7179 12.0883 28.1209 11.6962C28.6776 11.1547 28.9675 11.0077 29.3272 11.0842C29.5877 11.1396 30.6032 11.4801 31.584 11.8408C32.5647 12.2015 34.0949 12.6287 34.9842 12.7901C35.8736 12.9515 37.0301 13.0836 37.5542 13.0836C38.3231 13.0836 38.5065 13.1467 38.5039 13.4107C38.5023 13.5906 38.4314 13.8316 38.3466 13.9462C38.2594 14.0641 37.2813 14.1982 36.0945 14.255C34.4656 14.3329 33.481 14.5056 31.6905 15.0278C30.4221 15.3977 28.9964 15.7003 28.5222 15.7003C27.97 15.7003 27.4036 15.5461 26.9471 15.2714L26.2343 14.8426L25.0804 15.3708C24.4458 15.6614 23.0659 16.0558 22.0139 16.2473C20.9619 16.4388 19.121 16.6542 17.9229 16.7259C16.6521 16.802 14.8867 16.7704 13.6852 16.6499C12.5525 16.5364 11.0477 16.27 10.3412 16.058L9.05663 15.6725L8.72929 16.0558C8.41621 16.4224 8.34694 16.4276 7.14316 16.1758C6.45084 16.0309 5.73599 15.8614 5.55462 15.7991C5.33447 15.7235 5.14612 15.8398 4.98805 16.1489C4.83309 16.4519 4.222 16.8376 3.21991 17.265C2.37766 17.6242 1.4289 17.9749 1.11159 18.0443C0.794285 18.1138 0.534668 18.1315 0.534668 18.0836V18.0836ZM6.83299 14.1158C6.29107 13.6176 6.06091 13.5138 5.8478 13.6714C5.69485 13.7845 5.56972 13.9807 5.56972 14.1074C5.56972 14.2342 5.87652 14.4255 6.25152 14.5327C6.62652 14.6399 7.06989 14.7362 7.23676 14.7467C7.41248 14.7577 7.24229 14.4922 6.83299 14.1158ZM81.4593 16.775C81.2693 16.6465 81.0123 16.2976 80.888 15.9997C80.678 15.4959 80.6428 15.4816 80.3852 15.7955C80.1457 16.0874 79.9024 16.1176 78.5838 16.0191C77.7453 15.9564 77.0018 15.8541 76.9316 15.7915C76.8613 15.7289 77.0378 15.2906 77.3236 14.8174C77.8009 14.0271 77.9583 13.9243 79.2554 13.555C80.032 13.3339 80.6994 13.1163 80.7385 13.0716C80.7776 13.0268 80.9437 12.6116 81.1077 12.149L81.4059 11.308L81.5127 13.1027C81.5829 14.2816 81.7247 15.0099 81.9259 15.2253C82.1623 15.4781 82.4436 15.5319 83.1557 15.4604C83.6872 15.4071 84.2579 15.2084 84.5004 14.9923C84.9154 14.6226 84.9164 14.5836 84.5706 12.4017C84.3241 10.8466 84.2767 9.96371 84.4115 9.43886C84.5254 8.99526 84.6504 8.80524 84.7188 8.9716C84.7822 9.1258 84.9903 10.207 85.1812 11.3742C85.3721 12.5415 85.6797 13.7792 85.8647 14.1248C86.0536 14.4777 86.4982 14.8788 86.879 15.0398C87.2519 15.1975 87.6844 15.3252 87.8401 15.3236C87.9957 15.3222 88.2407 15.2542 88.3846 15.1728C88.5837 15.0601 88.446 14.4942 87.8076 12.8013C87.3465 11.5784 86.9706 10.2374 86.9724 9.82143C86.974 9.40542 87.0606 8.94546 87.1644 8.7993C87.3028 8.60443 87.4169 8.75395 87.5922 9.36003C87.7236 9.81459 88.1092 10.9437 88.4491 11.8691C88.789 12.7946 89.0671 13.9553 89.0671 14.4484C89.0671 14.9416 88.921 15.5968 88.7423 15.9045C88.5637 16.2122 88.1725 16.547 87.873 16.6485C87.5035 16.7736 87.1028 16.7667 86.6271 16.6268C86.2408 16.5132 85.768 16.1825 85.5745 15.8907L85.2231 15.3608L84.7786 15.9484C84.5342 16.2715 84.101 16.6411 83.816 16.7695C83.531 16.898 82.9618 17.0044 82.5512 17.0059C82.1405 17.0073 81.6491 16.9035 81.4592 16.775L81.4593 16.775ZM80.7476 14.1665C80.8142 13.9397 80.8415 13.7299 80.8083 13.7004C80.7751 13.6709 80.2832 13.852 79.7152 14.1029L78.6824 14.5592L79.6544 14.569C80.485 14.5774 80.6441 14.5188 80.7475 14.1664L80.7476 14.1665ZM46.8231 15.2334C46.7494 15.0622 46.6891 14.6462 46.6891 14.3089C46.6891 13.9716 46.4499 12.6538 46.1575 11.3804C45.8652 10.107 45.4368 8.03382 45.2057 6.77343C44.8548 4.86018 44.8272 4.35761 45.0384 3.72952C45.2096 3.22044 45.3467 3.0549 45.4625 3.21751C45.5566 3.34967 45.6355 3.71013 45.6379 4.01853C45.6402 4.32693 46.0192 6.41321 46.4802 8.6547C46.9412 10.8962 47.317 13.2512 47.3152 13.8881C47.3136 14.525 47.2322 15.1583 47.1346 15.2954C46.9931 15.4943 46.9301 15.4817 46.8231 15.2334V15.2334ZM74.1719 14.8726C74.1719 14.5202 73.7958 12.4924 73.3362 10.3665C72.8766 8.24049 72.443 5.98455 72.3727 5.35325C72.2898 4.60934 72.3373 4.00812 72.5076 3.64471L72.7703 3.08399L72.9613 4.01853C73.0663 4.53252 73.4743 6.55113 73.8679 8.50433C74.2616 10.4575 74.6447 12.5319 74.7192 13.1141C74.7938 13.6963 74.7913 14.4744 74.7137 14.843C74.6361 15.2117 74.4824 15.5134 74.3722 15.5134C74.2621 15.5134 74.172 15.225 74.172 14.8726H74.1719ZM92.7453 12.975C92.6714 12.4693 92.3337 10.7939 91.9949 9.25196C91.6561 7.70996 91.2912 5.88401 91.1841 5.19428C91.0522 4.3449 91.0629 3.72669 91.2173 3.27847C91.3427 2.91451 91.5238 2.61671 91.6199 2.61671C91.7159 2.61671 91.7944 2.90009 91.7944 3.24644C91.7944 3.59279 92.1248 5.46015 92.5287 7.39613C92.9325 9.3321 93.2615 11.4669 93.2598 12.14C93.2582 12.8132 93.1718 13.4833 93.0682 13.6291C92.9358 13.8155 92.8398 13.621 92.7453 12.975ZM50.068 12.1705C49.736 11.9431 49.6224 11.7386 49.7328 11.5672C49.8246 11.4246 50.0394 11.1629 50.2101 10.9857C50.5028 10.6818 50.5551 10.6853 51.1251 11.0468L51.7295 11.4303L51.2929 11.9766C51.0528 12.277 50.792 12.521 50.7133 12.5187C50.6346 12.5166 50.3442 12.3597 50.068 12.1705V12.1705ZM53.9586 11.1161C53.8878 10.6556 53.6392 9.94594 53.4063 9.53917C53.1734 9.13239 52.9828 8.5439 52.9828 8.23141C52.9828 7.91892 53.0753 7.66324 53.1883 7.66324C53.3014 7.66324 53.5988 8.0207 53.8492 8.4576C54.1238 8.93679 54.3439 9.74243 54.404 10.4882C54.4618 11.2049 54.4162 11.7725 54.2956 11.8389C54.1756 11.905 54.0329 11.5988 53.9586 11.1161ZM167.11 10.7322C167.11 10.6673 167.361 10.4379 167.669 10.2225L168.228 9.83093L167.616 9.68459C167.28 9.6041 166.843 9.58378 166.645 9.63945C166.329 9.72819 166.311 9.67222 166.502 9.1842C166.622 8.87816 166.852 8.58262 167.013 8.52744C167.175 8.47227 167.782 8.47721 168.362 8.53846C168.943 8.59971 169.418 8.70271 169.418 8.76732C169.418 8.83196 169.179 9.1978 168.887 9.58035C168.595 9.96289 168.076 10.4051 167.733 10.5631C167.39 10.721 167.11 10.7971 167.11 10.7322V10.7322ZM35.7099 9.96844C35.633 9.89992 35.57 9.74776 35.57 9.63035C35.57 9.51293 35.7142 9.2536 35.8905 9.05405C36.2004 8.70313 36.2089 8.70285 36.1527 9.04564C36.1207 9.24057 36.2097 9.43599 36.3505 9.47989C36.4912 9.52383 36.7977 9.2802 37.0315 8.93856C37.3113 8.52969 37.4569 8.42918 37.4574 8.64449C37.4578 8.82439 37.5853 8.97158 37.7408 8.97158C37.8962 8.97158 38.1258 8.78233 38.2511 8.55103L38.4787 8.13049L38.4929 8.56332C38.5009 8.80138 38.4094 9.15884 38.29 9.35768C38.1676 9.56132 37.8523 9.71921 37.5681 9.71921C37.2905 9.71921 37.005 9.80332 36.9337 9.90611C36.8624 10.0089 36.5893 10.093 36.3269 10.093C36.0645 10.093 35.7868 10.0369 35.7099 9.96842V9.96844ZM63.5481 9.25154C63.4816 9.09711 63.5016 8.73965 63.5926 8.45718C63.7481 7.97416 63.7628 7.96862 63.8396 8.36414C63.8844 8.59544 64.0582 8.78469 64.2258 8.78469C64.3933 8.78469 64.6372 8.57589 64.7677 8.32068C64.9867 7.89235 65.0256 7.88158 65.2735 8.18051C65.4513 8.3948 65.6109 8.44111 65.7456 8.31741C65.8576 8.21462 65.9946 7.96229 66.0501 7.75669C66.1186 7.50331 66.1589 7.56924 66.1754 7.96136C66.1901 8.30958 66.0448 8.66476 65.8105 8.85368C65.5964 9.02629 65.2811 9.11961 65.1098 9.06105C64.9385 9.00249 64.6773 9.08458 64.5293 9.24345C64.3813 9.40233 64.1272 9.53232 63.9646 9.53232C63.802 9.53232 63.6146 9.40597 63.5481 9.25154ZM34.8358 7.85015C34.9071 7.74735 35.0639 7.66324 35.1844 7.66324C35.3048 7.66324 36.1961 7.33226 37.165 6.92773C38.1339 6.5232 38.9267 6.26156 38.9267 6.3463C38.9267 6.43104 38.7615 6.67489 38.5596 6.88818C38.3432 7.11678 37.5483 7.43219 36.6232 7.65652C35.7601 7.86581 34.9757 8.03705 34.8801 8.03705C34.7844 8.03705 34.7645 7.95295 34.8358 7.85015H34.8358ZM58.6996 7.45482C59.0169 7.2439 59.2766 6.9833 59.2766 6.87571C59.2766 6.75511 58.923 6.71559 58.3545 6.77267L57.4325 6.86527L57.7064 6.28298C57.9654 5.7324 58.0499 5.69767 59.2578 5.64506C60.1347 5.60687 60.5353 5.65856 60.5353 5.8099C60.5353 5.93117 60.3388 6.31374 60.0986 6.66005C59.8583 7.00636 59.4597 7.4158 59.2127 7.56992C58.9657 7.72405 58.6194 7.84748 58.4432 7.84422C58.2352 7.84041 58.3251 7.70375 58.6996 7.45482ZM47.9478 7.49067C47.9478 7.39576 48.1853 7.06666 48.4755 6.75934C48.8298 6.38425 49.7744 5.91057 51.3492 5.31838C52.6394 4.83318 54.6205 4.15854 55.7516 3.81918C56.8826 3.47983 57.808 3.2714 57.808 3.35601C57.808 3.44062 57.6428 3.68328 57.4409 3.89526C57.239 4.10724 55.7498 4.73674 54.1317 5.29415C52.5135 5.85157 50.5097 6.61264 49.6788 6.98544C48.8479 7.35823 48.1185 7.66324 48.0579 7.66324C47.9974 7.66324 47.9478 7.58558 47.9478 7.49067ZM82.4513 7.4657C82.376 7.35706 82.3722 7.06268 82.4429 6.81153C82.5136 6.56037 82.6612 6.35488 82.7707 6.35488C82.8803 6.35488 82.9156 6.48104 82.8492 6.63524C82.7651 6.83042 82.8643 6.9156 83.1757 6.9156C83.4661 6.9156 83.7062 6.73538 83.8605 6.40161C84.0481 5.99565 84.1164 5.95636 84.1853 6.2147C84.2333 6.3946 84.3995 6.54179 84.5545 6.54179C84.7095 6.54179 84.9311 6.31049 85.047 6.02779L85.2577 5.51379L85.2743 6.09227C85.2843 6.44442 85.1297 6.80066 84.8791 7.00276C84.6526 7.18536 84.3291 7.2875 84.1601 7.22974C83.9912 7.17199 83.7401 7.24589 83.6021 7.39398C83.4642 7.54207 83.1796 7.66324 82.9698 7.66324C82.76 7.66324 82.5266 7.57435 82.4513 7.4657ZM63.9969 6.65074C64.92 6.28642 65.8497 5.89676 66.0628 5.78484C66.276 5.67292 66.4949 5.62104 66.5494 5.66955C66.6039 5.71806 66.5248 5.93411 66.3737 6.14966C66.2226 6.36521 65.6732 6.66541 65.1528 6.81677C64.6325 6.96813 63.7819 7.14174 63.2626 7.20256C62.366 7.3076 62.4029 7.27988 63.9969 6.65074ZM80.4656 4.68708C80.4656 4.61768 80.8197 4.4487 81.2524 4.31158C81.6851 4.17445 82.9124 3.7007 83.9797 3.25879C85.047 2.81688 85.9202 2.54016 85.9202 2.64385C85.9202 2.74754 85.6519 3.07141 85.324 3.36357C84.9961 3.65572 84.3116 3.99759 83.803 4.12327C83.2944 4.24895 82.3354 4.45561 81.672 4.58253C81.0085 4.70944 80.4656 4.75649 80.4656 4.68708ZM43.5826 2.21214C43.3514 1.88682 43.2115 1.50619 43.2718 1.36628C43.3573 1.16784 43.4472 1.16061 43.6809 1.33338C43.9222 1.51183 44.1332 1.42196 44.7666 0.870883C45.1991 0.494695 45.6615 0.186905 45.7944 0.186905C45.9272 0.186905 46.1758 0.364902 46.3469 0.582453C46.5812 0.880567 46.6043 1.08267 46.4405 1.40293C46.321 1.63664 45.9931 1.92124 45.7119 2.03538C45.4308 2.14951 44.9249 2.2429 44.5878 2.2429C44.1292 2.2429 44.0053 2.31347 44.0957 2.52326C44.1621 2.67746 44.1684 2.80362 44.1097 2.80362C44.051 2.80362 43.8138 2.53745 43.5826 2.21214L43.5826 2.21214ZM45.7278 1.38181C45.9103 1.31942 46.0597 1.19325 46.0597 1.10145C46.0597 1.00965 45.8824 0.934541 45.6658 0.934541C45.4491 0.934541 45.1543 1.0607 45.0107 1.2149C44.7978 1.44348 44.8092 1.49527 45.0728 1.49527C45.2505 1.49527 45.5453 1.44421 45.7278 1.38181ZM70.9725 2.27441C70.7706 1.96836 70.6054 1.62419 70.6054 1.50959C70.6054 1.38643 70.7997 1.34469 71.0807 1.40751C71.4309 1.48581 71.7172 1.36378 72.1689 0.9438C72.506 0.630309 72.9341 0.373816 73.1202 0.373816C73.3063 0.373816 73.5719 0.474746 73.7103 0.598106C73.8488 0.721465 73.9621 0.973792 73.9621 1.15883C73.9621 1.34387 73.7733 1.66348 73.5425 1.86908C73.2654 2.11597 72.8432 2.2429 72.2991 2.2429C71.7185 2.2429 71.4553 2.32968 71.4075 2.53688C71.3594 2.7454 71.2329 2.6691 70.9725 2.27441ZM73.4202 1.30126C73.5358 1.2006 73.4661 1.08358 73.2454 1.00815C73.0048 0.9259 72.7214 1.0283 72.4236 1.30508L71.969 1.72755L72.5984 1.59818C72.9446 1.52703 73.3144 1.39341 73.4202 1.30126ZM89.6441 2.03787C89.4421 1.72278 89.2769 1.34402 89.2769 1.1962C89.2769 1.01025 89.4234 0.960171 89.7522 1.03369C90.1024 1.112 90.3888 0.989958 90.8404 0.569984C91.1775 0.256492 91.6129 0 91.808 0C92.003 0 92.2791 0.12507 92.4215 0.277935C92.5687 0.435893 92.624 0.756297 92.5496 1.02017C92.4777 1.27554 92.2404 1.56958 92.0222 1.67359C91.8041 1.77761 91.3096 1.88517 90.9233 1.91262C90.4697 1.94486 90.1839 2.07733 90.1161 2.28666C90.0311 2.5494 89.9417 2.50228 89.6441 2.03787ZM91.8886 1.05805C92.2601 0.816041 92.2602 0.803421 91.8903 0.676959C91.638 0.590725 91.3619 0.67597 91.0799 0.927262L90.6521 1.30836H91.0783C91.3126 1.30836 91.6773 1.19572 91.8886 1.05805H91.8886Z" fill="white"/>
</svg>
