<svg width="550" height="76" viewBox="0 0 550 76" fill="none" xmlns="http://www.w3.org/2000/svg">
<path d="M85.6856 74.8326C83.1577 74.5322 78.7257 73.8729 75.8367 73.3674C72.9477 72.862 68.5287 71.9145 66.0167 71.2619C63.5048 70.6094 59.8891 69.4606 57.9819 68.7092C56.0747 67.9577 53.466 66.6306 52.1848 65.76C50.9037 64.8894 48.3777 62.6015 46.5717 60.6758C44.7656 58.7501 43.4324 57.0458 43.609 56.8884C43.7857 56.731 45.3995 57.5633 47.1954 58.7379C48.9913 59.9124 52.6542 61.7762 55.335 62.8797C58.0158 63.9832 62.8195 65.5601 66.0099 66.3837C69.2002 67.2074 75.0021 68.3933 78.9027 69.0191C82.8032 69.6448 90.5504 70.4608 96.1186 70.8323C103.811 71.3457 108.33 71.3435 114.932 70.8235C119.711 70.447 126.462 69.6299 129.933 69.0077C133.404 68.3855 138.607 67.199 141.496 66.371C144.385 65.5431 149.433 63.6928 152.714 62.2593C155.994 60.8258 159.909 58.7144 161.413 57.5672C163.099 56.2817 164.14 54.9938 164.125 54.2107C164.113 53.5119 163.68 52.282 163.164 51.4777C162.648 50.6734 162.215 49.5717 162.202 49.0296C162.19 48.4876 162.496 47.303 162.884 46.3973L163.59 44.7505L164.909 46.3592C165.988 47.6749 166.733 47.9679 169.002 47.9679C170.528 47.9679 172.306 47.6232 172.952 47.202C173.599 46.7808 174.911 45.0039 175.868 43.2534C177.255 40.7182 178.076 39.9287 179.907 39.3725C181.171 38.9885 184.273 38.6375 186.801 38.5926L191.397 38.5108L187.786 36.9892C185.8 36.1523 182.614 35.3513 180.706 35.209L177.238 34.9504L178.322 33.4158C178.918 32.5717 179.871 31.552 180.439 31.1499C181.006 30.7477 182.009 30.4187 182.666 30.4187C183.324 30.4187 185.582 31.4652 187.685 32.7443C189.789 34.0233 193.421 35.8666 195.756 36.8404C198.092 37.8141 201.538 38.9358 203.415 39.333C205.292 39.7301 206.827 40.3554 206.827 40.7225C206.827 41.0896 206.407 41.7003 205.894 42.0797C205.174 42.6127 203.836 42.5625 200.013 41.8588C197.291 41.358 193.007 40.9482 190.494 40.9482C187.98 40.9482 185.473 41.1023 184.922 41.2905C184.032 41.5948 184.04 41.8552 184.993 43.6359C185.792 45.1288 185.905 46.0473 185.437 47.2421C184.94 48.5092 184.328 48.8861 182.522 49.0399C181.264 49.1469 179.163 48.9486 177.853 48.599C175.564 47.9884 175.367 48.0553 172.841 50.3055C170.912 52.0241 169.674 52.6476 168.191 52.6476C166.365 52.6476 166.098 52.8888 165.435 55.1338C164.899 56.9481 163.661 58.5092 160.853 60.9109C158.256 63.1316 155.017 65.0687 150.892 66.8677C147.53 68.334 142.353 70.2019 139.387 71.0186C136.422 71.8354 131.103 73.0653 127.568 73.7519C122.259 74.7831 118.459 75.0331 105.712 75.1894C97.2253 75.2936 88.2136 75.1331 85.6858 74.8326L85.6856 74.8326ZM181.195 44.1411C180.319 43.3111 179.059 42.7297 178.341 42.8249C177.634 42.9187 176.943 43.2982 176.807 43.6682C176.67 44.0382 177.386 44.6097 178.397 44.9382C179.408 45.2667 180.804 45.5563 181.499 45.5817C182.659 45.6241 182.634 45.5067 181.195 44.1411ZM149.38 73.1155C149.546 72.8763 151.385 72.0781 153.468 71.3418C155.55 70.6055 159.249 69.1396 161.686 68.0842C164.124 67.0288 166.118 66.3865 166.118 66.6568C166.118 66.927 165.299 67.9297 164.297 68.8849C163.155 69.9747 161.071 70.9857 158.702 71.5992C156.626 72.1368 153.611 72.7958 152.003 73.0636C150.394 73.3313 149.214 73.3547 149.38 73.1155V73.1155ZM283.977 67.9323C287.227 66.7057 291.142 65.1286 292.677 64.4277C294.212 63.7268 295.467 63.394 295.467 63.6883C295.467 63.9825 294.655 64.9956 293.662 65.9395C292.337 67.1982 290.444 67.9943 286.559 68.9262C283.645 69.625 280.543 70.189 279.665 70.1796C278.698 70.1685 280.399 69.2827 283.977 67.9323ZM533.516 69.703C533.859 69.4314 535.912 68.5978 538.079 67.8506C540.246 67.1033 543.748 65.7288 545.861 64.7962C547.974 63.8635 549.824 63.2091 549.973 63.3419C550.123 63.4748 549.627 64.2834 548.871 65.1389C548.116 65.9944 546.934 66.9634 546.244 67.2923C545.554 67.6211 542.696 68.4051 539.893 69.0345C537.09 69.6638 534.368 70.1828 533.844 70.1877C533.272 70.1922 533.141 69.9996 533.516 69.703ZM272.6 64.9313C272.718 64.6201 275.622 62.8438 279.053 60.9838C284.69 57.9278 285.27 57.4505 285.083 56.0276C284.969 55.1616 285.443 53.3229 286.137 51.9416C286.83 50.5603 288.037 48.9246 288.818 48.3067C290.225 47.1928 290.253 47.1962 292.032 48.7035C293.019 49.5396 295.303 50.8724 297.109 51.6651C298.915 52.4578 302.46 53.5134 304.988 54.0108C307.516 54.5082 312.687 55.3206 316.479 55.8161C320.27 56.3116 328.1 57.1221 333.878 57.6173C339.656 58.1124 352.767 58.7865 363.014 59.1153C375.802 59.5256 389.545 59.5217 406.842 59.102C420.701 58.7664 437.137 58.2303 443.366 57.9106C449.595 57.591 458.68 57.0515 463.556 56.7119C468.431 56.3722 476.261 55.7096 480.955 55.2394C485.65 54.7693 492.15 53.9858 495.4 53.4983C498.651 53.0108 503.23 52.1911 505.578 51.6768C507.925 51.1625 510.942 50.249 512.282 49.6468C513.621 49.0446 514.897 48.5519 515.116 48.5519C515.336 48.5519 515.336 49.0552 515.117 49.6704C514.801 50.5578 515.124 50.8681 516.682 51.1729C517.762 51.3843 519.987 51.3779 521.628 51.1597C524.393 50.7902 524.666 50.5955 525.375 48.4872C525.796 47.2364 526.389 46.2131 526.693 46.2131C526.997 46.2131 527.245 46.9699 527.245 47.8949C527.245 49.3106 527.57 49.6346 529.297 49.9423C530.426 50.1433 531.903 50.3079 532.58 50.3079C533.36 50.3079 533.811 49.8928 533.811 49.1761C533.811 48.5535 534.154 47.3032 534.573 46.3974L535.334 44.7507L535.723 46.4797C536.05 47.9317 536.533 48.2869 538.737 48.6973C540.181 48.966 542.027 49.0385 542.839 48.8582C543.652 48.678 544.317 48.192 544.317 47.778C544.317 47.3641 543.255 44.6783 541.956 41.8097C539.91 37.2895 539.673 36.2797 540.176 34.2376L540.756 31.8812L543.464 38.0234C544.953 41.4016 546.23 44.8237 546.302 45.6281C546.373 46.4324 546.399 47.7997 546.359 48.6666C546.319 49.5334 545.596 50.9575 544.753 51.8313C543.284 53.3526 543.093 53.3916 540.241 52.7519C538.603 52.3845 536.789 51.9217 536.209 51.7235C535.491 51.4779 534.912 51.8371 534.394 52.8507C533.976 53.6689 533.304 54.4497 532.902 54.5859C532.499 54.7221 530.592 54.4727 528.664 54.0317C525.393 53.2838 525.046 53.3085 523.487 54.4013C522.568 55.0455 521.19 55.5671 520.427 55.5604C519.663 55.5538 517.145 55.195 514.832 54.7633C510.936 54.0363 510.231 54.0753 505.268 55.2917C502.321 56.014 496.384 57.1554 492.074 57.828C487.764 58.5007 478.92 59.5825 472.42 60.2321C465.919 60.8817 453.51 61.8633 444.843 62.4134C432.461 63.1993 419.798 63.4197 385.749 63.4417C355.433 63.4616 339.85 63.2467 333.878 62.7273C329.184 62.319 323.126 61.7145 320.418 61.3841C317.71 61.0536 313.13 60.3843 310.241 59.8968C307.352 59.4093 303.541 58.5977 301.772 58.0932C298.62 57.1942 298.534 57.2024 297.432 58.5037L296.308 59.8313L291.571 58.8784L286.835 57.9254L285.246 59.6077C284.372 60.533 282.252 61.8799 280.534 62.6009C278.816 63.3219 276.28 64.2685 274.898 64.7045C273.516 65.1406 272.481 65.2427 272.6 64.9315L272.6 64.9313ZM291.595 52.6188C289.91 50.9751 289.477 50.8095 288.586 51.4685C288.013 51.8918 287.646 52.5083 287.769 52.8385C287.893 53.1686 289.158 53.7422 290.582 54.1132C292.005 54.4841 293.258 54.7317 293.367 54.6632C293.475 54.5949 292.678 53.6748 291.595 52.6188ZM196.084 62.9119C194.689 62.4652 192.668 61.3549 191.593 60.4447C190.518 59.5345 189.185 58.0154 188.63 57.069C188.076 56.1226 187.384 54.609 187.093 53.7054C186.802 52.8019 186.816 52.0626 187.124 52.0626C187.432 52.0626 188.026 52.9841 188.443 54.1105C188.86 55.2369 190.119 56.9761 191.241 57.9754C193.146 59.6725 193.532 59.776 197.103 59.546C199.985 59.3602 201.594 58.8776 203.649 57.5823C205.148 56.6377 207.28 54.8632 208.386 53.6389C209.963 51.8951 210.206 51.3071 209.511 50.9244C208.885 50.5792 208.755 49.8159 209.069 48.3243C209.508 46.2364 209.549 46.2129 212.766 46.2129C215.703 46.2129 216.019 46.0848 216.018 44.8967C216.016 44.1728 214.97 39.1054 213.692 33.6359C212.413 28.1664 210.778 20.8279 210.059 17.328C208.977 12.0638 208.886 10.6001 209.533 8.85436C210.257 6.89896 210.36 6.83515 210.936 7.98482C211.277 8.66722 212.276 9.56835 213.155 9.98732C214.195 10.4831 214.614 11.0682 214.357 11.663C214.139 12.1657 213.648 13.6299 213.266 14.9168C212.733 16.7132 212.812 18.3437 213.604 21.9365C214.172 24.5104 215.388 29.7751 216.307 33.6359C217.227 37.4968 217.981 41.7828 217.984 43.1605C217.987 44.5382 217.562 46.5777 217.039 47.6928C216.516 48.8078 215.325 50.0298 214.392 50.4083C213.378 50.82 212.169 52.1593 211.384 53.741C210.662 55.1955 209.333 57.2479 208.43 58.3019C207.528 59.356 205.838 60.8553 204.674 61.6337C203.511 62.4121 201.673 63.2009 200.59 63.3866C199.506 63.5723 197.479 63.3587 196.084 62.9119ZM110.081 62.3238C108.693 61.8827 106.807 60.9071 105.891 60.1558C104.974 59.4045 103.528 57.4736 102.677 55.8649C101.825 54.2562 101.143 52.4136 101.16 51.7701C101.177 51.0816 101.814 51.8207 102.706 53.5663C103.539 55.1977 105.039 57.1062 106.039 57.8074C107.283 58.679 108.774 59.0822 110.751 59.0822C112.342 59.0822 114.739 58.5775 116.079 57.9606C117.419 57.3437 119.838 55.6273 121.455 54.1465C123.989 51.8268 124.289 51.3017 123.624 50.3537C123.092 49.5942 123.042 48.6452 123.462 47.2893C124.053 45.3834 124.159 45.3314 127.038 45.5354L130.006 45.7457V43.6962C130.006 42.5691 128.678 35.9574 127.055 29.0036C125.432 22.0499 123.938 14.5878 123.736 12.4213C123.534 10.2547 123.633 8.13975 123.956 7.72134C124.407 7.13693 125.044 7.37702 126.702 8.75717L128.861 10.5537L127.739 13.1708C127.122 14.6102 126.777 16.5132 126.973 17.3998C127.169 18.2863 128.398 23.4866 129.703 28.9561C131.502 36.4923 132.022 39.9188 131.851 43.1047C131.665 46.5772 131.351 47.5696 130.045 48.8082C129.175 49.6329 128.112 50.3076 127.683 50.3076C127.253 50.3076 126.397 51.4848 125.78 52.9236C125.163 54.3624 123.285 56.901 121.605 58.5649C119.926 60.2289 117.593 61.9473 116.421 62.3837C115.249 62.82 113.911 63.1655 113.448 63.1514C112.985 63.1381 111.47 62.7648 110.082 62.3238L110.081 62.3238ZM542.493 61.6815C541.691 61.1806 541.044 60.4567 541.056 60.0728C541.068 59.6889 541.645 58.7684 542.338 58.0273C543.547 56.736 543.669 56.7205 545.271 57.6558C546.191 58.1926 546.943 58.8741 546.943 59.1701C546.943 59.4662 546.466 60.3572 545.883 61.1502C545.3 61.9432 544.627 62.5921 544.387 62.5921C544.148 62.5921 543.296 62.1823 542.493 61.6815ZM231.778 61.2784C232.681 60.9212 236.596 59.389 240.478 57.8734C244.36 56.3579 247.536 55.3721 247.536 55.6826C247.536 55.9933 246.724 56.9706 245.73 57.8546C244.494 58.9553 242.256 59.8628 238.627 60.7344C235.714 61.4344 232.611 61.9893 231.733 61.9675L230.136 61.9279L231.778 61.2784ZM3.28302 60.9916C3.28302 60.7425 5.12963 59.9148 7.38669 59.1522C9.64372 58.3897 13.3371 56.9078 15.5942 55.8591C17.8512 54.8105 19.6978 54.0413 19.6978 54.1499C19.6978 54.2585 19.3773 54.9744 18.9853 55.7407C18.5934 56.507 17.4854 57.5321 16.5231 58.0188C15.5608 58.5054 13.0006 59.3136 10.8339 59.8146C8.66712 60.3157 6.08177 60.8874 5.08865 61.085C4.09555 61.2827 3.28302 61.2407 3.28302 60.9915V60.9916ZM62.435 59.4302C61.0093 58.0782 60.9951 57.964 62.0678 56.5053C62.6818 55.6705 63.5476 54.9874 63.9918 54.9874C64.4359 54.9874 65.3561 55.5354 66.0364 56.2052L67.2733 57.423L68.6926 55.8371L70.112 54.2513L71.8047 55.3506C72.7356 55.9552 73.4968 56.7131 73.4961 57.0348C73.4954 57.3566 72.9402 58.2121 72.2624 58.936C71.5846 59.6599 70.801 60.2522 70.521 60.2522C70.241 60.2522 69.3533 59.7008 68.5481 59.027L67.0842 57.8017L65.9681 59.3195C65.3542 60.1542 64.6419 60.8372 64.3853 60.8372C64.1286 60.8372 63.2509 60.204 62.435 59.4302ZM79.5226 58.8208C79.6839 58.6771 83.0268 57.3608 86.9512 55.896C90.8756 54.4312 94.4934 52.9319 94.9906 52.5643C95.4878 52.1966 96.0746 52.0562 96.2946 52.2522C96.5145 52.4483 95.6949 53.4945 94.473 54.5774C92.7801 56.0779 90.9912 56.848 86.9541 57.8143C84.0405 58.5117 81.1105 59.0822 80.4429 59.0822C79.7754 59.0822 79.3612 58.9646 79.5226 58.8208ZM0 56.5969C0 56.4472 3.05612 54.6824 6.79128 52.6753C12.7451 49.476 13.5463 48.8574 13.289 47.6584C13.1277 46.9063 13.7503 44.8223 14.6726 43.0273C15.595 41.2323 16.7759 39.618 17.2968 39.4399C17.823 39.26 19.807 40.1773 21.7614 41.5041C23.9356 42.9801 27.2015 44.4374 30.3132 45.3201C33.082 46.1055 38.5481 47.0436 42.4601 47.4047C46.4222 47.7704 52.336 47.8892 55.8106 47.6728C59.2413 47.4592 65.0029 46.7834 68.6142 46.171C72.2785 45.5497 76.8726 44.3124 79.0099 43.3711C82.3108 41.9174 82.7971 41.8296 82.5313 42.7352C82.3132 43.4785 82.7834 43.9927 84.1391 44.493C85.2963 44.92 87.6729 45.083 90.1384 44.9044C92.3841 44.7416 96.0761 44.1431 98.343 43.5742C100.61 43.0054 102.335 42.4248 102.178 42.2842C102.02 42.1436 99.7217 41.5267 97.071 40.9134C94.4203 40.3 90.4049 39.7937 88.1478 39.7882C85.8908 39.7838 84.0442 39.5664 84.0442 39.3075C84.0442 39.0486 85.0761 37.833 86.3375 36.6061C88.08 34.9113 88.987 34.4512 90.113 34.6906C90.9281 34.864 94.1064 35.9295 97.176 37.0585C100.246 38.1874 105.034 39.5244 107.818 40.0296C110.601 40.5348 114.221 40.9481 115.861 40.9481C118.268 40.9481 118.842 41.1458 118.834 41.9718C118.829 42.5348 118.607 43.2891 118.341 43.6478C118.068 44.0169 115.007 44.4366 111.293 44.6142C106.195 44.858 103.113 45.3988 97.5093 47.033C93.5397 48.1906 89.0774 49.1377 87.5933 49.1377C85.8654 49.1377 84.0925 48.655 82.6639 47.7955L80.4329 46.4532L76.8215 48.1066C74.8353 49.0159 70.5166 50.2503 67.2242 50.8497C63.9318 51.449 58.1702 52.1231 54.4206 52.3477C50.4431 52.5858 44.9181 52.4867 41.1575 52.1098C37.6125 51.7545 32.903 50.9208 30.6918 50.2572L26.6715 49.0506L25.647 50.2503C24.6671 51.3977 24.4503 51.4141 20.6828 50.6258C18.516 50.1724 16.2787 49.642 15.7111 49.447C15.0221 49.2104 14.4326 49.5743 13.9379 50.5417C13.4529 51.49 11.5404 52.6972 8.40408 54.0347C5.76806 55.1589 2.79872 56.2565 1.80562 56.4739C0.812531 56.6913 0 56.7467 0 56.5969V56.5969ZM19.7121 44.1785C18.016 42.6195 17.2957 42.2945 16.6287 42.7877C16.15 43.1417 15.7584 43.7558 15.7584 44.1525C15.7584 44.5491 16.7186 45.1481 17.8922 45.4835C19.0659 45.819 20.4535 46.1203 20.9757 46.1531C21.5257 46.1876 20.9931 45.3567 19.7121 44.1785ZM253.272 52.5013C252.678 52.0991 251.873 51.0072 251.485 50.0748C250.827 48.498 250.717 48.4533 249.911 49.4357C249.161 50.3492 248.4 50.4438 244.273 50.1355C241.649 49.9394 239.322 49.6189 239.102 49.4232C238.882 49.2273 239.434 47.8555 240.329 46.3745C241.823 43.9011 242.315 43.5793 246.375 42.4236C248.805 41.7315 250.894 41.0506 251.016 40.9105C251.139 40.7703 251.659 39.471 252.172 38.0232L253.105 35.3909L253.439 41.0079C253.659 44.6976 254.103 46.9771 254.733 47.6511C255.473 48.4424 256.353 48.6107 258.582 48.3869C260.245 48.22 262.031 47.5981 262.79 46.922C264.089 45.7649 264.092 45.6428 263.01 38.8141C262.238 33.947 262.09 31.1837 262.512 29.5411C262.868 28.1528 263.26 27.5581 263.474 28.0787C263.672 28.5613 264.324 31.9451 264.921 35.5983C265.519 39.2515 266.481 43.1253 267.06 44.2069C267.651 45.3115 269.043 46.5667 270.235 47.0706C271.402 47.5641 272.755 47.9637 273.242 47.9588C273.73 47.9544 274.496 47.7415 274.947 47.4868C275.57 47.1342 275.139 45.363 273.141 40.0647C271.698 36.2373 270.521 32.0405 270.527 30.7385C270.532 29.4364 270.803 27.9969 271.128 27.5395C271.561 26.9296 271.918 27.3975 272.467 29.2944C272.878 30.717 274.085 34.2508 275.149 37.1472C276.212 40.0436 277.083 43.6762 277.083 45.2196C277.083 46.7631 276.625 48.8138 276.066 49.7769C275.507 50.7399 274.283 51.7877 273.345 52.1053C272.189 52.497 270.935 52.4751 269.446 52.0374C268.237 51.682 266.757 50.647 266.152 49.7336L265.052 48.0751L263.661 49.9141C262.896 50.9255 261.54 52.0821 260.648 52.4842C259.756 52.8863 257.975 53.2192 256.69 53.2239C255.404 53.2284 253.867 52.9035 253.272 52.5014L253.272 52.5013ZM251.045 44.3372C251.253 43.6274 251.339 42.971 251.235 42.8786C251.131 42.7861 249.592 43.3531 247.814 44.1384L244.581 45.5663L247.624 45.597C250.223 45.6233 250.721 45.44 251.045 44.3372L251.045 44.3372ZM144.87 47.6765C144.64 47.1406 144.451 45.8385 144.451 44.783C144.451 43.7275 143.702 39.603 142.787 35.6175C141.872 31.632 140.532 25.1437 139.808 21.199C138.71 15.2111 138.624 13.6381 139.285 11.6724C139.82 10.0791 140.25 9.56103 140.612 10.0699C140.907 10.4836 141.154 11.6117 141.161 12.5769C141.168 13.5421 142.355 20.0716 143.797 27.0869C145.24 34.1022 146.416 41.4729 146.411 43.4661C146.406 45.4594 146.151 47.4414 145.845 47.8706C145.402 48.493 145.205 48.4537 144.87 47.6765V47.6765ZM230.465 46.5473C230.465 45.4443 229.288 39.0979 227.849 32.4442C226.411 25.7905 225.054 18.73 224.834 16.7542C224.574 14.426 224.723 12.5444 225.256 11.407L226.078 9.65205L226.676 12.5769C227.004 14.1856 228.281 20.5033 229.514 26.6163C230.746 32.7292 231.945 39.2216 232.178 41.0437C232.411 42.8659 232.403 45.3008 232.161 46.4548C231.918 47.6087 231.437 48.5527 231.092 48.5527C230.747 48.5527 230.465 47.6503 230.465 46.5473H230.465ZM288.595 40.6082C288.363 39.0256 287.306 33.7822 286.246 28.9561C285.186 24.1301 284.044 18.4154 283.708 16.2567C283.295 13.5984 283.329 11.6635 283.812 10.2607C284.205 9.12162 284.772 8.18962 285.072 8.18962C285.373 8.18962 285.619 9.07651 285.619 10.1605C285.619 11.2445 286.653 17.0888 287.917 23.1479C289.181 29.207 290.21 35.8882 290.205 37.995C290.2 40.1018 289.929 42.1991 289.605 42.6556C289.191 43.2388 288.89 42.6301 288.595 40.6082ZM155.026 38.0905C153.987 37.3787 153.631 36.7388 153.977 36.2023C154.264 35.756 154.937 34.937 155.471 34.3822C156.387 33.4312 156.551 33.4421 158.334 34.5737L160.226 35.7738L158.86 37.4835C158.108 38.4238 157.292 39.1873 157.046 39.1802C156.799 39.1735 155.891 38.6826 155.026 38.0905V38.0905ZM167.203 34.7905C166.981 33.3491 166.203 31.1281 165.474 29.855C164.745 28.5819 164.149 26.7401 164.149 25.7621C164.149 24.7841 164.438 23.9839 164.792 23.9839C165.146 23.9839 166.076 25.1026 166.86 26.47C167.72 27.9698 168.409 30.4912 168.597 32.8251C168.777 35.0683 168.635 36.8448 168.257 37.0527C167.882 37.2594 167.435 36.3011 167.203 34.7905ZM521.336 33.5889C521.336 33.3857 522.123 32.6678 523.085 31.9938L524.834 30.7682L522.921 30.3102C521.869 30.0583 520.5 29.9947 519.88 30.1689C518.89 30.4466 518.835 30.2715 519.433 28.7441C519.808 27.7863 520.528 26.8613 521.033 26.6886C521.538 26.5159 523.438 26.5314 525.255 26.7231C527.072 26.9148 528.559 27.2371 528.559 27.4394C528.559 27.6417 527.811 28.7866 526.898 29.9839C525.985 31.1812 524.36 32.5652 523.287 33.0596C522.214 33.554 521.336 33.7921 521.336 33.5889V33.5889ZM110.089 31.1986C109.848 30.9841 109.651 30.5079 109.651 30.1404C109.651 29.7729 110.103 28.9613 110.654 28.3367C111.624 27.2385 111.651 27.2376 111.475 28.3104C111.375 28.9205 111.653 29.5321 112.094 29.6695C112.534 29.807 113.494 29.0445 114.225 27.9753C115.101 26.6957 115.557 26.3811 115.558 27.0549C115.559 27.618 115.959 28.0786 116.445 28.0786C116.932 28.0786 117.65 27.4863 118.042 26.7624L118.755 25.4462L118.799 26.8009C118.824 27.546 118.538 28.6647 118.164 29.287C117.781 29.9244 116.794 30.4185 115.905 30.4185C115.036 30.4185 114.142 30.6818 113.919 31.0035C113.696 31.3252 112.841 31.5885 112.02 31.5885C111.199 31.5885 110.33 31.4129 110.089 31.1985V31.1986ZM197.215 28.9548C197.007 28.4715 197.07 27.3528 197.354 26.4687C197.841 24.957 197.887 24.9397 198.127 26.1775C198.268 26.9014 198.812 27.4937 199.336 27.4937C199.86 27.4937 200.624 26.8402 201.032 26.0415C201.718 24.701 201.839 24.6672 202.615 25.6028C203.172 26.2735 203.671 26.4184 204.093 26.0313C204.443 25.7096 204.872 24.9198 205.046 24.2764C205.26 23.4833 205.386 23.6897 205.438 24.9169C205.484 26.0068 205.029 27.1184 204.296 27.7097C203.626 28.2499 202.639 28.5419 202.103 28.3587C201.567 28.1754 200.749 28.4323 200.286 28.9295C199.823 29.4268 199.028 29.8336 198.519 29.8336C198.01 29.8336 197.423 29.4382 197.215 28.9548ZM107.353 24.5689C107.576 24.2471 108.067 23.9839 108.444 23.9839C108.821 23.9839 111.611 22.948 114.643 21.6819C117.676 20.4159 120.157 19.597 120.157 19.8622C120.157 20.1274 119.64 20.8906 119.008 21.5581C118.33 22.2736 115.843 23.2608 112.947 23.9628C110.246 24.6179 107.791 25.1538 107.492 25.1538C107.192 25.1538 107.13 24.8906 107.353 24.5689H107.353ZM182.041 23.3316C183.034 22.6715 183.847 21.8559 183.847 21.5191C183.847 21.1417 182.74 21.018 180.961 21.1967L178.075 21.4864L178.932 19.6641C179.743 17.9409 180.007 17.8322 183.788 17.6675C186.532 17.548 187.786 17.7098 187.786 18.1834C187.786 18.563 187.171 19.7603 186.419 20.8442C185.667 21.928 184.419 23.2095 183.646 23.6918C182.873 24.1742 181.79 24.5605 181.238 24.5503C180.587 24.5384 180.869 24.1107 182.041 23.3316ZM148.39 23.4438C148.39 23.1467 149.134 22.1167 150.042 21.1549C151.151 19.981 154.107 18.4985 159.036 16.6451C163.074 15.1265 169.274 13.0151 172.814 11.953C176.354 10.8909 179.25 10.2386 179.25 10.5034C179.25 10.7682 178.733 11.5277 178.101 12.1911C177.469 12.8546 172.809 14.8247 167.744 16.5693C162.68 18.3138 156.408 20.6958 153.808 21.8625C151.207 23.0293 148.925 23.9839 148.735 23.9839C148.545 23.9839 148.39 23.7408 148.39 23.4438ZM256.377 23.3657C256.141 23.0256 256.129 22.1043 256.351 21.3183C256.572 20.5322 257.034 19.8891 257.377 19.8891C257.72 19.8891 257.83 20.2839 257.622 20.7665C257.359 21.3774 257.67 21.644 258.644 21.644C259.553 21.644 260.305 21.0799 260.787 20.0353C261.375 18.7648 261.589 18.6418 261.804 19.4503C261.954 20.0134 262.474 20.474 262.959 20.474C263.445 20.474 264.138 19.7501 264.501 18.8654L265.16 17.2567L265.212 19.0672C265.244 20.1693 264.76 21.2842 263.975 21.9168C263.267 22.4882 262.254 22.8079 261.725 22.6272C261.197 22.4464 260.411 22.6777 259.979 23.1412C259.547 23.6047 258.657 23.9839 258 23.9839C257.343 23.9839 256.613 23.7057 256.377 23.3657ZM198.62 20.815C201.509 19.6748 204.418 18.4553 205.086 18.105C205.753 17.7547 206.438 17.5923 206.608 17.7442C206.779 17.896 206.532 18.5722 206.059 19.2468C205.586 19.9214 203.866 20.8609 202.238 21.3347C200.609 21.8084 197.947 22.3517 196.322 22.5421C193.515 22.8708 193.631 22.7841 198.62 20.815ZM250.163 14.6693C250.163 14.4521 251.271 13.9232 252.625 13.4941C253.979 13.0649 257.82 11.5822 261.16 10.1991C264.501 8.81609 267.234 7.95002 267.234 8.27455C267.234 8.59907 266.394 9.6127 265.368 10.5271C264.342 11.4414 262.199 12.5114 260.608 12.9047C259.016 13.2981 256.014 13.9449 253.938 14.3421C251.861 14.7393 250.163 14.8865 250.163 14.6693ZM134.728 6.9234C134.005 5.90525 133.567 4.71396 133.756 4.27609C134.023 3.65503 134.305 3.6324 135.036 4.17313C135.791 4.73162 136.452 4.45036 138.434 2.72563C139.788 1.54826 141.235 0.584963 141.651 0.584963C142.066 0.584963 142.845 1.14204 143.38 1.82292C144.113 2.75594 144.186 3.38847 143.673 4.39079C143.299 5.12225 142.273 6.01297 141.393 6.37018C140.513 6.7274 138.93 7.01966 137.875 7.01966C136.439 7.01966 136.051 7.24056 136.334 7.89712C136.542 8.37973 136.562 8.77458 136.378 8.77458C136.195 8.77458 135.452 7.94155 134.729 6.92339L134.728 6.9234ZM141.442 4.32471C142.014 4.12942 142.481 3.73456 142.481 3.44725C142.481 3.15994 141.926 2.92486 141.248 2.92486C140.57 2.92486 139.648 3.31972 139.198 3.80232C138.532 4.51771 138.568 4.67978 139.392 4.67978C139.949 4.67978 140.871 4.52 141.442 4.32471ZM220.452 7.11829C219.82 6.16043 219.303 5.08328 219.303 4.72462C219.303 4.33915 219.911 4.20852 220.79 4.40513C221.886 4.6502 222.782 4.26825 224.196 2.95384C225.251 1.9727 226.591 1.16994 227.173 1.16994C227.756 1.16994 228.587 1.48583 229.02 1.87191C229.454 2.25799 229.808 3.04771 229.808 3.62683C229.808 4.20595 229.217 5.20626 228.495 5.84973C227.628 6.62241 226.306 7.01967 224.603 7.01967C222.786 7.01967 221.963 7.29128 221.813 7.93976C221.662 8.59237 221.267 8.35356 220.452 7.11829ZM228.112 4.07259C228.474 3.75756 228.256 3.3913 227.565 3.15525C226.812 2.89782 225.925 3.2183 224.993 4.08454L223.57 5.40678L225.54 5.00189C226.624 4.77919 227.781 4.36101 228.112 4.07259ZM278.888 6.378C278.257 5.39183 277.739 4.20643 277.739 3.74377C277.739 3.16182 278.198 3.00508 279.227 3.23518C280.323 3.48026 281.219 3.0983 282.633 1.7839C283.688 0.802752 285.051 0 285.661 0C286.271 0 287.136 0.391436 287.581 0.869862C288.042 1.36423 288.215 2.36701 287.982 3.19287C287.757 3.9921 287.014 4.91236 286.332 5.2379C285.649 5.56344 284.101 5.90009 282.892 5.986C281.473 6.08689 280.578 6.50148 280.366 7.15662C280.1 7.97893 279.82 7.83148 278.888 6.378ZM285.913 3.31143C287.076 2.55399 287.076 2.51449 285.918 2.1187C285.129 1.84881 284.265 2.11561 283.382 2.90208L282.044 4.09481H283.377C284.111 4.09481 285.252 3.74229 285.913 3.31143H285.913Z" fill="white"/>
</svg>
