<svg width="196" height="85" viewBox="0 0 196 85" fill="none" xmlns="http://www.w3.org/2000/svg">
<path d="M3.487 33.8714C3.6432 33.9891 3.81766 34.0783 4.01444 34.1412C4.20918 34.2041 4.41204 34.2345 4.62302 34.2345C4.82587 34.2345 5.02468 34.2041 5.21942 34.1412C5.42228 34.0783 5.6008 33.9891 5.757 33.8714C5.9132 33.7456 6.041 33.5955 6.14243 33.415C6.23574 33.2365 6.2824 33.0295 6.2824 32.7942C6.2824 32.5528 6.23574 32.3419 6.14243 32.1633C6.041 31.9848 5.9132 31.8367 5.757 31.7191C5.6008 31.6014 5.42228 31.5122 5.21942 31.4493C5.02468 31.3864 4.82587 31.356 4.62302 31.356C4.41204 31.356 4.20918 31.3864 4.01444 31.4493C3.81969 31.5122 3.6432 31.6014 3.487 31.7191C3.33892 31.8367 3.21314 31.9848 3.11171 32.1633C3.0184 32.3419 2.97174 32.5528 2.97174 32.7942C2.97174 33.0275 3.0184 33.2344 3.11171 33.415C3.21314 33.5935 3.33892 33.7456 3.487 33.8714Z" fill="white"/>
<path d="M7.48761 33.8714C7.6357 33.9891 7.80813 34.0783 8.00288 34.1412C8.19762 34.2041 8.40048 34.2345 8.61145 34.2345C8.81431 34.2345 9.01717 34.2041 9.22003 34.1412C9.41478 34.0783 9.59532 33.9891 9.75761 33.8714C9.91381 33.7456 10.0376 33.5955 10.1309 33.415C10.2242 33.2365 10.2708 33.0295 10.2708 32.7942C10.2708 32.5528 10.2242 32.3419 10.1309 32.1633C10.0376 31.9848 9.91178 31.8367 9.75761 31.7191C9.59329 31.6014 9.41478 31.5122 9.22003 31.4493C9.01717 31.3864 8.81431 31.356 8.61145 31.356C8.40048 31.356 8.19762 31.3864 8.00288 31.4493C7.80813 31.5122 7.6357 31.6014 7.48761 31.7191C7.33141 31.8367 7.20767 31.9848 7.11232 32.1633C7.01901 32.3419 6.97235 32.5528 6.97235 32.7942C6.97235 33.0275 7.01901 33.2344 7.11232 33.415C7.20767 33.5935 7.33141 33.7456 7.48761 33.8714Z" fill="white"/>
<path d="M41.3853 37.312C40.8071 36.7744 40.1093 36.3687 39.2898 36.0948C38.4783 35.8149 37.5857 35.6729 36.61 35.6729C35.6342 35.6729 34.7417 35.8128 33.9302 36.0948C33.1188 36.3829 32.4169 36.7926 31.8245 37.3241C31.2403 37.8617 30.7879 38.5169 30.4674 39.2898C30.1408 40.0627 29.9765 40.935 29.9765 41.9108V42.7891C29.9765 43.6087 29.7777 44.2295 29.3801 44.6494C28.9825 45.0794 28.4327 45.2924 27.7308 45.2924L22.1258 45.2803C21.6349 45.2803 21.1866 45.1991 20.7809 45.0348C20.3833 44.8705 20.0445 44.6413 19.7625 44.3451C19.4826 44.0489 19.2635 43.6939 19.1073 43.2801C18.9592 42.8662 18.8842 42.4098 18.8842 41.9108C18.8842 41.3955 18.9572 40.933 19.1073 40.5192C19.2635 40.1053 19.4826 39.7544 19.7625 39.4663C20.0425 39.1783 20.3833 38.9511 20.7809 38.7867C21.1866 38.6305 21.6349 38.5534 22.1258 38.5534V40.7524H25.4832V36.3747C25.2641 36.2733 25.0389 36.18 24.8036 36.0948C23.9922 35.8149 23.0996 35.6729 22.1238 35.6729C21.142 35.6729 20.2433 35.8088 19.4319 36.0826C18.6204 36.3626 17.9267 36.7723 17.3485 37.312C16.7643 37.8414 16.3119 38.4946 15.9914 39.2655C15.6648 40.0384 15.5005 40.9188 15.5005 41.9087C15.5005 42.9068 15.6648 43.7974 15.9914 44.5763C16.0928 44.8259 16.2084 45.0591 16.3423 45.2782H15.5005V45.2904C14.7905 45.2904 14.2367 45.0754 13.8391 44.6473C13.4414 44.2193 13.2426 43.5945 13.2426 42.7749V35.6729H6.62132C5.64557 35.6729 4.75705 35.8128 3.95372 36.0948C3.13417 36.3829 2.43228 36.7926 1.84805 37.3241C1.26381 37.8617 0.811437 38.5169 0.49092 39.2898C0.164316 40.0627 0 40.935 0 41.9108C0 42.9088 0.164316 43.7994 0.49092 44.5784C0.811437 45.3594 1.26381 46.0146 1.84805 46.5441C2.43431 47.0674 3.13417 47.4691 3.95372 47.7491C4.76516 48.031 5.65774 48.171 6.63349 48.171C7.60925 48.171 8.50588 48.031 9.32543 47.7491C10.0983 47.4833 10.7657 47.106 11.3256 46.6151L11.3378 46.6273C11.8125 47.1121 12.4069 47.4894 13.1169 47.7633C13.7965 48.029 14.5795 48.1649 15.468 48.173H15.5025H27.7288C28.6336 48.1649 29.4288 48.029 30.1165 47.7633C30.8184 47.4894 31.4107 47.1121 31.8955 46.6273L31.9077 46.6151C32.4777 47.106 33.1512 47.4853 33.9322 47.7491C34.7437 48.031 35.6363 48.171 36.612 48.171C37.5878 48.171 38.4804 48.031 39.2918 47.7491C40.1113 47.4691 40.8092 47.0674 41.3873 46.5441C41.9655 46.0146 42.4178 45.3594 42.7444 44.5784C43.065 43.7974 43.2232 42.9088 43.2232 41.9108C43.2232 40.9289 43.0629 40.0465 42.7444 39.2675C42.4138 38.4926 41.9614 37.8414 41.3853 37.312ZM9.87518 41.9087C9.87518 42.4078 9.7981 42.8642 9.6419 43.278C9.48569 43.7 9.27066 44.055 8.99883 44.3431C8.71889 44.6392 8.37403 44.8705 7.96831 45.0328C7.5707 45.2052 7.12644 45.2904 6.63552 45.2904C6.1588 45.2904 5.72266 45.2052 5.32505 45.0328C4.92745 44.8685 4.58462 44.6392 4.29453 44.3431C4.00647 44.055 3.77927 43.7 3.61698 43.278C3.46078 42.8642 3.38369 42.4078 3.38369 41.9087C3.38369 41.4178 3.46078 40.9695 3.61698 40.5638C3.78129 40.1581 4.00241 39.8031 4.28438 39.4988C4.56636 39.1945 4.90919 38.9612 5.31288 38.7969C5.71048 38.6326 6.14866 38.5514 6.62335 38.5514H9.88735L9.87518 41.9087ZM39.6224 43.278C39.4703 43.6919 39.2532 44.0469 38.9733 44.3431C38.6934 44.6392 38.3505 44.8705 37.9489 45.0328C37.5472 45.1971 37.1009 45.2782 36.61 45.2782C36.1333 45.2782 35.6971 45.1971 35.2995 45.0328C34.9019 44.8685 34.5591 44.6392 34.269 44.3431C33.9809 44.0469 33.7558 43.6919 33.5955 43.278C33.4352 42.8642 33.3561 42.4078 33.3561 41.9087C33.3561 41.4178 33.4352 40.9695 33.5955 40.5638C33.7558 40.1581 33.9769 39.8031 34.2568 39.4988C34.5368 39.1945 34.8816 38.9612 35.2853 38.7969C35.691 38.6326 36.1312 38.5514 36.608 38.5514C37.0989 38.5514 37.5452 38.6305 37.9468 38.7908C38.3485 38.9511 38.6873 39.1762 38.9652 39.4643C39.2411 39.7524 39.4581 40.1053 39.6143 40.5232C39.7705 40.9411 39.8476 41.4036 39.8476 41.9087C39.8517 42.4078 39.7766 42.8642 39.6224 43.278Z" fill="white"/>
<path d="M53.6115 50.2159C53.2768 49.9664 52.8893 49.8406 52.4532 49.8406C52.017 49.8406 51.6417 49.9623 51.3293 50.2037C50.9865 50.4694 50.8141 50.8244 50.8141 51.2687C50.8141 51.713 50.9865 52.072 51.3293 52.3459C51.6336 52.5954 52.0089 52.7212 52.4532 52.7212C52.8974 52.7212 53.2808 52.5954 53.5993 52.3459C53.9421 52.0801 54.1146 51.7211 54.1146 51.2687C54.1146 50.8163 53.9462 50.4654 53.6115 50.2159Z" fill="white"/>
<path d="M58.537 37.3058C57.9588 36.7723 57.263 36.3666 56.4496 36.0887C55.6341 35.8128 54.7394 35.6728 53.7637 35.6728C52.508 35.6728 51.3882 35.9061 50.4064 36.3747V40.7504H53.7637V38.5514C54.2546 38.5514 54.7009 38.6305 55.1046 38.7907C55.5063 38.951 55.8471 39.1762 56.129 39.4642C56.409 39.7523 56.626 40.1032 56.7782 40.5171C56.9303 40.9309 57.0054 41.3955 57.0054 41.9087C57.0054 42.4077 56.9303 42.8642 56.7782 43.278C56.626 43.6918 56.409 44.0468 56.129 44.343C55.8491 44.6392 55.5063 44.8704 55.1046 45.0327C54.7029 45.197 54.2566 45.2782 53.7637 45.2782H50.4064C49.7045 45.2782 49.1547 45.0672 48.7571 44.6473C48.3595 44.2193 48.1607 43.5944 48.1607 42.7749V32.8064H44.8034V42.7282C44.8034 43.5092 44.9251 44.2334 45.1665 44.9049C45.4079 45.5683 45.771 46.1403 46.2538 46.6252C46.7285 47.11 47.3189 47.4873 48.0207 47.7612C48.7145 48.0269 49.5097 48.1588 50.4084 48.1588V48.1709H53.7657C54.7415 48.1709 55.6361 48.031 56.4516 47.749C57.2671 47.4691 57.9629 47.0654 58.539 46.5379C59.1171 46.0125 59.5655 45.3573 59.89 44.5783C60.2146 43.7973 60.3749 42.9088 60.3749 41.9107C60.3749 40.9208 60.2126 40.0383 59.89 39.2675C59.5655 38.4925 59.1151 37.8393 58.537 37.3058Z" fill="white"/>
<path d="M83.1903 50.2159C82.8556 49.9664 82.4681 49.8406 82.032 49.8406C81.5938 49.8406 81.2205 49.9623 80.9081 50.2037C80.5653 50.4694 80.3929 50.8244 80.3929 51.2687C80.3929 51.713 80.5653 52.072 80.9081 52.3459C81.2124 52.5954 81.5877 52.7212 82.032 52.7212C82.4762 52.7212 82.8576 52.5954 83.1781 52.3459C83.521 52.0801 83.6934 51.7211 83.6934 51.2687C83.6934 50.8163 83.525 50.4654 83.1903 50.2159Z" fill="white"/>
<path d="M130.881 39.2655C130.552 38.4926 130.1 37.8414 129.523 37.312C128.945 36.7744 128.247 36.3687 127.428 36.0948C126.616 35.8149 125.724 35.6729 124.748 35.6729C123.772 35.6729 122.88 35.8128 122.068 36.0948C121.257 36.3829 120.555 36.7926 119.963 37.3241C119.378 37.8617 118.924 38.5169 118.606 39.2898C118.279 40.0627 118.115 40.935 118.115 41.9108V42.7891C118.115 43.6087 117.916 44.2295 117.518 44.6494C117.135 45.0632 116.605 45.2742 115.938 45.2884C115.914 45.2884 115.893 45.2823 115.869 45.2823C115.167 45.2823 114.617 45.0713 114.22 44.6514C113.822 44.2234 113.623 43.5986 113.623 42.779V38.5676H115.005V35.685H110.29V42.635C110.29 43.556 110.079 44.2254 109.657 44.6473C109.244 45.0693 108.698 45.2782 108.02 45.2782C107.31 45.2782 106.748 45.0673 106.337 44.6473C105.923 44.2254 105.716 43.5478 105.716 42.6127V38.5636H107.166V35.685H102.379V42.635C102.379 43.556 102.168 44.2254 101.748 44.6473C101.334 45.0693 100.788 45.2782 100.111 45.2782C99.409 45.2782 98.8471 45.0673 98.4271 44.6473C98.0133 44.2254 97.8064 43.5478 97.8064 42.6127V38.5636H99.2568V35.685H94.4714V42.7749C94.4714 43.5945 94.2726 44.2193 93.875 44.6473C93.4774 45.0693 92.9236 45.2782 92.2136 45.2782C91.5036 45.2782 90.9498 45.0673 90.5521 44.6473C90.1545 44.2193 89.9557 43.5945 89.9557 42.7749V41.9087C89.9557 40.9188 89.7955 40.0363 89.475 39.2655C89.1484 38.4926 88.694 37.8374 88.1178 37.2998C87.5397 36.7703 86.8459 36.3646 86.0345 36.0826C85.2149 35.8088 84.3183 35.6729 83.3425 35.6729C82.3668 35.6729 81.4742 35.8128 80.6628 36.0948C80.4295 36.18 80.2023 36.2753 79.9852 36.3747V40.7504H83.3425V38.5514C83.8335 38.5514 84.2797 38.6285 84.6774 38.7847C85.0831 38.949 85.4259 39.1742 85.7079 39.4643C85.9878 39.7524 86.2029 40.1033 86.3509 40.5171C86.5071 40.931 86.5842 41.3955 86.5842 41.9087C86.5842 42.4078 86.5071 42.8642 86.3509 43.278C86.2029 43.6919 85.9878 44.0469 85.7079 44.3431C85.4259 44.6392 85.0831 44.8705 84.6774 45.0328C84.2797 45.1971 83.8355 45.2782 83.3425 45.2782H79.9832C79.2813 45.2782 78.7315 45.0673 78.3339 44.6473C77.9363 44.2193 77.7375 43.5945 77.7375 42.7749V41.9209C77.7375 40.9228 77.5732 40.0323 77.2466 39.2533C76.9261 38.4743 76.4737 37.8232 75.8895 37.2998C75.3113 36.7703 74.6176 36.3646 73.8061 36.0826C72.9947 35.8088 72.0981 35.6729 71.1142 35.6729H68.903V38.5514H71.1264C71.6092 38.5514 72.0534 38.6326 72.4591 38.7969C72.8649 38.9612 73.2036 39.1904 73.4775 39.4866C73.7574 39.7828 73.9765 40.1378 74.1327 40.5516C74.2808 40.9654 74.3559 41.4219 74.3559 41.9209C74.3559 42.4362 74.2808 42.9007 74.1327 43.3125C73.9765 43.7264 73.7574 44.0773 73.4775 44.3654C73.2057 44.6615 72.8649 44.8887 72.4591 45.0449C72.0534 45.2011 71.6092 45.2782 71.1264 45.2782H66.6797V48.169H71.1142C72.0981 48.169 72.9947 48.029 73.8061 47.747C74.579 47.4813 75.2464 47.0999 75.8063 46.6009L75.8307 46.6232C76.3074 47.108 76.8957 47.4853 77.5976 47.7592C78.2771 48.0249 79.0602 48.1609 79.9507 48.169H79.9852H83.3425C84.3183 48.169 85.2149 48.029 86.0345 47.747C86.8074 47.4813 87.4727 47.104 88.0347 46.613L88.0468 46.6252C88.5236 47.1101 89.1159 47.4874 89.8259 47.7612C90.5035 48.027 91.2885 48.1629 92.1771 48.171H92.2115C92.2906 48.171 92.3637 48.1609 92.4387 48.1507C93.2481 48.1284 93.9724 48.0006 94.5992 47.7491C95.1773 47.53 95.6764 47.2419 96.0963 46.8828C96.5649 47.2967 97.1106 47.6091 97.7334 47.818C98.4271 48.0452 99.2203 48.1568 100.109 48.1568C100.983 48.1568 101.766 48.0351 102.46 47.7937C103.06 47.5827 103.584 47.2865 104.028 46.9052C104.48 47.3028 105.018 47.6071 105.643 47.818C106.337 48.0452 107.128 48.1568 108.018 48.1568C108.893 48.1568 109.676 48.0351 110.369 47.7937C110.986 47.5746 111.52 47.2683 111.972 46.8687C112.402 47.2358 112.903 47.5279 113.481 47.747C114.175 48.0209 114.97 48.1568 115.869 48.1568V48.169C116.774 48.1609 117.569 48.0249 118.257 47.7592C118.959 47.4853 119.551 47.108 120.036 46.6232L120.048 46.611C120.618 47.1019 121.291 47.4813 122.072 47.745C122.884 48.027 123.776 48.1669 124.752 48.1669C125.728 48.1669 126.62 48.027 127.432 47.745C128.251 47.465 128.949 47.0634 129.527 46.54C130.104 46.0105 130.556 45.3553 130.885 44.5743C131.205 43.7933 131.365 42.9048 131.365 41.9067C131.361 40.9269 131.201 40.0445 130.881 39.2655ZM127.763 43.278C127.61 43.6919 127.393 44.0469 127.113 44.3431C126.833 44.6392 126.491 44.8705 126.089 45.0328C125.687 45.1971 125.241 45.2782 124.75 45.2782C124.273 45.2782 123.837 45.1971 123.44 45.0328C123.042 44.8685 122.699 44.6392 122.409 44.3431C122.121 44.0469 121.896 43.6919 121.736 43.278C121.575 42.8642 121.496 42.4078 121.496 41.9087C121.496 41.4178 121.575 40.9695 121.736 40.5638C121.896 40.1581 122.115 39.8031 122.397 39.4988C122.679 39.1945 123.022 38.9612 123.427 38.7969C123.833 38.6326 124.273 38.5514 124.75 38.5514C125.241 38.5514 125.687 38.6305 126.089 38.7908C126.491 38.9511 126.829 39.1762 127.107 39.4643C127.383 39.7524 127.6 40.1053 127.757 40.5232C127.913 40.9411 127.99 41.4036 127.99 41.9087C127.992 42.4078 127.915 42.8642 127.763 43.278Z" fill="white"/>
<path d="M49.727 66.1584H50.8853V72.6174C50.8853 73.437 50.6865 74.0577 50.2889 74.4837C49.8913 74.9077 49.3415 75.1207 48.6396 75.1207V77.9993C49.5444 77.9912 50.3437 77.8532 51.0374 77.5834C51.7312 77.3136 52.3195 76.9383 52.7983 76.4555C53.279 75.9707 53.6381 75.3986 53.8815 74.7353C54.1229 74.0719 54.2446 73.3477 54.2446 72.5586V63.8296H49.729V66.1584H49.727Z" fill="white"/>
<path d="M58.9709 58.0623H55.8225V73.4349H60.1637V70.5584H58.9709V58.0623Z" fill="white"/>
<path d="M73.1448 62.5839C72.5646 62.0504 71.8668 61.6447 71.0574 61.3668C70.2459 61.0909 69.3534 60.9509 68.3776 60.9509C67.3937 60.9509 66.4971 61.0909 65.6857 61.3729C64.8742 61.6528 64.1764 62.0606 63.5922 62.5961C63.0079 63.1296 62.5515 63.7849 62.2289 64.5618C61.9044 65.3388 61.7441 66.2131 61.7441 67.1888C61.7441 68.1869 61.9064 69.0775 62.2289 69.8564C62.5535 70.6374 63.0079 71.2907 63.5922 71.8161C64.1764 72.3435 64.8742 72.7452 65.6857 73.0271C66.4971 73.3091 67.3937 73.4491 68.3776 73.4491C69.5866 73.4491 70.6659 73.234 71.6193 72.806C71.5808 73.4917 71.386 74.0232 71.0351 74.3964C70.6375 74.8245 70.0837 75.0395 69.3736 75.0395V77.9769C70.2784 77.9688 71.0797 77.8308 71.7775 77.561C72.4754 77.2912 73.0637 76.9159 73.5383 76.4331C74.0151 75.9483 74.3741 75.3742 74.6216 74.7068C74.8671 74.0394 74.9908 73.3172 74.9908 72.5362V67.1888C74.9908 66.1989 74.8285 65.3165 74.506 64.5456C74.1794 63.7707 73.727 63.1175 73.1448 62.5839ZM71.3779 68.5561C71.2257 68.9699 71.0107 69.325 70.7348 69.6211C70.4589 69.9173 70.1161 70.1486 69.7104 70.3109C69.3047 70.4752 68.8564 70.5563 68.3654 70.5563C67.8887 70.5563 67.4526 70.4752 67.055 70.3109C66.6574 70.1465 66.3145 69.9173 66.0244 69.6211C65.7364 69.325 65.5112 68.9699 65.3509 68.5561C65.1907 68.1423 65.1116 67.6858 65.1116 67.1868C65.1116 66.6959 65.1907 66.2456 65.3509 65.8358C65.5112 65.426 65.7323 65.071 66.0184 64.7708C66.3024 64.4705 66.6452 64.2393 67.0469 64.075C67.4485 63.9106 67.8907 63.8295 68.3756 63.8295C68.8584 63.8295 69.3047 63.9086 69.7104 64.0689C70.1161 64.2291 70.4569 64.4543 70.7348 64.7424C71.0107 65.0304 71.2257 65.3814 71.3779 65.7952C71.53 66.209 71.6071 66.6736 71.6071 67.1868C71.6071 67.6879 71.53 68.1443 71.3779 68.5561Z" fill="white"/>
<path d="M80.3363 62.3913C80.7806 62.3913 81.1619 62.2696 81.4825 62.0282C81.8253 61.7563 81.9977 61.3932 81.9977 60.9408C81.9977 60.4885 81.8294 60.1375 81.4946 59.888C81.1599 59.6385 80.7725 59.5127 80.3363 59.5127C79.8981 59.5127 79.5249 59.6344 79.2125 59.8758C78.8696 60.1416 78.6972 60.4966 78.6972 60.9408C78.6972 61.3851 78.8696 61.7482 79.2125 62.0282C79.5168 62.2696 79.89 62.3913 80.3363 62.3913Z" fill="white"/>
<path d="M86.6775 68.0532C86.6775 68.8727 86.4787 69.4975 86.0811 69.9256C85.6835 70.3556 85.1297 70.5686 84.4197 70.5686C83.7178 70.5686 83.168 70.3536 82.7704 69.9256C82.3728 69.4975 82.174 68.8727 82.174 68.0532V63.8297H77.6564V66.1585H78.8147V72.6175C78.8147 73.4371 78.6159 74.0578 78.2183 74.4777C77.8207 74.9058 77.2709 75.1208 76.569 75.1208V77.9994C77.4738 77.9912 78.269 77.8553 78.9567 77.5896C79.6586 77.3157 80.2469 76.9384 80.7236 76.4556C81.2064 75.9708 81.5695 75.3987 81.8109 74.7354C81.9975 74.2201 82.1111 73.6703 82.1497 73.0861C82.8049 73.3194 83.5494 73.4411 84.3852 73.4492H84.4197C85.3244 73.4411 86.1257 73.3032 86.8236 73.0334C87.5214 72.7636 88.1077 72.3883 88.5844 71.9034C89.0591 71.4206 89.4202 70.8445 89.6676 70.1771C89.9131 69.5097 90.0368 68.7875 90.0368 68.0065V58.0725H86.6775V68.0532Z" fill="white"/>
<path d="M94.7613 58.0623H91.6149V73.4349H95.9561V70.5584H94.7613V58.0623Z" fill="white"/>
<path d="M112.465 67.9131C112.465 68.834 112.258 69.5035 111.844 69.9254C111.43 70.3474 110.885 70.5563 110.205 70.5563H107.901C107.199 70.5563 106.639 70.3453 106.221 69.9254C105.803 69.5035 105.596 68.8259 105.596 67.8907V63.8315H102.261V67.8907C102.261 69.7083 102.76 71.0919 103.758 72.0453C104.734 72.9724 106.113 73.4369 107.901 73.4369H110.205C111.079 73.4369 111.86 73.3152 112.552 73.0738C113.242 72.8324 113.834 72.4754 114.325 72.0027C114.816 71.53 115.187 70.9539 115.437 70.2703C115.686 69.5887 115.812 68.8016 115.812 67.9131V63.8295H117.194V60.9509H112.467V67.9131H112.465Z" fill="white"/>
<path d="M110.195 75.4898C109.86 75.2362 109.477 75.1084 109.049 75.1084C108.605 75.1084 108.225 75.2301 107.915 75.4715C107.572 75.7373 107.4 76.0963 107.4 76.5487C107.4 76.9849 107.572 77.3439 107.915 77.6259C108.219 77.8673 108.597 77.989 109.049 77.989C109.485 77.989 109.864 77.8673 110.185 77.6259C110.528 77.352 110.7 76.995 110.7 76.5487C110.698 76.0963 110.53 75.7433 110.195 75.4898Z" fill="white"/>
<path d="M126.647 62.3913L126.635 67.903C126.635 68.824 126.428 69.4934 126.014 69.9154C125.6 70.3373 125.055 70.5463 124.375 70.5463V70.5584C123.673 70.5584 123.124 70.3475 122.726 69.9276C122.328 69.4995 122.13 68.8747 122.13 68.0552V58.0867H118.772V68.0085C118.772 68.7895 118.894 69.5137 119.135 70.1852C119.377 70.8485 119.74 71.4206 120.223 71.9054C120.697 72.3903 121.288 72.7676 121.99 73.0414C122.683 73.3072 123.479 73.439 124.375 73.439C124.485 73.439 124.588 73.4269 124.69 73.4046C126.29 73.3478 127.566 72.8893 128.495 71.9947C129.485 71.0392 129.98 69.676 129.98 67.905V65.2719H131.362V62.3934H126.647V62.3913Z" fill="white"/>
<path d="M125.55 75.4959C125.215 75.2464 124.827 75.1206 124.391 75.1206C123.955 75.1206 123.576 75.2423 123.257 75.4837C122.923 75.7495 122.754 76.1045 122.754 76.5487C122.754 76.993 122.921 77.3521 123.257 77.6259C123.57 77.8754 123.947 78.0012 124.391 78.0012C124.827 78.0012 125.207 77.8754 125.527 77.6259C125.878 77.3521 126.055 76.995 126.055 76.5487C126.053 76.0964 125.884 75.7454 125.55 75.4959Z" fill="white"/>
<path d="M191.929 78.0035V85.0001H166.6V42.2029C166.6 35.6485 168.909 29.4451 173.083 24.686C175.345 22.0975 178.005 19.8823 181.038 18.0383C182.624 19.7647 184.139 21.631 185.421 23.5906C182.671 25.1526 180.291 27.0656 178.331 29.3274C175.276 32.7801 173.597 37.3505 173.597 42.2029V78.0035H191.929Z" fill="white"/>
<path d="M195.1 85H188.103V31.3539C188.103 29.2705 187.586 27.2562 186.608 25.5298C182.222 17.7826 173.964 11.1877 170.233 8.45517C166.501 11.1938 158.228 17.8049 153.854 25.5298C152.877 27.2562 152.359 29.2705 152.359 31.3539V85H145.363V31.3539C145.363 28.0635 146.194 24.8584 147.765 22.0812C154.347 10.4554 167.75 1.62085 168.316 1.24961L170.229 0L172.142 1.24961C172.71 1.61882 186.111 10.4554 192.694 22.0812C194.266 24.8563 195.096 28.0635 195.096 31.3539V85H195.1Z" fill="white"/>
</svg>
