<svg width="285" height="215" viewBox="0 0 285 215" fill="none" xmlns="http://www.w3.org/2000/svg">
<path d="M142.212 0L131.273 6.96638C128.394 9.28895 51.8177 60.3794 13.819 127.145C5.18196 143.401 0 161.979 0 180.557V245H40.3036V180.557C40.3036 168.946 43.1825 157.334 48.9383 146.884C73.6977 102.761 120.908 64.4432 142.212 48.7677C156.607 59.2181 181.364 78.9573 204.394 103.922C187.122 114.759 171.959 127.532 158.909 142.239C134.726 169.526 122.062 205.522 122.062 243.259V245H161.788V243.259C161.788 215.392 171.576 189.265 188.848 168.945C200.364 156.173 213.798 145.142 229.151 135.853C231.838 139.724 234.141 143.594 236.06 147.465C241.818 157.335 244.697 168.946 244.697 180.557V245H285V180.557L284.982 180.558C284.982 161.98 279.798 143.401 271.163 127.145C269.627 124.436 267.899 121.726 265.98 119.017C257.92 105.664 247.558 92.3106 237.193 80.6991C233.739 76.6351 230.86 73.7329 227.405 70.2493C227.028 69.8621 226.839 69.4747 226.839 69.0874C223.768 65.9913 220.889 63.0889 218.202 60.3794C211.677 54.1868 205.343 48.381 199.202 42.9623C197.666 41.4145 196.13 40.0594 194.595 38.8978C191.141 35.8015 187.495 32.8991 183.656 30.1898C180.585 27.4804 177.515 24.9648 174.445 22.6426C167.536 16.8367 161.778 12.7723 157.747 10.45C156.597 9.28897 155.638 8.51541 154.869 8.12816C154.1 7.7411 153.527 7.35345 153.15 6.96638L142.212 0Z" fill="url(#paint0_linear_1_295)" fill-opacity="0.65"/>
<defs>
<linearGradient id="paint0_linear_1_295" x1="142.5" y1="-0.000370395" x2="142.5" y2="245" gradientUnits="userSpaceOnUse">
<stop stop-color="#50C3B1" stop-opacity="0.25"/>
<stop offset="1" stop-color="#50C3B1" stop-opacity="0"/>
</linearGradient>
</defs>
</svg>
