<svg width="83" height="37" viewBox="0 0 83 37" fill="none" xmlns="http://www.w3.org/2000/svg">
<path d="M1.47803 14.3562C1.54424 14.4061 1.61818 14.4439 1.70159 14.4706C1.78413 14.4972 1.87011 14.5101 1.95953 14.5101C2.04551 14.5101 2.12977 14.4972 2.21231 14.4706C2.29829 14.4439 2.37395 14.4061 2.44016 14.3562C2.50636 14.3029 2.56053 14.2393 2.60352 14.1627C2.64307 14.0871 2.66285 13.9994 2.66285 13.8996C2.66285 13.7973 2.64307 13.7079 2.60352 13.6322C2.56053 13.5566 2.50636 13.4938 2.44016 13.4439C2.37395 13.3941 2.29829 13.3562 2.21231 13.3296C2.12977 13.3029 2.04551 13.29 1.95953 13.29C1.87011 13.29 1.78413 13.3029 1.70159 13.3296C1.61904 13.3562 1.54424 13.3941 1.47803 13.4439C1.41527 13.4938 1.36196 13.5566 1.31897 13.6322C1.27942 13.7079 1.25964 13.7973 1.25964 13.8996C1.25964 13.9985 1.27942 14.0862 1.31897 14.1627C1.36196 14.2384 1.41527 14.3029 1.47803 14.3562Z" fill="white"/>
<path d="M3.17347 14.3562C3.23624 14.4061 3.30932 14.4439 3.39186 14.4706C3.4744 14.4972 3.56038 14.5101 3.6498 14.5101C3.73578 14.5101 3.82176 14.4972 3.90774 14.4706C3.99029 14.4439 4.06681 14.4061 4.13559 14.3562C4.2018 14.3029 4.25425 14.2393 4.2938 14.1627C4.33335 14.0871 4.35312 13.9994 4.35312 13.8996C4.35312 13.7973 4.33335 13.7079 4.2938 13.6322C4.25425 13.5566 4.20094 13.4938 4.13559 13.4439C4.06595 13.3941 3.99029 13.3562 3.90774 13.3296C3.82176 13.3029 3.73578 13.29 3.6498 13.29C3.56038 13.29 3.4744 13.3029 3.39186 13.3296C3.30932 13.3562 3.23624 13.3941 3.17347 13.4439C3.10726 13.4938 3.05482 13.5566 3.01441 13.6322C2.97485 13.7079 2.95508 13.7973 2.95508 13.8996C2.95508 13.9985 2.97485 14.0862 3.01441 14.1627C3.05482 14.2384 3.10726 14.3029 3.17347 14.3562Z" fill="white"/>
<path d="M17.5409 15.8144C17.2959 15.5865 17.0001 15.4145 16.6527 15.2985C16.3088 15.1798 15.9305 15.1196 15.5169 15.1196C15.1034 15.1196 14.7251 15.179 14.3811 15.2985C14.0372 15.4206 13.7397 15.5942 13.4887 15.8195C13.241 16.0474 13.0493 16.3251 12.9134 16.6527C12.775 16.9803 12.7054 17.35 12.7054 17.7635V18.1358C12.7054 18.4832 12.6211 18.7463 12.4526 18.9243C12.2841 19.1066 12.0511 19.1968 11.7536 19.1968L9.37792 19.1917C9.16984 19.1917 8.97983 19.1573 8.80786 19.0876C8.63934 19.018 8.49575 18.9208 8.37624 18.7953C8.25759 18.6698 8.16473 18.5193 8.09852 18.3439C8.03576 18.1685 8.00395 17.9751 8.00395 17.7635C8.00395 17.5451 8.0349 17.3491 8.09852 17.1737C8.16473 16.9983 8.25759 16.8496 8.37624 16.7275C8.49489 16.6054 8.63934 16.5091 8.80786 16.4394C8.97983 16.3732 9.16984 16.3406 9.37792 16.3406V17.2726H10.8009V15.4171C10.708 15.3741 10.6126 15.3346 10.5129 15.2985C10.1689 15.1798 9.79062 15.1196 9.37706 15.1196C8.96091 15.1196 8.58002 15.1772 8.23609 15.2933C7.89217 15.412 7.59812 15.5856 7.35307 15.8144C7.10545 16.0388 6.91371 16.3156 6.77786 16.6423C6.63943 16.9699 6.56979 17.3431 6.56979 17.7627C6.56979 18.1857 6.63943 18.5632 6.77786 18.8933C6.82085 18.9991 6.86986 19.098 6.92661 19.1908H6.56979V19.196C6.26885 19.196 6.03413 19.1048 5.8656 18.9234C5.69708 18.742 5.61282 18.4772 5.61282 18.1298V15.1196H2.80641C2.39284 15.1196 2.01625 15.179 1.67576 15.2985C1.3284 15.4206 1.03091 15.5942 0.783285 15.8195C0.53566 16.0474 0.343923 16.3251 0.208073 16.6527C0.0696445 16.9803 0 17.35 0 17.7635C0 18.1866 0.0696445 18.564 0.208073 18.8942C0.343923 19.2252 0.53566 19.5029 0.783285 19.7273C1.03177 19.9492 1.3284 20.1194 1.67576 20.2381C2.01969 20.3576 2.398 20.4169 2.81157 20.4169C3.22514 20.4169 3.60517 20.3576 3.95253 20.2381C4.28012 20.1254 4.563 19.9655 4.8003 19.7574L4.80546 19.7626C5.00666 19.9681 5.25858 20.128 5.55951 20.2441C5.84755 20.3567 6.17943 20.4143 6.55603 20.4178H6.57065H11.7527C12.1362 20.4143 12.4732 20.3567 12.7647 20.2441C13.0622 20.128 13.3133 19.9681 13.5187 19.7626L13.5239 19.7574C13.7655 19.9655 14.051 20.1263 14.382 20.2381C14.7259 20.3576 15.1042 20.4169 15.5178 20.4169C15.9314 20.4169 16.3097 20.3576 16.6536 20.2381C17.001 20.1194 17.2967 19.9492 17.5418 19.7273C17.7868 19.5029 17.9786 19.2252 18.117 18.8942C18.2528 18.5632 18.3199 18.1866 18.3199 17.7635C18.3199 17.3474 18.252 16.9734 18.117 16.6432C17.9768 16.3148 17.7851 16.0388 17.5409 15.8144ZM4.18554 17.7627C4.18554 17.9742 4.15287 18.1676 4.08666 18.343C4.02046 18.5219 3.92932 18.6724 3.8141 18.7944C3.69545 18.92 3.54928 19.018 3.37732 19.0868C3.2088 19.1599 3.0205 19.196 2.81243 19.196C2.61037 19.196 2.42552 19.1599 2.25699 19.0868C2.08847 19.0171 1.94316 18.92 1.82021 18.7944C1.69812 18.6724 1.60182 18.5219 1.53304 18.343C1.46683 18.1676 1.43416 17.9742 1.43416 17.7627C1.43416 17.5546 1.46683 17.3646 1.53304 17.1926C1.60268 17.0207 1.6964 16.8702 1.81591 16.7412C1.93543 16.6123 2.08073 16.5134 2.25183 16.4437C2.42036 16.3741 2.60608 16.3397 2.80727 16.3397H4.1907L4.18554 17.7627ZM16.7938 18.343C16.7293 18.5184 16.6373 18.6689 16.5186 18.7944C16.4 18.92 16.2547 19.018 16.0844 19.0868C15.9142 19.1564 15.725 19.1908 15.5169 19.1908C15.3149 19.1908 15.13 19.1564 14.9615 19.0868C14.793 19.0171 14.6477 18.92 14.5247 18.7944C14.4026 18.6689 14.3072 18.5184 14.2393 18.343C14.1713 18.1676 14.1378 17.9742 14.1378 17.7627C14.1378 17.5546 14.1713 17.3646 14.2393 17.1926C14.3072 17.0207 14.4009 16.8702 14.5196 16.7412C14.6382 16.6123 14.7844 16.5134 14.9555 16.4437C15.1274 16.3741 15.314 16.3397 15.5161 16.3397C15.7242 16.3397 15.9133 16.3732 16.0836 16.4412C16.2538 16.5091 16.3974 16.6045 16.5152 16.7266C16.6321 16.8487 16.7241 16.9983 16.7903 17.1754C16.8565 17.3525 16.8892 17.5486 16.8892 17.7627C16.8909 17.9742 16.8591 18.1676 16.7938 18.343Z" fill="white"/>
<path d="M22.7229 21.2836C22.581 21.1778 22.4168 21.1245 22.232 21.1245C22.0471 21.1245 21.888 21.1761 21.7556 21.2784C21.6103 21.3911 21.5372 21.5415 21.5372 21.7298C21.5372 21.9181 21.6103 22.0703 21.7556 22.1864C21.8846 22.2921 22.0437 22.3454 22.232 22.3454C22.4203 22.3454 22.5828 22.2921 22.7177 22.1864C22.8631 22.0737 22.9361 21.9216 22.9361 21.7298C22.9361 21.5381 22.8648 21.3893 22.7229 21.2836Z" fill="white"/>
<path d="M24.8105 15.8116C24.5655 15.5855 24.2706 15.4135 23.9258 15.2957C23.5801 15.1788 23.201 15.1194 22.7874 15.1194C22.2552 15.1194 21.7806 15.2183 21.3644 15.4169V17.2715H22.7874V16.3395C22.9955 16.3395 23.1846 16.373 23.3557 16.441C23.526 16.5089 23.6704 16.6043 23.7899 16.7264C23.9086 16.8485 24.0006 16.9973 24.0651 17.1727C24.1296 17.3481 24.1614 17.545 24.1614 17.7625C24.1614 17.974 24.1296 18.1675 24.0651 18.3429C24.0006 18.5183 23.9086 18.6687 23.7899 18.7943C23.6713 18.9198 23.526 19.0178 23.3557 19.0866C23.1855 19.1562 22.9963 19.1906 22.7874 19.1906H21.3644C21.0669 19.1906 20.8339 19.1012 20.6654 18.9232C20.4969 18.7418 20.4126 18.477 20.4126 18.1296V13.9045H18.9896V18.1099C18.9896 18.4409 19.0412 18.7478 19.1435 19.0324C19.2458 19.3136 19.3998 19.5561 19.6044 19.7615C19.8056 19.967 20.0558 20.127 20.3533 20.243C20.6473 20.3557 20.9844 20.4116 21.3653 20.4116V20.4167H22.7883C23.2018 20.4167 23.581 20.3574 23.9266 20.2379C24.2723 20.1192 24.5672 19.9481 24.8114 19.7246C25.0564 19.5019 25.2464 19.2242 25.384 18.894C25.5216 18.563 25.5895 18.1864 25.5895 17.7634C25.5895 17.3438 25.5207 16.9698 25.384 16.643C25.2464 16.3146 25.0556 16.0377 24.8105 15.8116Z" fill="white"/>
<path d="M35.2598 21.2836C35.1179 21.1778 34.9537 21.1245 34.7688 21.1245C34.5831 21.1245 34.4249 21.1761 34.2925 21.2784C34.1472 21.3911 34.0741 21.5415 34.0741 21.7298C34.0741 21.9181 34.1472 22.0703 34.2925 22.1864C34.4215 22.2921 34.5805 22.3454 34.7688 22.3454C34.9571 22.3454 35.1188 22.2921 35.2546 22.1864C35.3999 22.0737 35.473 21.9216 35.473 21.7298C35.473 21.5381 35.4016 21.3893 35.2598 21.2836Z" fill="white"/>
<path d="M55.473 16.6423C55.3337 16.3148 55.142 16.0388 54.8978 15.8144C54.6528 15.5865 54.357 15.4145 54.0096 15.2985C53.6657 15.1798 53.2874 15.1196 52.8738 15.1196C52.4603 15.1196 52.0819 15.179 51.738 15.2985C51.3941 15.4206 51.0966 15.5942 50.8455 15.8195C50.5979 16.0474 50.4053 16.3251 50.2703 16.6527C50.1319 16.9803 50.0623 17.35 50.0623 17.7635V18.1358C50.0623 18.4832 49.978 18.7463 49.8095 18.9243C49.647 19.0997 49.4226 19.1891 49.1397 19.1951C49.1294 19.1951 49.1208 19.1925 49.1104 19.1925C48.813 19.1925 48.5799 19.1031 48.4114 18.9251C48.2429 18.7437 48.1586 18.4789 48.1586 18.1315V16.3466H48.7442V15.1248H46.746V18.0705C46.746 18.4608 46.6566 18.7446 46.4777 18.9234C46.3023 19.1023 46.071 19.1908 45.7838 19.1908C45.4829 19.1908 45.2448 19.1014 45.0702 18.9234C44.8948 18.7446 44.8071 18.4574 44.8071 18.061V16.3449H45.4219V15.1248H43.3927V18.0705C43.3927 18.4608 43.3033 18.7446 43.1253 18.9234C42.9499 19.1023 42.7186 19.1908 42.4315 19.1908C42.134 19.1908 41.8958 19.1014 41.7178 18.9234C41.5424 18.7446 41.4547 18.4574 41.4547 18.061V16.3449H42.0695V15.1248H40.0412V18.1298C40.0412 18.4772 39.9569 18.742 39.7884 18.9234C39.6199 19.1023 39.3852 19.1908 39.0842 19.1908C38.7833 19.1908 38.5486 19.1014 38.3801 18.9234C38.2115 18.742 38.1273 18.4772 38.1273 18.1298V17.7627C38.1273 17.3431 38.0593 16.9691 37.9235 16.6423C37.7851 16.3148 37.5925 16.037 37.3483 15.8092C37.1032 15.5848 36.8092 15.4128 36.4653 15.2933C36.1179 15.1772 35.7379 15.1196 35.3243 15.1196C34.9107 15.1196 34.5324 15.179 34.1885 15.2985C34.0896 15.3346 33.9933 15.375 33.9013 15.4171V17.2717H35.3243V16.3397C35.5324 16.3397 35.7215 16.3724 35.8901 16.4386C36.062 16.5082 36.2073 16.6037 36.3268 16.7266C36.4455 16.8487 36.5366 16.9974 36.5994 17.1728C36.6656 17.3482 36.6983 17.5451 36.6983 17.7627C36.6983 17.9742 36.6656 18.1676 36.5994 18.343C36.5366 18.5184 36.4455 18.6689 36.3268 18.7944C36.2073 18.92 36.062 19.018 35.8901 19.0868C35.7215 19.1564 35.5332 19.1908 35.3243 19.1908H33.9005C33.603 19.1908 33.37 19.1014 33.2014 18.9234C33.0329 18.742 32.9486 18.4772 32.9486 18.1298V17.7678C32.9486 17.3448 32.879 16.9674 32.7406 16.6372C32.6047 16.307 32.413 16.031 32.1654 15.8092C31.9203 15.5848 31.6263 15.4128 31.2823 15.2933C30.9384 15.1772 30.5584 15.1196 30.1414 15.1196H29.2042V16.3397H30.1465C30.3512 16.3397 30.5395 16.3741 30.7114 16.4437C30.8834 16.5134 31.027 16.6105 31.1431 16.7361C31.2617 16.8616 31.3546 17.0121 31.4208 17.1875C31.4835 17.3629 31.5154 17.5563 31.5154 17.7678C31.5154 17.9862 31.4835 18.1831 31.4208 18.3577C31.3546 18.5331 31.2617 18.6818 31.1431 18.8039C31.0278 18.9294 30.8834 19.0257 30.7114 19.0919C30.5395 19.1581 30.3512 19.1908 30.1465 19.1908H28.2618V20.416H30.1414C30.5584 20.416 30.9384 20.3567 31.2823 20.2372C31.6099 20.1246 31.8928 19.9629 32.1301 19.7514L32.1404 19.7609C32.3425 19.9664 32.5918 20.1263 32.8893 20.2424C33.1774 20.355 33.5092 20.4126 33.8867 20.416H33.9013H35.3243C35.7379 20.416 36.1179 20.3567 36.4653 20.2372C36.7928 20.1246 37.0749 19.9646 37.313 19.7566L37.3182 19.7617C37.5202 19.9672 37.7713 20.1271 38.0722 20.2432C38.3594 20.3559 38.6922 20.4135 39.0688 20.4169H39.0834C39.1169 20.4169 39.1479 20.4126 39.1797 20.4083C39.5227 20.3988 39.8297 20.3447 40.0954 20.2381C40.3404 20.1452 40.5519 20.0231 40.7299 19.8709C40.9285 20.0463 41.1598 20.1787 41.4238 20.2673C41.7178 20.3636 42.054 20.4109 42.4306 20.4109C42.8012 20.4109 43.1331 20.3593 43.4271 20.257C43.6816 20.1676 43.9035 20.042 44.0918 19.8804C44.2835 20.0489 44.5113 20.1779 44.7762 20.2673C45.0702 20.3636 45.4055 20.4109 45.783 20.4109C46.1536 20.4109 46.4855 20.3593 46.7795 20.257C47.0409 20.1641 47.267 20.0343 47.4588 19.8649C47.641 20.0205 47.8534 20.1443 48.0985 20.2372C48.3925 20.3533 48.7295 20.4109 49.1104 20.4109V20.416C49.4939 20.4126 49.831 20.355 50.1224 20.2424C50.4199 20.1263 50.671 19.9664 50.8765 19.7609L50.8817 19.7557C51.1233 19.9638 51.4087 20.1246 51.7397 20.2363C52.0837 20.3559 52.462 20.4152 52.8755 20.4152C53.2891 20.4152 53.6674 20.3559 54.0113 20.2363C54.3587 20.1177 54.6545 19.9474 54.8995 19.7256C55.1437 19.5012 55.3355 19.2235 55.4747 18.8925C55.6106 18.5614 55.6785 18.1848 55.6785 17.7618C55.6768 17.3465 55.6089 16.9725 55.473 16.6423ZM54.1515 18.343C54.087 18.5184 53.995 18.6689 53.8764 18.7944C53.7577 18.92 53.6124 19.018 53.4422 19.0868C53.2719 19.1564 53.0828 19.1908 52.8747 19.1908C52.6726 19.1908 52.4878 19.1564 52.3192 19.0868C52.1507 19.0171 52.0054 18.92 51.8825 18.7944C51.7604 18.6689 51.6649 18.5184 51.597 18.343C51.5291 18.1676 51.4955 17.9742 51.4955 17.7627C51.4955 17.5546 51.5291 17.3646 51.597 17.1926C51.6649 17.0207 51.7578 16.8702 51.8773 16.7412C51.9968 16.6123 52.1421 16.5134 52.3141 16.4437C52.486 16.3741 52.6726 16.3397 52.8747 16.3397C53.0828 16.3397 53.2719 16.3732 53.4422 16.4412C53.6124 16.5091 53.756 16.6045 53.8738 16.7266C53.9907 16.8487 54.0827 16.9983 54.1489 17.1754C54.2151 17.3525 54.2478 17.5486 54.2478 17.7627C54.2487 17.9742 54.216 18.1676 54.1515 18.343Z" fill="white"/>
<path d="M21.0763 28.0408H21.5673V30.7784C21.5673 31.1258 21.483 31.3889 21.3145 31.5694C21.146 31.7491 20.913 31.8394 20.6155 31.8394V33.0595C20.999 33.056 21.3377 32.9976 21.6318 32.8832C21.9258 32.7688 22.1752 32.6098 22.3781 32.4051C22.5819 32.1997 22.734 31.9572 22.8372 31.676C22.9395 31.3949 22.9911 31.0879 22.9911 30.7535V27.0537H21.0772V28.0408H21.0763Z" fill="white"/>
<path d="M24.9945 24.6094H23.66V31.125H25.5V29.9058H24.9945V24.6094Z" fill="white"/>
<path d="M31.002 26.5261C30.7561 26.3 30.4604 26.128 30.1173 26.0102C29.7734 25.8933 29.3951 25.834 28.9815 25.834C28.5645 25.834 28.1845 25.8933 27.8405 26.0128C27.4966 26.1315 27.2008 26.3043 26.9532 26.5313C26.7056 26.7574 26.5121 27.0351 26.3754 27.3644C26.2378 27.6937 26.1699 28.0643 26.1699 28.4779C26.1699 28.9009 26.2387 29.2784 26.3754 29.6085C26.513 29.9396 26.7056 30.2164 26.9532 30.4391C27.2008 30.6627 27.4966 30.8329 27.8405 30.9524C28.1845 31.0719 28.5645 31.1313 28.9815 31.1313C29.4939 31.1313 29.9514 31.0401 30.3555 30.8587C30.3391 31.1493 30.2566 31.3746 30.1078 31.5328C29.9393 31.7142 29.7046 31.8053 29.4037 31.8053V33.0503C29.7871 33.0469 30.1268 32.9884 30.4225 32.8741C30.7183 32.7597 30.9676 32.6007 31.1688 32.396C31.3709 32.1905 31.5231 31.9472 31.628 31.6643C31.732 31.3815 31.7845 31.0754 31.7845 30.7443V28.4779C31.7845 28.0583 31.7157 27.6843 31.579 27.3576C31.4405 27.0291 31.2488 26.7523 31.002 26.5261ZM30.2531 29.0574C30.1887 29.2328 30.0975 29.3833 29.9806 29.5088C29.8637 29.6343 29.7183 29.7324 29.5464 29.8011C29.3744 29.8708 29.1844 29.9052 28.9763 29.9052C28.7743 29.9052 28.5894 29.8708 28.4209 29.8011C28.2524 29.7315 28.1071 29.6343 27.9841 29.5088C27.862 29.3833 27.7666 29.2328 27.6987 29.0574C27.6307 28.882 27.5972 28.6885 27.5972 28.477C27.5972 28.269 27.6307 28.0781 27.6987 27.9044C27.7666 27.7307 27.8603 27.5803 27.9815 27.453C28.1019 27.3258 28.2472 27.2277 28.4175 27.1581C28.5877 27.0884 28.7751 27.0541 28.9806 27.0541C29.1853 27.0541 29.3744 27.0876 29.5464 27.1555C29.7183 27.2234 29.8628 27.3189 29.9806 27.441C30.0975 27.5631 30.1887 27.7118 30.2531 27.8872C30.3176 28.0626 30.3503 28.2595 30.3503 28.477C30.3503 28.6894 30.3176 28.8829 30.2531 29.0574Z" fill="white"/>
<path d="M34.0501 26.4442C34.2384 26.4442 34.4 26.3926 34.5359 26.2903C34.6812 26.1751 34.7543 26.0212 34.7543 25.8294C34.7543 25.6377 34.6829 25.4889 34.541 25.3832C34.3992 25.2774 34.2349 25.2241 34.0501 25.2241C33.8644 25.2241 33.7061 25.2757 33.5737 25.378C33.4284 25.4907 33.3553 25.6411 33.3553 25.8294C33.3553 26.0177 33.4284 26.1716 33.5737 26.2903C33.7027 26.3926 33.8609 26.4442 34.0501 26.4442Z" fill="white"/>
<path d="M36.7378 28.844C36.7378 29.1914 36.6535 29.4562 36.485 29.6376C36.3165 29.8199 36.0818 29.9102 35.7808 29.9102C35.4833 29.9102 35.2503 29.819 35.0818 29.6376C34.9133 29.4562 34.829 29.1914 34.829 28.844V27.0539H32.9142V28.041H33.4052V30.7786C33.4052 31.1259 33.3209 31.389 33.1524 31.567C32.9839 31.7484 32.7509 31.8396 32.4534 31.8396V33.0597C32.8368 33.0562 33.1739 32.9986 33.4654 32.886C33.7629 32.7699 34.0122 32.61 34.2143 32.4053C34.4189 32.1998 34.5728 31.9574 34.6751 31.6762C34.7542 31.4578 34.8024 31.2248 34.8187 30.9772C35.0964 31.0761 35.412 31.1277 35.7662 31.1311H35.7808C36.1643 31.1277 36.5039 31.0692 36.7997 30.9548C37.0955 30.8405 37.344 30.6814 37.546 30.4759C37.7472 30.2713 37.9002 30.0271 38.0051 29.7442C38.1092 29.4614 38.1616 29.1553 38.1616 28.8242V24.6138H36.7378V28.844Z" fill="white"/>
<path d="M40.1641 24.6094H38.8306V31.125H40.6706V29.9058H40.1641V24.6094Z" fill="white"/>
<path d="M47.6676 28.7848C47.6676 29.1752 47.5799 29.4589 47.4045 29.6378C47.2291 29.8166 46.9978 29.9052 46.7098 29.9052H45.733C45.4355 29.9052 45.1982 29.8158 45.0211 29.6378C44.844 29.4589 44.7563 29.1718 44.7563 28.7754V27.0549H43.3428V28.7754C43.3428 29.5458 43.5543 30.1322 43.9773 30.5363C44.3909 30.9292 44.9756 31.1261 45.733 31.1261H46.7098C47.0804 31.1261 47.4114 31.0745 47.7046 30.9722C47.9969 30.8699 48.248 30.7185 48.456 30.5182C48.6641 30.3179 48.8215 30.0737 48.9272 29.7839C49.033 29.495 49.0863 29.1614 49.0863 28.7848V27.0541H49.6718V25.834H47.6685V28.7848H47.6676Z" fill="white"/>
<path d="M46.7056 31.9959C46.5637 31.8884 46.4012 31.8342 46.2198 31.8342C46.0315 31.8342 45.8707 31.8858 45.7391 31.9881C45.5938 32.1008 45.5208 32.253 45.5208 32.4447C45.5208 32.6296 45.5938 32.7817 45.7391 32.9013C45.8681 33.0036 46.028 33.0552 46.2198 33.0552C46.4046 33.0552 46.5654 33.0036 46.7013 32.9013C46.8466 32.7852 46.9197 32.6339 46.9197 32.4447C46.9188 32.253 46.8474 32.1033 46.7056 31.9959Z" fill="white"/>
<path d="M53.6786 26.4441L53.6734 28.7802C53.6734 29.1706 53.5857 29.4543 53.4103 29.6332C53.2349 29.812 53.0036 29.9006 52.7156 29.9006V29.9057C52.4181 29.9057 52.1851 29.8163 52.0166 29.6383C51.8481 29.4569 51.7638 29.1921 51.7638 28.8447V24.6196H50.3408V28.8249C50.3408 29.156 50.3924 29.4629 50.4947 29.7475C50.597 30.0287 50.751 30.2711 50.9556 30.4766C51.1568 30.6821 51.407 30.8421 51.7045 30.9581C51.9985 31.0708 52.3356 31.1266 52.7156 31.1266C52.762 31.1266 52.8059 31.1215 52.8489 31.112C53.5273 31.088 54.0681 30.8936 54.4619 30.5145C54.8815 30.1095 55.0913 29.5317 55.0913 28.7811V27.6651H55.6768V26.445H53.6786V26.4441Z" fill="white"/>
<path d="M53.2134 31.9987C53.0715 31.8929 52.9073 31.8396 52.7224 31.8396C52.5376 31.8396 52.3768 31.8912 52.2418 31.9935C52.0999 32.1061 52.0286 32.2566 52.0286 32.4449C52.0286 32.6332 52.0991 32.7854 52.2418 32.9015C52.3742 33.0072 52.5341 33.0605 52.7224 33.0605C52.9073 33.0605 53.0681 33.0072 53.2039 32.9015C53.3527 32.7854 53.4275 32.6341 53.4275 32.4449C53.4266 32.2532 53.3552 32.1044 53.2134 31.9987Z" fill="white"/>
<path d="M81.3481 33.0614V36.0269H70.6125V17.8875C70.6125 15.1095 71.591 12.4802 73.3605 10.4631C74.3192 9.36598 75.4464 8.42707 76.7318 7.64551C77.4042 8.3772 78.0464 9.16823 78.5898 9.9988C77.4239 10.6609 76.4154 11.4716 75.5848 12.4303C74.2899 13.8937 73.578 15.8309 73.578 17.8875V33.0614H81.3481Z" fill="white"/>
<path d="M82.692 36.0268H79.7265V13.2892C79.7265 12.4062 79.5072 11.5524 79.0928 10.8207C77.2339 7.53707 73.7336 4.74184 72.1524 3.58368C70.5704 4.74442 67.0641 7.54653 65.2104 10.8207C64.7959 11.5524 64.5767 12.4062 64.5767 13.2892V36.0268H61.6112V13.2892C61.6112 11.8946 61.9637 10.5361 62.6292 9.359C65.4193 4.43145 71.1 0.686986 71.3399 0.529642L72.1507 0L72.9615 0.529642C73.2023 0.686126 78.8822 4.43145 81.6722 9.359C82.3386 10.5352 82.6902 11.8946 82.6902 13.2892V36.0268H82.692Z" fill="white"/>
</svg>
