<svg width="274" height="57" viewBox="0 0 274 57" fill="none" xmlns="http://www.w3.org/2000/svg">
<g opacity="0.45">
<path fill-rule="evenodd" clip-rule="evenodd" d="M39.8644 0.678572C37.7682 0.678572 36.0678 -0.985428 36.0678 -3.03479V-6.28571H32.7448C30.6481 -6.28571 28.9492 -7.94786 28.9492 -10H10.9153C10.9153 -7.94925 9.21438 -6.28571 7.1196 -6.28571H3.79661V-3.03479C3.79661 -0.983572 2.09763 0.678572 0 0.678572V18.3214C2.0962 18.3214 3.79661 19.9854 3.79661 22.0348V25.2857H7.1196C9.21627 25.2857 10.9153 26.9479 10.9153 29H28.9492C28.9492 26.9493 30.65 25.2857 32.7448 25.2857H36.0678V22.0348C36.0678 19.9836 37.7668 18.3214 39.8644 18.3214V0.678572ZM28.0237 28.5357H20.4068V21.0839C22.8053 20.8518 24.678 18.8721 24.678 16.4652V14.1429H27.0518C29.5101 14.1429 31.5347 12.3103 31.7738 9.96428H39.3898V17.4161C36.9913 17.6482 35.1187 19.6279 35.1187 22.0348V24.3571H32.7448C30.2865 24.3571 28.262 26.1897 28.0228 28.5357H28.0237ZM11.8407 28.5357H19.4576V21.0839C17.0596 20.8509 15.1864 18.8702 15.1864 16.4652V14.1429H12.8126C10.3524 14.1429 8.32929 12.3108 8.09058 9.96428H0.474576V17.4161C2.87261 17.6491 4.74576 19.6298 4.74576 22.0348V24.3571H7.1196C9.5798 24.3571 11.6029 26.1892 11.8416 28.5357H11.8407ZM11.8407 -9.53571H19.4576V-2.08393C17.0591 -1.85179 15.1864 0.127929 15.1864 2.53479V4.85714H12.8126C10.3543 4.85714 8.32977 6.68968 8.09058 9.03572H0.474576V1.58393C2.87309 1.35179 4.74576 -0.627928 4.74576 -3.03479V-5.35714H7.1196C9.5779 -5.35714 11.6024 -7.18968 11.8416 -9.53571H11.8407ZM28.0237 -9.53571H20.4068V-2.08393C22.8048 -1.85086 24.678 0.129786 24.678 2.53479V4.85714H27.0518C29.512 4.85714 31.5351 6.68921 31.7738 9.03572H39.3898V1.58393C36.9918 1.35086 35.1187 -0.629786 35.1187 -3.03479V-5.35714H32.7448C30.2846 -5.35714 28.2615 -7.18921 28.0228 -9.53571H28.0237ZM23.7288 13.2143V16.4652C23.7288 18.5164 22.0298 20.1786 19.9322 20.1786C17.836 20.1786 16.1356 18.5146 16.1356 16.4652V13.2143H12.8126C10.7159 13.2143 9.01695 11.5521 9.01695 9.5C9.01695 7.44925 10.7178 5.78571 12.8126 5.78571H16.1356V2.53479C16.1356 0.483571 17.8346 -1.17857 19.9322 -1.17857C22.0284 -1.17857 23.7288 0.485429 23.7288 2.53479V5.78571H27.0518C29.1485 5.78571 30.8475 7.44786 30.8475 9.5C30.8475 11.5507 29.1466 13.2143 27.0518 13.2143H23.7288Z" fill="white" fill-opacity="0.19"/>
<path fill-rule="evenodd" clip-rule="evenodd" d="M40.3391 117.679C38.2429 117.679 36.5425 116.015 36.5425 113.965V110.714H33.2195C31.1228 110.714 29.4238 109.052 29.4238 107H11.3899C11.3899 109.051 9.68902 110.714 7.59424 110.714H4.27125V113.965C4.27125 116.016 2.57227 117.679 0.474642 117.679V135.321C2.57085 135.321 4.27125 136.985 4.27125 139.035V142.286H7.59424C9.69092 142.286 11.3899 143.948 11.3899 146H29.4238C29.4238 143.949 31.1247 142.286 33.2195 142.286H36.5425V139.035C36.5425 136.984 38.2414 135.321 40.3391 135.321V117.679ZM28.4984 145.536H20.8814V138.084C23.2799 137.852 25.1526 135.872 25.1526 133.465V131.143H27.5264C29.9848 131.143 32.0093 129.31 32.2485 126.964H39.8645V134.416C37.466 134.648 35.5933 136.628 35.5933 139.035V141.357H33.2195C30.7612 141.357 28.7366 143.19 28.4974 145.536H28.4984ZM12.3153 145.536H19.9323V138.084C17.5342 137.851 15.6611 135.87 15.6611 133.465V131.143H13.2873C10.8271 131.143 8.80393 129.311 8.56522 126.964H0.949218V134.416C3.34725 134.649 5.22041 136.63 5.22041 139.035V141.357H7.59424C10.0544 141.357 12.0776 143.189 12.3163 145.536H12.3153ZM12.3153 107.464H19.9323V114.916C17.5338 115.148 15.6611 117.128 15.6611 119.535V121.857H13.2873C10.829 121.857 8.80441 123.69 8.56522 126.036H0.949218V118.584C3.34773 118.352 5.22041 116.372 5.22041 113.965V111.643H7.59424C10.0525 111.643 12.0771 109.81 12.3163 107.464H12.3153ZM28.4984 107.464H20.8814V114.916C23.2795 115.149 25.1526 117.13 25.1526 119.535V121.857H27.5264C29.9867 121.857 32.0098 123.689 32.2485 126.036H39.8645V118.584C37.4665 118.351 35.5933 116.37 35.5933 113.965V111.643H33.2195C30.7593 111.643 28.7361 109.811 28.4974 107.464H28.4984ZM24.2035 130.214V133.465C24.2035 135.516 22.5045 137.179 20.4069 137.179C18.3106 137.179 16.6102 135.515 16.6102 133.465V130.214H13.2873C11.1906 130.214 9.49159 128.552 9.49159 126.5C9.49159 124.449 11.1925 122.786 13.2873 122.786H16.6102V119.535C16.6102 117.484 18.3092 115.821 20.4069 115.821C22.5031 115.821 24.2035 117.485 24.2035 119.535V122.786H27.5264C29.6231 122.786 31.3221 124.448 31.3221 126.5C31.3221 128.551 29.6212 130.214 27.5264 130.214H24.2035Z" fill="white" fill-opacity="0.19"/>
<path fill-rule="evenodd" clip-rule="evenodd" d="M40.3391 39.6786C38.2429 39.6786 36.5425 38.0146 36.5425 35.9652V32.7143H33.2195C31.1228 32.7143 29.4238 31.0521 29.4238 29H11.3899C11.3899 31.0507 9.68902 32.7143 7.59424 32.7143H4.27125V35.9652C4.27125 38.0164 2.57227 39.6786 0.474642 39.6786V57.3214C2.57085 57.3214 4.27125 58.9854 4.27125 61.0348V64.2857H7.59424C9.69092 64.2857 11.3899 65.9479 11.3899 68H29.4238C29.4238 65.9492 31.1247 64.2857 33.2195 64.2857H36.5425V61.0348C36.5425 58.9836 38.2414 57.3214 40.3391 57.3214V39.6786ZM28.4984 67.5357H20.8814V60.0839C23.2799 59.8518 25.1526 57.8721 25.1526 55.4652V53.1429H27.5264C29.9848 53.1429 32.0093 51.3103 32.2485 48.9643H39.8645V56.4161C37.466 56.6482 35.5933 58.6279 35.5933 61.0348V63.3571H33.2195C30.7612 63.3571 28.7366 65.1897 28.4974 67.5357H28.4984ZM12.3153 67.5357H19.9323V60.0839C17.5342 59.8508 15.6611 57.8702 15.6611 55.4652V53.1429H13.2873C10.8271 53.1429 8.80393 51.3108 8.56522 48.9643H0.949218V56.4161C3.34725 56.6491 5.22041 58.6298 5.22041 61.0348V63.3571H7.59424C10.0544 63.3571 12.0776 65.1892 12.3163 67.5357H12.3153ZM12.3153 29.4643H19.9323V36.9161C17.5338 37.1482 15.6611 39.1279 15.6611 41.5348V43.8571H13.2873C10.829 43.8571 8.80441 45.6897 8.56522 48.0357H0.949218V40.5839C3.34773 40.3518 5.22041 38.3721 5.22041 35.9652V33.6428H7.59424C10.0525 33.6428 12.0771 31.8103 12.3163 29.4643H12.3153ZM28.4984 29.4643H20.8814V36.9161C23.2795 37.1491 25.1526 39.1298 25.1526 41.5348V43.8571H27.5264C29.9867 43.8571 32.0098 45.6892 32.2485 48.0357H39.8645V40.5839C37.4665 40.3508 35.5933 38.3702 35.5933 35.9652V33.6428H33.2195C30.7593 33.6428 28.7361 31.8108 28.4974 29.4643H28.4984ZM24.2035 52.2143V55.4652C24.2035 57.5164 22.5045 59.1786 20.4069 59.1786C18.3106 59.1786 16.6102 57.5146 16.6102 55.4652V52.2143H13.2873C11.1906 52.2143 9.49159 50.5521 9.49159 48.5C9.49159 46.4492 11.1925 44.7857 13.2873 44.7857H16.6102V41.5348C16.6102 39.4836 18.3092 37.8214 20.4069 37.8214C22.5031 37.8214 24.2035 39.4854 24.2035 41.5348V44.7857H27.5264C29.6231 44.7857 31.3221 46.4478 31.3221 48.5C31.3221 50.5507 29.6212 52.2143 27.5264 52.2143H24.2035Z" fill="white" fill-opacity="0.19"/>
<path fill-rule="evenodd" clip-rule="evenodd" d="M40.8135 156.679C38.7173 156.679 37.0169 155.015 37.0169 152.965V149.714H33.6939C31.5972 149.714 29.8982 148.052 29.8982 146H11.8643C11.8643 148.051 10.1634 149.714 8.06865 149.714H4.74567V152.965C4.74567 155.016 3.04668 156.679 0.949056 156.679V174.321C3.04526 174.321 4.74567 175.985 4.74567 178.035V181.286H8.06865C10.1653 181.286 11.8643 182.948 11.8643 185H29.8982C29.8982 182.949 31.5991 181.286 33.6939 181.286H37.0169V178.035C37.0169 175.984 38.7159 174.321 40.8135 174.321V156.679ZM28.9728 184.536H21.3558V177.084C23.7544 176.852 25.627 174.872 25.627 172.465V170.143H28.0009C30.4592 170.143 32.4837 168.31 32.7229 165.964H40.3389V173.416C37.9404 173.648 36.0677 175.628 36.0677 178.035V180.357H33.6939C31.2356 180.357 29.211 182.19 28.9718 184.536H28.9728ZM12.7897 184.536H20.4067V177.084C18.0087 176.851 16.1355 174.87 16.1355 172.465V170.143H13.7617C11.3015 170.143 9.27835 168.311 9.03964 165.964H1.42363V173.416C3.82167 173.649 5.69482 175.63 5.69482 178.035V180.357H8.06865C10.5289 180.357 12.552 182.189 12.7907 184.536H12.7897ZM12.7897 146.464H20.4067V153.916C18.0082 154.148 16.1355 156.128 16.1355 158.535V160.857H13.7617C11.3034 160.857 9.27882 162.69 9.03964 165.036H1.42363V157.584C3.82214 157.352 5.69482 155.372 5.69482 152.965V150.643H8.06865C10.527 150.643 12.5515 148.81 12.7907 146.464H12.7897ZM28.9728 146.464H21.3558V153.916C23.7539 154.149 25.627 156.13 25.627 158.535V160.857H28.0009C30.4611 160.857 32.4842 162.689 32.7229 165.036H40.3389V157.584C37.9409 157.351 36.0677 155.37 36.0677 152.965V150.643H33.6939C31.2337 150.643 29.2106 148.811 28.9718 146.464H28.9728ZM24.6779 169.214V172.465C24.6779 174.516 22.9789 176.179 20.8813 176.179C18.7851 176.179 17.0847 174.515 17.0847 172.465V169.214H13.7617C11.665 169.214 9.96601 167.552 9.96601 165.5C9.96601 163.449 11.6669 161.786 13.7617 161.786H17.0847V158.535C17.0847 156.484 18.7836 154.821 20.8813 154.821C22.9775 154.821 24.6779 156.485 24.6779 158.535V161.786H28.0009C30.0975 161.786 31.7965 163.448 31.7965 165.5C31.7965 167.551 30.0956 169.214 28.0009 169.214H24.6779Z" fill="white" fill-opacity="0.19"/>
<path fill-rule="evenodd" clip-rule="evenodd" d="M40.3391 78.6786C38.2429 78.6786 36.5425 77.0145 36.5425 74.9652V71.7143H33.2195C31.1228 71.7143 29.4238 70.0521 29.4238 68H11.3899C11.3899 70.0507 9.68902 71.7143 7.59424 71.7143H4.27125V74.9652C4.27125 77.0164 2.57227 78.6786 0.474642 78.6786V96.3214C2.57085 96.3214 4.27125 97.9854 4.27125 100.035V103.286H7.59424C9.69092 103.286 11.3899 104.948 11.3899 107H29.4238C29.4238 104.949 31.1247 103.286 33.2195 103.286H36.5425V100.035C36.5425 97.9836 38.2414 96.3214 40.3391 96.3214V78.6786ZM28.4984 106.536H20.8814V99.0839C23.2799 98.8518 25.1526 96.8721 25.1526 94.4652V92.1428H27.5264C29.9848 92.1428 32.0093 90.3103 32.2485 87.9643H39.8645V95.416C37.466 95.6482 35.5933 97.6279 35.5933 100.035V102.357H33.2195C30.7612 102.357 28.7366 104.19 28.4974 106.536H28.4984ZM12.3153 106.536H19.9323V99.0839C17.5342 98.8508 15.6611 96.8702 15.6611 94.4652V92.1428H13.2873C10.8271 92.1428 8.80393 90.3108 8.56522 87.9643H0.949218V95.416C3.34725 95.6491 5.22041 97.6298 5.22041 100.035V102.357H7.59424C10.0544 102.357 12.0776 104.189 12.3163 106.536H12.3153ZM12.3153 68.4643H19.9323V75.9161C17.5338 76.1482 15.6611 78.1279 15.6611 80.5348V82.8571H13.2873C10.829 82.8571 8.80441 84.6897 8.56522 87.0357H0.949218V79.5839C3.34773 79.3518 5.22041 77.372 5.22041 74.9652V72.6428H7.59424C10.0525 72.6428 12.0771 70.8103 12.3163 68.4643H12.3153ZM28.4984 68.4643H20.8814V75.9161C23.2795 76.1491 25.1526 78.1298 25.1526 80.5348V82.8571H27.5264C29.9867 82.8571 32.0098 84.6892 32.2485 87.0357H39.8645V79.5839C37.4665 79.3508 35.5933 77.3702 35.5933 74.9652V72.6428H33.2195C30.7593 72.6428 28.7361 70.8108 28.4974 68.4643H28.4984ZM24.2035 91.2143V94.4652C24.2035 96.5164 22.5045 98.1786 20.4069 98.1786C18.3106 98.1786 16.6102 96.5146 16.6102 94.4652V91.2143H13.2873C11.1906 91.2143 9.49159 89.5521 9.49159 87.5C9.49159 85.4492 11.1925 83.7857 13.2873 83.7857H16.6102V80.5348C16.6102 78.4836 18.3092 76.8214 20.4069 76.8214C22.5031 76.8214 24.2035 78.4854 24.2035 80.5348V83.7857H27.5264C29.6231 83.7857 31.3221 85.4478 31.3221 87.5C31.3221 89.5507 29.6212 91.2143 27.5264 91.2143H24.2035Z" fill="white" fill-opacity="0.19"/>
<path fill-rule="evenodd" clip-rule="evenodd" d="M40.8135 195.679C38.7173 195.679 37.0169 194.015 37.0169 191.965V188.714H33.6939C31.5972 188.714 29.8982 187.052 29.8982 185H11.8643C11.8643 187.051 10.1634 188.714 8.06865 188.714H4.74567V191.965C4.74567 194.016 3.04668 195.679 0.949056 195.679V213.321C3.04526 213.321 4.74567 214.985 4.74567 217.035V220.286H8.06865C10.1653 220.286 11.8643 221.948 11.8643 224H29.8982C29.8982 221.949 31.5991 220.286 33.6939 220.286H37.0169V217.035C37.0169 214.984 38.7159 213.321 40.8135 213.321V195.679ZM28.9728 223.536H21.3558V216.084C23.7544 215.852 25.627 213.872 25.627 211.465V209.143H28.0009C30.4592 209.143 32.4837 207.31 32.7229 204.964H40.3389V212.416C37.9404 212.648 36.0677 214.628 36.0677 217.035V219.357H33.6939C31.2356 219.357 29.211 221.19 28.9718 223.536H28.9728ZM12.7897 223.536H20.4067V216.084C18.0087 215.851 16.1355 213.87 16.1355 211.465V209.143H13.7617C11.3015 209.143 9.27835 207.311 9.03964 204.964H1.42363V212.416C3.82167 212.649 5.69482 214.63 5.69482 217.035V219.357H8.06865C10.5289 219.357 12.552 221.189 12.7907 223.536H12.7897ZM12.7897 185.464H20.4067V192.916C18.0082 193.148 16.1355 195.128 16.1355 197.535V199.857H13.7617C11.3034 199.857 9.27882 201.69 9.03964 204.036H1.42363V196.584C3.82214 196.352 5.69482 194.372 5.69482 191.965V189.643H8.06865C10.527 189.643 12.5515 187.81 12.7907 185.464H12.7897ZM28.9728 185.464H21.3558V192.916C23.7539 193.149 25.627 195.13 25.627 197.535V199.857H28.0009C30.4611 199.857 32.4842 201.689 32.7229 204.036H40.3389V196.584C37.9409 196.351 36.0677 194.37 36.0677 191.965V189.643H33.6939C31.2337 189.643 29.2106 187.811 28.9718 185.464H28.9728ZM24.6779 208.214V211.465C24.6779 213.516 22.9789 215.179 20.8813 215.179C18.7851 215.179 17.0847 213.515 17.0847 211.465V208.214H13.7617C11.665 208.214 9.96601 206.552 9.96601 204.5C9.96601 202.449 11.6669 200.786 13.7617 200.786H17.0847V197.535C17.0847 195.484 18.7836 193.821 20.8813 193.821C22.9775 193.821 24.6779 195.485 24.6779 197.535V200.786H28.0009C30.0975 200.786 31.7965 202.448 31.7965 204.5C31.7965 206.551 30.0956 208.214 28.0009 208.214H24.6779Z" fill="white" fill-opacity="0.19"/>
<path fill-rule="evenodd" clip-rule="evenodd" d="M79.7289 0.678572C77.6327 0.678572 75.9323 -0.985428 75.9323 -3.03479V-6.28571H72.6093C70.5126 -6.28571 68.8136 -7.94786 68.8136 -10H50.7797C50.7797 -7.94925 49.0788 -6.28571 46.9841 -6.28571H43.6611V-3.03479C43.6611 -0.983572 41.9621 0.678572 39.8644 0.678572V18.3214C41.9606 18.3214 43.6611 19.9854 43.6611 22.0348V25.2857H46.9841C49.0807 25.2857 50.7797 26.9479 50.7797 29H68.8136C68.8136 26.9493 70.5145 25.2857 72.6093 25.2857H75.9323V22.0348C75.9323 19.9836 77.6312 18.3214 79.7289 18.3214V0.678572ZM67.8882 28.5357H60.2712V21.0839C62.6698 20.8518 64.5424 18.8721 64.5424 16.4652V14.1429H66.9163C69.3746 14.1429 71.3991 12.3103 71.6383 9.96428H79.2543V17.4161C76.8558 17.6482 74.9831 19.6279 74.9831 22.0348V24.3571H72.6093C70.151 24.3571 68.1264 26.1897 67.8872 28.5357H67.8882ZM51.7051 28.5357H59.3221V21.0839C56.9241 20.8509 55.0509 18.8702 55.0509 16.4652V14.1429H52.6771C50.2169 14.1429 48.1937 12.3108 47.955 9.96428H40.339V17.4161C42.7371 17.6491 44.6102 19.6298 44.6102 22.0348V24.3571H46.9841C49.4443 24.3571 51.4674 26.1892 51.7061 28.5357H51.7051ZM51.7051 -9.53571H59.3221V-2.08393C56.9236 -1.85179 55.0509 0.127929 55.0509 2.53479V4.85714H52.6771C50.2188 4.85714 48.1942 6.68968 47.955 9.03572H40.339V1.58393C42.7375 1.35179 44.6102 -0.627928 44.6102 -3.03479V-5.35714H46.9841C49.4424 -5.35714 51.4669 -7.18968 51.7061 -9.53571H51.7051ZM67.8882 -9.53571H60.2712V-2.08393C62.6693 -1.85086 64.5424 0.129786 64.5424 2.53479V4.85714H66.9163C69.3765 4.85714 71.3996 6.68921 71.6383 9.03572H79.2543V1.58393C76.8563 1.35086 74.9831 -0.629786 74.9831 -3.03479V-5.35714H72.6093C70.1491 -5.35714 68.126 -7.18921 67.8872 -9.53571H67.8882ZM63.5933 13.2143V16.4652C63.5933 18.5164 61.8943 20.1786 59.7967 20.1786C57.7005 20.1786 56.0001 18.5146 56.0001 16.4652V13.2143H52.6771C50.5804 13.2143 48.8814 11.5521 48.8814 9.5C48.8814 7.44925 50.5823 5.78571 52.6771 5.78571H56.0001V2.53479C56.0001 0.483571 57.699 -1.17857 59.7967 -1.17857C61.8929 -1.17857 63.5933 0.485429 63.5933 2.53479V5.78571H66.9163C69.0129 5.78571 70.7119 7.44786 70.7119 9.5C70.7119 11.5507 69.011 13.2143 66.9163 13.2143H63.5933Z" fill="white" fill-opacity="0.19"/>
<path fill-rule="evenodd" clip-rule="evenodd" d="M80.2035 117.679C78.1073 117.679 76.4069 116.015 76.4069 113.965V110.714H73.0839C70.9872 110.714 69.2883 109.052 69.2883 107H51.2544C51.2544 109.051 49.5535 110.714 47.4587 110.714H44.1357V113.965C44.1357 116.016 42.4367 117.679 40.3391 117.679V135.321C42.4353 135.321 44.1357 136.985 44.1357 139.035V142.286H47.4587C49.5554 142.286 51.2544 143.948 51.2544 146H69.2883C69.2883 143.949 70.9892 142.286 73.0839 142.286H76.4069V139.035C76.4069 136.984 78.1059 135.321 80.2035 135.321V117.679ZM68.3628 145.536H60.7459V138.084C63.1444 137.852 65.0171 135.872 65.0171 133.465V131.143H67.3909C69.8492 131.143 71.8738 129.31 72.1129 126.964H79.7289V134.416C77.3304 134.648 75.4578 136.628 75.4578 139.035V141.357H73.0839C70.6256 141.357 68.6011 143.19 68.3619 145.536H68.3628ZM52.1798 145.536H59.7967V138.084C57.3987 137.851 55.5255 135.87 55.5255 133.465V131.143H53.1517C50.6915 131.143 48.6684 129.311 48.4297 126.964H40.8137V134.416C43.2117 134.649 45.0849 136.63 45.0849 139.035V141.357H47.4587C49.9189 141.357 51.942 143.189 52.1807 145.536H52.1798ZM52.1798 107.464H59.7967V114.916C57.3982 115.148 55.5255 117.128 55.5255 119.535V121.857H53.1517C50.6934 121.857 48.6689 123.69 48.4297 126.036H40.8137V118.584C43.2122 118.352 45.0849 116.372 45.0849 113.965V111.643H47.4587C49.917 111.643 51.9415 109.81 52.1807 107.464H52.1798ZM68.3628 107.464H60.7459V114.916C63.1439 115.149 65.0171 117.13 65.0171 119.535V121.857H67.3909C69.8511 121.857 71.8742 123.689 72.1129 126.036H79.7289V118.584C77.3309 118.351 75.4578 116.37 75.4578 113.965V111.643H73.0839C70.6237 111.643 68.6006 109.811 68.3619 107.464H68.3628ZM64.0679 130.214V133.465C64.0679 135.516 62.3689 137.179 60.2713 137.179C58.1751 137.179 56.4747 135.515 56.4747 133.465V130.214H53.1517C51.055 130.214 49.3561 128.552 49.3561 126.5C49.3561 124.449 51.0569 122.786 53.1517 122.786H56.4747V119.535C56.4747 117.484 58.1737 115.821 60.2713 115.821C62.3675 115.821 64.0679 117.485 64.0679 119.535V122.786H67.3909C69.4876 122.786 71.1866 124.448 71.1866 126.5C71.1866 128.551 69.4857 130.214 67.3909 130.214H64.0679Z" fill="white" fill-opacity="0.19"/>
<path fill-rule="evenodd" clip-rule="evenodd" d="M80.2035 39.6786C78.1073 39.6786 76.4069 38.0146 76.4069 35.9652V32.7143H73.0839C70.9872 32.7143 69.2883 31.0521 69.2883 29H51.2544C51.2544 31.0507 49.5535 32.7143 47.4587 32.7143H44.1357V35.9652C44.1357 38.0164 42.4367 39.6786 40.3391 39.6786V57.3214C42.4353 57.3214 44.1357 58.9854 44.1357 61.0348V64.2857H47.4587C49.5554 64.2857 51.2544 65.9479 51.2544 68H69.2883C69.2883 65.9492 70.9892 64.2857 73.0839 64.2857H76.4069V61.0348C76.4069 58.9836 78.1059 57.3214 80.2035 57.3214V39.6786ZM68.3628 67.5357H60.7459V60.0839C63.1444 59.8518 65.0171 57.8721 65.0171 55.4652V53.1429H67.3909C69.8492 53.1429 71.8738 51.3103 72.1129 48.9643H79.7289V56.4161C77.3304 56.6482 75.4578 58.6279 75.4578 61.0348V63.3571H73.0839C70.6256 63.3571 68.6011 65.1897 68.3619 67.5357H68.3628ZM52.1798 67.5357H59.7967V60.0839C57.3987 59.8508 55.5255 57.8702 55.5255 55.4652V53.1429H53.1517C50.6915 53.1429 48.6684 51.3108 48.4297 48.9643H40.8137V56.4161C43.2117 56.6491 45.0849 58.6298 45.0849 61.0348V63.3571H47.4587C49.9189 63.3571 51.942 65.1892 52.1807 67.5357H52.1798ZM52.1798 29.4643H59.7967V36.9161C57.3982 37.1482 55.5255 39.1279 55.5255 41.5348V43.8571H53.1517C50.6934 43.8571 48.6689 45.6897 48.4297 48.0357H40.8137V40.5839C43.2122 40.3518 45.0849 38.3721 45.0849 35.9652V33.6428H47.4587C49.917 33.6428 51.9415 31.8103 52.1807 29.4643H52.1798ZM68.3628 29.4643H60.7459V36.9161C63.1439 37.1491 65.0171 39.1298 65.0171 41.5348V43.8571H67.3909C69.8511 43.8571 71.8742 45.6892 72.1129 48.0357H79.7289V40.5839C77.3309 40.3508 75.4578 38.3702 75.4578 35.9652V33.6428H73.0839C70.6237 33.6428 68.6006 31.8108 68.3619 29.4643H68.3628ZM64.0679 52.2143V55.4652C64.0679 57.5164 62.3689 59.1786 60.2713 59.1786C58.1751 59.1786 56.4747 57.5146 56.4747 55.4652V52.2143H53.1517C51.055 52.2143 49.3561 50.5521 49.3561 48.5C49.3561 46.4492 51.0569 44.7857 53.1517 44.7857H56.4747V41.5348C56.4747 39.4836 58.1737 37.8214 60.2713 37.8214C62.3675 37.8214 64.0679 39.4854 64.0679 41.5348V44.7857H67.3909C69.4876 44.7857 71.1866 46.4478 71.1866 48.5C71.1866 50.5507 69.4857 52.2143 67.3909 52.2143H64.0679Z" fill="white" fill-opacity="0.19"/>
<path fill-rule="evenodd" clip-rule="evenodd" d="M80.6779 156.679C78.5817 156.679 76.8813 155.015 76.8813 152.965V149.714H73.5583C71.4617 149.714 69.7627 148.052 69.7627 146H51.7288C51.7288 148.051 50.0279 149.714 47.9331 149.714H44.6101V152.965C44.6101 155.016 42.9111 156.679 40.8135 156.679V174.321C42.9097 174.321 44.6101 175.985 44.6101 178.035V181.286H47.9331C50.0298 181.286 51.7288 182.948 51.7288 185H69.7627C69.7627 182.949 71.4636 181.286 73.5583 181.286H76.8813V178.035C76.8813 175.984 78.5803 174.321 80.6779 174.321V156.679ZM68.8372 184.536H61.2203V177.084C63.6188 176.852 65.4915 174.872 65.4915 172.465V170.143H67.8653C70.3236 170.143 72.3482 168.31 72.5874 165.964H80.2034V173.416C77.8048 173.648 75.9322 175.628 75.9322 178.035V180.357H73.5583C71.1 180.357 69.0755 182.19 68.8363 184.536H68.8372ZM52.6542 184.536H60.2712V177.084C57.8731 176.851 56 174.87 56 172.465V170.143H53.6261C51.1659 170.143 49.1428 168.311 48.9041 165.964H41.2881V173.416C43.6861 173.649 45.5593 175.63 45.5593 178.035V180.357H47.9331C50.3933 180.357 52.4164 182.189 52.6551 184.536H52.6542ZM52.6542 146.464H60.2712V153.916C57.8726 154.148 56 156.128 56 158.535V160.857H53.6261C51.1678 160.857 49.1433 162.69 48.9041 165.036H41.2881V157.584C43.6866 157.352 45.5593 155.372 45.5593 152.965V150.643H47.9331C50.3914 150.643 52.416 148.81 52.6551 146.464H52.6542ZM68.8372 146.464H61.2203V153.916C63.6183 154.149 65.4915 156.13 65.4915 158.535V160.857H67.8653C70.3255 160.857 72.3486 162.689 72.5874 165.036H80.2034V157.584C77.8053 157.351 75.9322 155.37 75.9322 152.965V150.643H73.5583C71.0981 150.643 69.075 148.811 68.8363 146.464H68.8372ZM64.5423 169.214V172.465C64.5423 174.516 62.8434 176.179 60.7457 176.179C58.6495 176.179 56.9491 174.515 56.9491 172.465V169.214H53.6261C51.5294 169.214 49.8305 167.552 49.8305 165.5C49.8305 163.449 51.5313 161.786 53.6261 161.786H56.9491V158.535C56.9491 156.484 58.6481 154.821 60.7457 154.821C62.8419 154.821 64.5423 156.485 64.5423 158.535V161.786H67.8653C69.962 161.786 71.661 163.448 71.661 165.5C71.661 167.551 69.9601 169.214 67.8653 169.214H64.5423Z" fill="white" fill-opacity="0.19"/>
<path fill-rule="evenodd" clip-rule="evenodd" d="M80.2035 78.6786C78.1073 78.6786 76.4069 77.0145 76.4069 74.9652V71.7143H73.0839C70.9872 71.7143 69.2883 70.0521 69.2883 68H51.2544C51.2544 70.0507 49.5535 71.7143 47.4587 71.7143H44.1357V74.9652C44.1357 77.0164 42.4367 78.6786 40.3391 78.6786V96.3214C42.4353 96.3214 44.1357 97.9854 44.1357 100.035V103.286H47.4587C49.5554 103.286 51.2544 104.948 51.2544 107H69.2883C69.2883 104.949 70.9892 103.286 73.0839 103.286H76.4069V100.035C76.4069 97.9836 78.1059 96.3214 80.2035 96.3214V78.6786ZM68.3628 106.536H60.7459V99.0839C63.1444 98.8518 65.0171 96.8721 65.0171 94.4652V92.1428H67.3909C69.8492 92.1428 71.8738 90.3103 72.1129 87.9643H79.7289V95.416C77.3304 95.6482 75.4578 97.6279 75.4578 100.035V102.357H73.0839C70.6256 102.357 68.6011 104.19 68.3619 106.536H68.3628ZM52.1798 106.536H59.7967V99.0839C57.3987 98.8508 55.5255 96.8702 55.5255 94.4652V92.1428H53.1517C50.6915 92.1428 48.6684 90.3108 48.4297 87.9643H40.8137V95.416C43.2117 95.6491 45.0849 97.6298 45.0849 100.035V102.357H47.4587C49.9189 102.357 51.942 104.189 52.1807 106.536H52.1798ZM52.1798 68.4643H59.7967V75.9161C57.3982 76.1482 55.5255 78.1279 55.5255 80.5348V82.8571H53.1517C50.6934 82.8571 48.6689 84.6897 48.4297 87.0357H40.8137V79.5839C43.2122 79.3518 45.0849 77.372 45.0849 74.9652V72.6428H47.4587C49.917 72.6428 51.9415 70.8103 52.1807 68.4643H52.1798ZM68.3628 68.4643H60.7459V75.9161C63.1439 76.1491 65.0171 78.1298 65.0171 80.5348V82.8571H67.3909C69.8511 82.8571 71.8742 84.6892 72.1129 87.0357H79.7289V79.5839C77.3309 79.3508 75.4578 77.3702 75.4578 74.9652V72.6428H73.0839C70.6237 72.6428 68.6006 70.8108 68.3619 68.4643H68.3628ZM64.0679 91.2143V94.4652C64.0679 96.5164 62.3689 98.1786 60.2713 98.1786C58.1751 98.1786 56.4747 96.5146 56.4747 94.4652V91.2143H53.1517C51.055 91.2143 49.3561 89.5521 49.3561 87.5C49.3561 85.4492 51.0569 83.7857 53.1517 83.7857H56.4747V80.5348C56.4747 78.4836 58.1737 76.8214 60.2713 76.8214C62.3675 76.8214 64.0679 78.4854 64.0679 80.5348V83.7857H67.3909C69.4876 83.7857 71.1866 85.4478 71.1866 87.5C71.1866 89.5507 69.4857 91.2143 67.3909 91.2143H64.0679Z" fill="white" fill-opacity="0.19"/>
<path fill-rule="evenodd" clip-rule="evenodd" d="M80.6779 195.679C78.5817 195.679 76.8813 194.015 76.8813 191.965V188.714H73.5583C71.4617 188.714 69.7627 187.052 69.7627 185H51.7288C51.7288 187.051 50.0279 188.714 47.9331 188.714H44.6101V191.965C44.6101 194.016 42.9111 195.679 40.8135 195.679V213.321C42.9097 213.321 44.6101 214.985 44.6101 217.035V220.286H47.9331C50.0298 220.286 51.7288 221.948 51.7288 224H69.7627C69.7627 221.949 71.4636 220.286 73.5583 220.286H76.8813V217.035C76.8813 214.984 78.5803 213.321 80.6779 213.321V195.679ZM68.8372 223.536H61.2203V216.084C63.6188 215.852 65.4915 213.872 65.4915 211.465V209.143H67.8653C70.3236 209.143 72.3482 207.31 72.5874 204.964H80.2034V212.416C77.8048 212.648 75.9322 214.628 75.9322 217.035V219.357H73.5583C71.1 219.357 69.0755 221.19 68.8363 223.536H68.8372ZM52.6542 223.536H60.2712V216.084C57.8731 215.851 56 213.87 56 211.465V209.143H53.6261C51.1659 209.143 49.1428 207.311 48.9041 204.964H41.2881V212.416C43.6861 212.649 45.5593 214.63 45.5593 217.035V219.357H47.9331C50.3933 219.357 52.4164 221.189 52.6551 223.536H52.6542ZM52.6542 185.464H60.2712V192.916C57.8726 193.148 56 195.128 56 197.535V199.857H53.6261C51.1678 199.857 49.1433 201.69 48.9041 204.036H41.2881V196.584C43.6866 196.352 45.5593 194.372 45.5593 191.965V189.643H47.9331C50.3914 189.643 52.416 187.81 52.6551 185.464H52.6542ZM68.8372 185.464H61.2203V192.916C63.6183 193.149 65.4915 195.13 65.4915 197.535V199.857H67.8653C70.3255 199.857 72.3486 201.689 72.5874 204.036H80.2034V196.584C77.8053 196.351 75.9322 194.37 75.9322 191.965V189.643H73.5583C71.0981 189.643 69.075 187.811 68.8363 185.464H68.8372ZM64.5423 208.214V211.465C64.5423 213.516 62.8434 215.179 60.7457 215.179C58.6495 215.179 56.9491 213.515 56.9491 211.465V208.214H53.6261C51.5294 208.214 49.8305 206.552 49.8305 204.5C49.8305 202.449 51.5313 200.786 53.6261 200.786H56.9491V197.535C56.9491 195.484 58.6481 193.821 60.7457 193.821C62.8419 193.821 64.5423 195.485 64.5423 197.535V200.786H67.8653C69.962 200.786 71.661 202.448 71.661 204.5C71.661 206.551 69.9601 208.214 67.8653 208.214H64.5423Z" fill="white" fill-opacity="0.19"/>
<path fill-rule="evenodd" clip-rule="evenodd" d="M119.593 0.678572C117.497 0.678572 115.797 -0.985428 115.797 -3.03479V-6.28571H112.474C110.377 -6.28571 108.678 -7.94786 108.678 -10H90.6442C90.6442 -7.94925 88.9433 -6.28571 86.8485 -6.28571H83.5255V-3.03479C83.5255 -0.983572 81.8265 0.678572 79.7289 0.678572V18.3214C81.8251 18.3214 83.5255 19.9854 83.5255 22.0348V25.2857H86.8485C88.9452 25.2857 90.6442 26.9479 90.6442 29H108.678C108.678 26.9493 110.379 25.2857 112.474 25.2857H115.797V22.0348C115.797 19.9836 117.496 18.3214 119.593 18.3214V0.678572ZM107.753 28.5357H100.136V21.0839C102.534 20.8518 104.407 18.8721 104.407 16.4652V14.1429H106.781C109.239 14.1429 111.264 12.3103 111.503 9.96428H119.119V17.4161C116.72 17.6482 114.848 19.6279 114.848 22.0348V24.3571H112.474C110.015 24.3571 107.991 26.1897 107.752 28.5357H107.753ZM91.5696 28.5357H99.1866V21.0839C96.7885 20.8509 94.9154 18.8702 94.9154 16.4652V14.1429H92.5415C90.0813 14.1429 88.0582 12.3108 87.8195 9.96428H80.2035V17.4161C82.6015 17.6491 84.4747 19.6298 84.4747 22.0348V24.3571H86.8485C89.3087 24.3571 91.3318 26.1892 91.5705 28.5357H91.5696ZM91.5696 -9.53571H99.1866V-2.08393C96.788 -1.85179 94.9154 0.127929 94.9154 2.53479V4.85714H92.5415C90.0832 4.85714 88.0587 6.68968 87.8195 9.03572H80.2035V1.58393C82.602 1.35179 84.4747 -0.627928 84.4747 -3.03479V-5.35714H86.8485C89.3068 -5.35714 91.3314 -7.18968 91.5705 -9.53571H91.5696ZM107.753 -9.53571H100.136V-2.08393C102.534 -1.85086 104.407 0.129786 104.407 2.53479V4.85714H106.781C109.241 4.85714 111.264 6.68921 111.503 9.03572H119.119V1.58393C116.721 1.35086 114.848 -0.629786 114.848 -3.03479V-5.35714H112.474C110.014 -5.35714 107.99 -7.18921 107.752 -9.53571H107.753ZM103.458 13.2143V16.4652C103.458 18.5164 101.759 20.1786 99.6611 20.1786C97.5649 20.1786 95.8645 18.5146 95.8645 16.4652V13.2143H92.5415C90.4449 13.2143 88.7459 11.5521 88.7459 9.5C88.7459 7.44925 90.4467 5.78571 92.5415 5.78571H95.8645V2.53479C95.8645 0.483571 97.5635 -1.17857 99.6611 -1.17857C101.757 -1.17857 103.458 0.485429 103.458 2.53479V5.78571H106.781C108.877 5.78571 110.576 7.44786 110.576 9.5C110.576 11.5507 108.876 13.2143 106.781 13.2143H103.458Z" fill="white" fill-opacity="0.19"/>
<path fill-rule="evenodd" clip-rule="evenodd" d="M120.068 117.679C117.972 117.679 116.271 116.015 116.271 113.965V110.714H112.948C110.852 110.714 109.153 109.052 109.153 107H91.1188C91.1188 109.051 89.4179 110.714 87.3232 110.714H84.0002V113.965C84.0002 116.016 82.3011 117.679 80.2035 117.679V135.321C82.2997 135.321 84.0002 136.985 84.0002 139.035V142.286H87.3232C89.4198 142.286 91.1188 143.948 91.1188 146H109.153C109.153 143.949 110.854 142.286 112.948 142.286H116.271V139.035C116.271 136.984 117.97 135.321 120.068 135.321V117.679ZM108.227 145.536H100.61V138.084C103.009 137.852 104.882 135.872 104.882 133.465V131.143H107.255C109.714 131.143 111.738 129.31 111.977 126.964H119.593V134.416C117.195 134.648 115.322 136.628 115.322 139.035V141.357H112.948C110.49 141.357 108.466 143.19 108.226 145.536H108.227ZM92.0442 145.536H99.6612V138.084C97.2632 137.851 95.39 135.87 95.39 133.465V131.143H93.0162C90.556 131.143 88.5329 129.311 88.2941 126.964H80.6781V134.416C83.0762 134.649 84.9493 136.63 84.9493 139.035V141.357H87.3232C89.7834 141.357 91.8065 143.189 92.0452 145.536H92.0442ZM92.0442 107.464H99.6612V114.916C97.2627 115.148 95.39 117.128 95.39 119.535V121.857H93.0162C90.5579 121.857 88.5333 123.69 88.2941 126.036H80.6781V118.584C83.0766 118.352 84.9493 116.372 84.9493 113.965V111.643H87.3232C89.7815 111.643 91.806 109.81 92.0452 107.464H92.0442ZM108.227 107.464H100.61V114.916C103.008 115.149 104.882 117.13 104.882 119.535V121.857H107.255C109.716 121.857 111.739 123.689 111.977 126.036H119.593V118.584C117.195 118.351 115.322 116.37 115.322 113.965V111.643H112.948C110.488 111.643 108.465 109.811 108.226 107.464H108.227ZM103.932 130.214V133.465C103.932 135.516 102.233 137.179 100.136 137.179C98.0396 137.179 96.3392 135.515 96.3392 133.465V130.214H93.0162C90.9195 130.214 89.2205 128.552 89.2205 126.5C89.2205 124.449 90.9214 122.786 93.0162 122.786H96.3392V119.535C96.3392 117.484 98.0381 115.821 100.136 115.821C102.232 115.821 103.932 117.485 103.932 119.535V122.786H107.255C109.352 122.786 111.051 124.448 111.051 126.5C111.051 128.551 109.35 130.214 107.255 130.214H103.932Z" fill="white" fill-opacity="0.19"/>
<path fill-rule="evenodd" clip-rule="evenodd" d="M120.068 39.6786C117.972 39.6786 116.271 38.0146 116.271 35.9652V32.7143H112.948C110.852 32.7143 109.153 31.0521 109.153 29H91.1188C91.1188 31.0507 89.4179 32.7143 87.3232 32.7143H84.0002V35.9652C84.0002 38.0164 82.3011 39.6786 80.2035 39.6786V57.3214C82.2997 57.3214 84.0002 58.9854 84.0002 61.0348V64.2857H87.3232C89.4198 64.2857 91.1188 65.9479 91.1188 68H109.153C109.153 65.9492 110.854 64.2857 112.948 64.2857H116.271V61.0348C116.271 58.9836 117.97 57.3214 120.068 57.3214V39.6786ZM108.227 67.5357H100.61V60.0839C103.009 59.8518 104.882 57.8721 104.882 55.4652V53.1429H107.255C109.714 53.1429 111.738 51.3103 111.977 48.9643H119.593V56.4161C117.195 56.6482 115.322 58.6279 115.322 61.0348V63.3571H112.948C110.49 63.3571 108.466 65.1897 108.226 67.5357H108.227ZM92.0442 67.5357H99.6612V60.0839C97.2632 59.8508 95.39 57.8702 95.39 55.4652V53.1429H93.0162C90.556 53.1429 88.5329 51.3108 88.2941 48.9643H80.6781V56.4161C83.0762 56.6491 84.9493 58.6298 84.9493 61.0348V63.3571H87.3232C89.7834 63.3571 91.8065 65.1892 92.0452 67.5357H92.0442ZM92.0442 29.4643H99.6612V36.9161C97.2627 37.1482 95.39 39.1279 95.39 41.5348V43.8571H93.0162C90.5579 43.8571 88.5333 45.6897 88.2941 48.0357H80.6781V40.5839C83.0766 40.3518 84.9493 38.3721 84.9493 35.9652V33.6428H87.3232C89.7815 33.6428 91.806 31.8103 92.0452 29.4643H92.0442ZM108.227 29.4643H100.61V36.9161C103.008 37.1491 104.882 39.1298 104.882 41.5348V43.8571H107.255C109.716 43.8571 111.739 45.6892 111.977 48.0357H119.593V40.5839C117.195 40.3508 115.322 38.3702 115.322 35.9652V33.6428H112.948C110.488 33.6428 108.465 31.8108 108.226 29.4643H108.227ZM103.932 52.2143V55.4652C103.932 57.5164 102.233 59.1786 100.136 59.1786C98.0396 59.1786 96.3392 57.5146 96.3392 55.4652V52.2143H93.0162C90.9195 52.2143 89.2205 50.5521 89.2205 48.5C89.2205 46.4492 90.9214 44.7857 93.0162 44.7857H96.3392V41.5348C96.3392 39.4836 98.0381 37.8214 100.136 37.8214C102.232 37.8214 103.932 39.4854 103.932 41.5348V44.7857H107.255C109.352 44.7857 111.051 46.4478 111.051 48.5C111.051 50.5507 109.35 52.2143 107.255 52.2143H103.932Z" fill="white" fill-opacity="0.19"/>
<path fill-rule="evenodd" clip-rule="evenodd" d="M120.542 156.679C118.446 156.679 116.746 155.015 116.746 152.965V149.714H113.423C111.326 149.714 109.627 148.052 109.627 146H91.5932C91.5932 148.051 89.8923 149.714 87.7976 149.714H84.4746V152.965C84.4746 155.016 82.7756 156.679 80.6779 156.679V174.321C82.7741 174.321 84.4746 175.985 84.4746 178.035V181.286H87.7976C89.8942 181.286 91.5932 182.948 91.5932 185H109.627C109.627 182.949 111.328 181.286 113.423 181.286H116.746V178.035C116.746 175.984 118.445 174.321 120.542 174.321V156.679ZM108.702 184.536H101.085V177.084C103.483 176.852 105.356 174.872 105.356 172.465V170.143H107.73C110.188 170.143 112.213 168.31 112.452 165.964H120.068V173.416C117.669 173.648 115.797 175.628 115.797 178.035V180.357H113.423C110.964 180.357 108.94 182.19 108.701 184.536H108.702ZM92.5187 184.536H100.136V177.084C97.7376 176.851 95.8644 174.87 95.8644 172.465V170.143H93.4906C91.0304 170.143 89.0073 168.311 88.7686 165.964H81.1525V173.416C83.5506 173.649 85.4237 175.63 85.4237 178.035V180.357H87.7976C90.2578 180.357 92.2809 182.189 92.5196 184.536H92.5187ZM92.5187 146.464H100.136V153.916C97.7371 154.148 95.8644 156.128 95.8644 158.535V160.857H93.4906C91.0323 160.857 89.0077 162.69 88.7686 165.036H81.1525V157.584C83.5511 157.352 85.4237 155.372 85.4237 152.965V150.643H87.7976C90.2559 150.643 92.2804 148.81 92.5196 146.464H92.5187ZM108.702 146.464H101.085V153.916C103.483 154.149 105.356 156.13 105.356 158.535V160.857H107.73C110.19 160.857 112.213 162.689 112.452 165.036H120.068V157.584C117.67 157.351 115.797 155.37 115.797 152.965V150.643H113.423C110.963 150.643 108.939 148.811 108.701 146.464H108.702ZM104.407 169.214V172.465C104.407 174.516 102.708 176.179 100.61 176.179C98.514 176.179 96.8136 174.515 96.8136 172.465V169.214H93.4906C91.3939 169.214 89.6949 167.552 89.6949 165.5C89.6949 163.449 91.3958 161.786 93.4906 161.786H96.8136V158.535C96.8136 156.484 98.5126 154.821 100.61 154.821C102.706 154.821 104.407 156.485 104.407 158.535V161.786H107.73C109.826 161.786 111.525 163.448 111.525 165.5C111.525 167.551 109.825 169.214 107.73 169.214H104.407Z" fill="white" fill-opacity="0.19"/>
<path fill-rule="evenodd" clip-rule="evenodd" d="M120.068 78.6786C117.972 78.6786 116.271 77.0145 116.271 74.9652V71.7143H112.948C110.852 71.7143 109.153 70.0521 109.153 68H91.1188C91.1188 70.0507 89.4179 71.7143 87.3232 71.7143H84.0002V74.9652C84.0002 77.0164 82.3011 78.6786 80.2035 78.6786V96.3214C82.2997 96.3214 84.0002 97.9854 84.0002 100.035V103.286H87.3232C89.4198 103.286 91.1188 104.948 91.1188 107H109.153C109.153 104.949 110.854 103.286 112.948 103.286H116.271V100.035C116.271 97.9836 117.97 96.3214 120.068 96.3214V78.6786ZM108.227 106.536H100.61V99.0839C103.009 98.8518 104.882 96.8721 104.882 94.4652V92.1428H107.255C109.714 92.1428 111.738 90.3103 111.977 87.9643H119.593V95.416C117.195 95.6482 115.322 97.6279 115.322 100.035V102.357H112.948C110.49 102.357 108.466 104.19 108.226 106.536H108.227ZM92.0442 106.536H99.6612V99.0839C97.2632 98.8508 95.39 96.8702 95.39 94.4652V92.1428H93.0162C90.556 92.1428 88.5329 90.3108 88.2941 87.9643H80.6781V95.416C83.0762 95.6491 84.9493 97.6298 84.9493 100.035V102.357H87.3232C89.7834 102.357 91.8065 104.189 92.0452 106.536H92.0442ZM92.0442 68.4643H99.6612V75.9161C97.2627 76.1482 95.39 78.1279 95.39 80.5348V82.8571H93.0162C90.5579 82.8571 88.5333 84.6897 88.2941 87.0357H80.6781V79.5839C83.0766 79.3518 84.9493 77.372 84.9493 74.9652V72.6428H87.3232C89.7815 72.6428 91.806 70.8103 92.0452 68.4643H92.0442ZM108.227 68.4643H100.61V75.9161C103.008 76.1491 104.882 78.1298 104.882 80.5348V82.8571H107.255C109.716 82.8571 111.739 84.6892 111.977 87.0357H119.593V79.5839C117.195 79.3508 115.322 77.3702 115.322 74.9652V72.6428H112.948C110.488 72.6428 108.465 70.8108 108.226 68.4643H108.227ZM103.932 91.2143V94.4652C103.932 96.5164 102.233 98.1786 100.136 98.1786C98.0396 98.1786 96.3392 96.5146 96.3392 94.4652V91.2143H93.0162C90.9195 91.2143 89.2205 89.5521 89.2205 87.5C89.2205 85.4492 90.9214 83.7857 93.0162 83.7857H96.3392V80.5348C96.3392 78.4836 98.0381 76.8214 100.136 76.8214C102.232 76.8214 103.932 78.4854 103.932 80.5348V83.7857H107.255C109.352 83.7857 111.051 85.4478 111.051 87.5C111.051 89.5507 109.35 91.2143 107.255 91.2143H103.932Z" fill="white" fill-opacity="0.19"/>
<path fill-rule="evenodd" clip-rule="evenodd" d="M120.542 195.679C118.446 195.679 116.746 194.015 116.746 191.965V188.714H113.423C111.326 188.714 109.627 187.052 109.627 185H91.5932C91.5932 187.051 89.8923 188.714 87.7976 188.714H84.4746V191.965C84.4746 194.016 82.7756 195.679 80.6779 195.679V213.321C82.7741 213.321 84.4746 214.985 84.4746 217.035V220.286H87.7976C89.8942 220.286 91.5932 221.948 91.5932 224H109.627C109.627 221.949 111.328 220.286 113.423 220.286H116.746V217.035C116.746 214.984 118.445 213.321 120.542 213.321V195.679ZM108.702 223.536H101.085V216.084C103.483 215.852 105.356 213.872 105.356 211.465V209.143H107.73C110.188 209.143 112.213 207.31 112.452 204.964H120.068V212.416C117.669 212.648 115.797 214.628 115.797 217.035V219.357H113.423C110.964 219.357 108.94 221.19 108.701 223.536H108.702ZM92.5187 223.536H100.136V216.084C97.7376 215.851 95.8644 213.87 95.8644 211.465V209.143H93.4906C91.0304 209.143 89.0073 207.311 88.7686 204.964H81.1525V212.416C83.5506 212.649 85.4237 214.63 85.4237 217.035V219.357H87.7976C90.2578 219.357 92.2809 221.189 92.5196 223.536H92.5187ZM92.5187 185.464H100.136V192.916C97.7371 193.148 95.8644 195.128 95.8644 197.535V199.857H93.4906C91.0323 199.857 89.0077 201.69 88.7686 204.036H81.1525V196.584C83.5511 196.352 85.4237 194.372 85.4237 191.965V189.643H87.7976C90.2559 189.643 92.2804 187.81 92.5196 185.464H92.5187ZM108.702 185.464H101.085V192.916C103.483 193.149 105.356 195.13 105.356 197.535V199.857H107.73C110.19 199.857 112.213 201.689 112.452 204.036H120.068V196.584C117.67 196.351 115.797 194.37 115.797 191.965V189.643H113.423C110.963 189.643 108.939 187.811 108.701 185.464H108.702ZM104.407 208.214V211.465C104.407 213.516 102.708 215.179 100.61 215.179C98.514 215.179 96.8136 213.515 96.8136 211.465V208.214H93.4906C91.3939 208.214 89.6949 206.552 89.6949 204.5C89.6949 202.449 91.3958 200.786 93.4906 200.786H96.8136V197.535C96.8136 195.484 98.5126 193.821 100.61 193.821C102.706 193.821 104.407 195.485 104.407 197.535V200.786H107.73C109.826 200.786 111.525 202.448 111.525 204.5C111.525 206.551 109.825 208.214 107.73 208.214H104.407Z" fill="white" fill-opacity="0.19"/>
<path fill-rule="evenodd" clip-rule="evenodd" d="M159.458 0.678572C157.361 0.678572 155.661 -0.985428 155.661 -3.03479V-6.28571H152.338C150.241 -6.28571 148.542 -7.94786 148.542 -10H130.508C130.508 -7.94925 128.808 -6.28571 126.713 -6.28571H123.39V-3.03479C123.39 -0.983572 121.691 0.678572 119.593 0.678572V18.3214C121.69 18.3214 123.39 19.9854 123.39 22.0348V25.2857H126.713C128.809 25.2857 130.508 26.9479 130.508 29H148.542C148.542 26.9493 150.243 25.2857 152.338 25.2857H155.661V22.0348C155.661 19.9836 157.36 18.3214 159.458 18.3214V0.678572ZM147.617 28.5357H140V21.0839C142.398 20.8518 144.271 18.8721 144.271 16.4652V14.1429H146.645C149.103 14.1429 151.128 12.3103 151.367 9.96428H158.983V17.4161C156.584 17.6482 154.712 19.6279 154.712 22.0348V24.3571H152.338C149.88 24.3571 147.855 26.1897 147.616 28.5357H147.617ZM131.434 28.5357H139.051V21.0839C136.653 20.8509 134.78 18.8702 134.78 16.4652V14.1429H132.406C129.946 14.1429 127.922 12.3108 127.684 9.96428H120.068V17.4161C122.466 17.6491 124.339 19.6298 124.339 22.0348V24.3571H126.713C129.173 24.3571 131.196 26.1892 131.435 28.5357H131.434ZM131.434 -9.53571H139.051V-2.08393C136.652 -1.85179 134.78 0.127929 134.78 2.53479V4.85714H132.406C129.947 4.85714 127.923 6.68968 127.684 9.03572H120.068V1.58393C122.466 1.35179 124.339 -0.627928 124.339 -3.03479V-5.35714H126.713C129.171 -5.35714 131.196 -7.18968 131.435 -9.53571H131.434ZM147.617 -9.53571H140V-2.08393C142.398 -1.85086 144.271 0.129786 144.271 2.53479V4.85714H146.645C149.105 4.85714 151.128 6.68921 151.367 9.03572H158.983V1.58393C156.585 1.35086 154.712 -0.629786 154.712 -3.03479V-5.35714H152.338C149.878 -5.35714 147.855 -7.18921 147.616 -9.53571H147.617ZM143.322 13.2143V16.4652C143.322 18.5164 141.623 20.1786 139.525 20.1786C137.429 20.1786 135.729 18.5146 135.729 16.4652V13.2143H132.406C130.309 13.2143 128.61 11.5521 128.61 9.5C128.61 7.44925 130.311 5.78571 132.406 5.78571H135.729V2.53479C135.729 0.483571 137.428 -1.17857 139.525 -1.17857C141.622 -1.17857 143.322 0.485429 143.322 2.53479V5.78571H146.645C148.742 5.78571 150.441 7.44786 150.441 9.5C150.441 11.5507 148.74 13.2143 146.645 13.2143H143.322Z" fill="white" fill-opacity="0.19"/>
<path fill-rule="evenodd" clip-rule="evenodd" d="M159.932 117.679C157.836 117.679 156.136 116.015 156.136 113.965V110.714H152.813C150.716 110.714 149.017 109.052 149.017 107H130.983C130.983 109.051 129.282 110.714 127.187 110.714H123.864V113.965C123.864 116.016 122.166 117.679 120.068 117.679V135.321C122.164 135.321 123.864 136.985 123.864 139.035V142.286H127.187C129.284 142.286 130.983 143.948 130.983 146H149.017C149.017 143.949 150.718 142.286 152.813 142.286H156.136V139.035C156.136 136.984 157.835 135.321 159.932 135.321V117.679ZM148.092 145.536H140.475V138.084C142.873 137.852 144.746 135.872 144.746 133.465V131.143H147.12C149.578 131.143 151.602 129.31 151.842 126.964H159.458V134.416C157.059 134.648 155.186 136.628 155.186 139.035V141.357H152.813C150.354 141.357 148.33 143.19 148.091 145.536H148.092ZM131.908 145.536H139.525V138.084C137.127 137.851 135.254 135.87 135.254 133.465V131.143H132.88C130.42 131.143 128.397 129.311 128.158 126.964H120.542V134.416C122.94 134.649 124.814 136.63 124.814 139.035V141.357H127.187C129.648 141.357 131.671 143.189 131.909 145.536H131.908ZM131.908 107.464H139.525V114.916C137.127 115.148 135.254 117.128 135.254 119.535V121.857H132.88C130.422 121.857 128.398 123.69 128.158 126.036H120.542V118.584C122.941 118.352 124.814 116.372 124.814 113.965V111.643H127.187C129.646 111.643 131.67 109.81 131.909 107.464H131.908ZM148.092 107.464H140.475V114.916C142.873 115.149 144.746 117.13 144.746 119.535V121.857H147.12C149.58 121.857 151.603 123.689 151.842 126.036H159.458V118.584C157.06 118.351 155.186 116.37 155.186 113.965V111.643H152.813C150.352 111.643 148.329 109.811 148.091 107.464H148.092ZM143.797 130.214V133.465C143.797 135.516 142.098 137.179 140 137.179C137.904 137.179 136.203 135.515 136.203 133.465V130.214H132.88C130.784 130.214 129.085 128.552 129.085 126.5C129.085 124.449 130.786 122.786 132.88 122.786H136.203V119.535C136.203 117.484 137.902 115.821 140 115.821C142.096 115.821 143.797 117.485 143.797 119.535V122.786H147.12C149.216 122.786 150.915 124.448 150.915 126.5C150.915 128.551 149.214 130.214 147.12 130.214H143.797Z" fill="white" fill-opacity="0.19"/>
<path fill-rule="evenodd" clip-rule="evenodd" d="M159.932 39.6786C157.836 39.6786 156.136 38.0146 156.136 35.9652V32.7143H152.813C150.716 32.7143 149.017 31.0521 149.017 29H130.983C130.983 31.0507 129.282 32.7143 127.187 32.7143H123.864V35.9652C123.864 38.0164 122.166 39.6786 120.068 39.6786V57.3214C122.164 57.3214 123.864 58.9854 123.864 61.0348V64.2857H127.187C129.284 64.2857 130.983 65.9479 130.983 68H149.017C149.017 65.9492 150.718 64.2857 152.813 64.2857H156.136V61.0348C156.136 58.9836 157.835 57.3214 159.932 57.3214V39.6786ZM148.092 67.5357H140.475V60.0839C142.873 59.8518 144.746 57.8721 144.746 55.4652V53.1429H147.12C149.578 53.1429 151.602 51.3103 151.842 48.9643H159.458V56.4161C157.059 56.6482 155.186 58.6279 155.186 61.0348V63.3571H152.813C150.354 63.3571 148.33 65.1897 148.091 67.5357H148.092ZM131.908 67.5357H139.525V60.0839C137.127 59.8508 135.254 57.8702 135.254 55.4652V53.1429H132.88C130.42 53.1429 128.397 51.3108 128.158 48.9643H120.542V56.4161C122.94 56.6491 124.814 58.6298 124.814 61.0348V63.3571H127.187C129.648 63.3571 131.671 65.1892 131.909 67.5357H131.908ZM131.908 29.4643H139.525V36.9161C137.127 37.1482 135.254 39.1279 135.254 41.5348V43.8571H132.88C130.422 43.8571 128.398 45.6897 128.158 48.0357H120.542V40.5839C122.941 40.3518 124.814 38.3721 124.814 35.9652V33.6428H127.187C129.646 33.6428 131.67 31.8103 131.909 29.4643H131.908ZM148.092 29.4643H140.475V36.9161C142.873 37.1491 144.746 39.1298 144.746 41.5348V43.8571H147.12C149.58 43.8571 151.603 45.6892 151.842 48.0357H159.458V40.5839C157.06 40.3508 155.186 38.3702 155.186 35.9652V33.6428H152.813C150.352 33.6428 148.329 31.8108 148.091 29.4643H148.092ZM143.797 52.2143V55.4652C143.797 57.5164 142.098 59.1786 140 59.1786C137.904 59.1786 136.203 57.5146 136.203 55.4652V52.2143H132.88C130.784 52.2143 129.085 50.5521 129.085 48.5C129.085 46.4492 130.786 44.7857 132.88 44.7857H136.203V41.5348C136.203 39.4836 137.902 37.8214 140 37.8214C142.096 37.8214 143.797 39.4854 143.797 41.5348V44.7857H147.12C149.216 44.7857 150.915 46.4478 150.915 48.5C150.915 50.5507 149.214 52.2143 147.12 52.2143H143.797Z" fill="white" fill-opacity="0.19"/>
<path fill-rule="evenodd" clip-rule="evenodd" d="M160.407 156.679C158.31 156.679 156.61 155.015 156.61 152.965V149.714H153.287C151.19 149.714 149.491 148.052 149.491 146H131.457C131.457 148.051 129.757 149.714 127.662 149.714H124.339V152.965C124.339 155.016 122.64 156.679 120.542 156.679V174.321C122.639 174.321 124.339 175.985 124.339 178.035V181.286H127.662C129.758 181.286 131.457 182.948 131.457 185H149.491C149.491 182.949 151.192 181.286 153.287 181.286H156.61V178.035C156.61 175.984 158.309 174.321 160.407 174.321V156.679ZM148.566 184.536H140.949V177.084C143.348 176.852 145.22 174.872 145.22 172.465V170.143H147.594C150.052 170.143 152.077 168.31 152.316 165.964H159.932V173.416C157.534 173.648 155.661 175.628 155.661 178.035V180.357H153.287C150.829 180.357 148.804 182.19 148.565 184.536H148.566ZM132.383 184.536H140V177.084C137.602 176.851 135.729 174.87 135.729 172.465V170.143H133.355C130.895 170.143 128.871 168.311 128.633 165.964H121.017V173.416C123.415 173.649 125.288 175.63 125.288 178.035V180.357H127.662C130.122 180.357 132.145 182.189 132.384 184.536H132.383ZM132.383 146.464H140V153.916C137.601 154.148 135.729 156.128 135.729 158.535V160.857H133.355C130.897 160.857 128.872 162.69 128.633 165.036H121.017V157.584C123.415 157.352 125.288 155.372 125.288 152.965V150.643H127.662C130.12 150.643 132.145 148.81 132.384 146.464H132.383ZM148.566 146.464H140.949V153.916C143.347 154.149 145.22 156.13 145.22 158.535V160.857H147.594C150.054 160.857 152.077 162.689 152.316 165.036H159.932V157.584C157.534 157.351 155.661 155.37 155.661 152.965V150.643H153.287C150.827 150.643 148.804 148.811 148.565 146.464H148.566ZM144.271 169.214V172.465C144.271 174.516 142.572 176.179 140.474 176.179C138.378 176.179 136.678 174.515 136.678 172.465V169.214H133.355C131.258 169.214 129.559 167.552 129.559 165.5C129.559 163.449 131.26 161.786 133.355 161.786H136.678V158.535C136.678 156.484 138.377 154.821 140.474 154.821C142.571 154.821 144.271 156.485 144.271 158.535V161.786H147.594C149.691 161.786 151.39 163.448 151.39 165.5C151.39 167.551 149.689 169.214 147.594 169.214H144.271Z" fill="white" fill-opacity="0.19"/>
<path fill-rule="evenodd" clip-rule="evenodd" d="M159.932 78.6786C157.836 78.6786 156.136 77.0145 156.136 74.9652V71.7143H152.813C150.716 71.7143 149.017 70.0521 149.017 68H130.983C130.983 70.0507 129.282 71.7143 127.187 71.7143H123.864V74.9652C123.864 77.0164 122.166 78.6786 120.068 78.6786V96.3214C122.164 96.3214 123.864 97.9854 123.864 100.035V103.286H127.187C129.284 103.286 130.983 104.948 130.983 107H149.017C149.017 104.949 150.718 103.286 152.813 103.286H156.136V100.035C156.136 97.9836 157.835 96.3214 159.932 96.3214V78.6786ZM148.092 106.536H140.475V99.0839C142.873 98.8518 144.746 96.8721 144.746 94.4652V92.1428H147.12C149.578 92.1428 151.602 90.3103 151.842 87.9643H159.458V95.416C157.059 95.6482 155.186 97.6279 155.186 100.035V102.357H152.813C150.354 102.357 148.33 104.19 148.091 106.536H148.092ZM131.908 106.536H139.525V99.0839C137.127 98.8508 135.254 96.8702 135.254 94.4652V92.1428H132.88C130.42 92.1428 128.397 90.3108 128.158 87.9643H120.542V95.416C122.94 95.6491 124.814 97.6298 124.814 100.035V102.357H127.187C129.648 102.357 131.671 104.189 131.909 106.536H131.908ZM131.908 68.4643H139.525V75.9161C137.127 76.1482 135.254 78.1279 135.254 80.5348V82.8571H132.88C130.422 82.8571 128.398 84.6897 128.158 87.0357H120.542V79.5839C122.941 79.3518 124.814 77.372 124.814 74.9652V72.6428H127.187C129.646 72.6428 131.67 70.8103 131.909 68.4643H131.908ZM148.092 68.4643H140.475V75.9161C142.873 76.1491 144.746 78.1298 144.746 80.5348V82.8571H147.12C149.58 82.8571 151.603 84.6892 151.842 87.0357H159.458V79.5839C157.06 79.3508 155.186 77.3702 155.186 74.9652V72.6428H152.813C150.352 72.6428 148.329 70.8108 148.091 68.4643H148.092ZM143.797 91.2143V94.4652C143.797 96.5164 142.098 98.1786 140 98.1786C137.904 98.1786 136.203 96.5146 136.203 94.4652V91.2143H132.88C130.784 91.2143 129.085 89.5521 129.085 87.5C129.085 85.4492 130.786 83.7857 132.88 83.7857H136.203V80.5348C136.203 78.4836 137.902 76.8214 140 76.8214C142.096 76.8214 143.797 78.4854 143.797 80.5348V83.7857H147.12C149.216 83.7857 150.915 85.4478 150.915 87.5C150.915 89.5507 149.214 91.2143 147.12 91.2143H143.797Z" fill="white" fill-opacity="0.19"/>
<path fill-rule="evenodd" clip-rule="evenodd" d="M160.407 195.679C158.31 195.679 156.61 194.015 156.61 191.965V188.714H153.287C151.19 188.714 149.491 187.052 149.491 185H131.457C131.457 187.051 129.757 188.714 127.662 188.714H124.339V191.965C124.339 194.016 122.64 195.679 120.542 195.679V213.321C122.639 213.321 124.339 214.985 124.339 217.035V220.286H127.662C129.758 220.286 131.457 221.948 131.457 224H149.491C149.491 221.949 151.192 220.286 153.287 220.286H156.61V217.035C156.61 214.984 158.309 213.321 160.407 213.321V195.679ZM148.566 223.536H140.949V216.084C143.348 215.852 145.22 213.872 145.22 211.465V209.143H147.594C150.052 209.143 152.077 207.31 152.316 204.964H159.932V212.416C157.534 212.648 155.661 214.628 155.661 217.035V219.357H153.287C150.829 219.357 148.804 221.19 148.565 223.536H148.566ZM132.383 223.536H140V216.084C137.602 215.851 135.729 213.87 135.729 211.465V209.143H133.355C130.895 209.143 128.871 207.311 128.633 204.964H121.017V212.416C123.415 212.649 125.288 214.63 125.288 217.035V219.357H127.662C130.122 219.357 132.145 221.189 132.384 223.536H132.383ZM132.383 185.464H140V192.916C137.601 193.148 135.729 195.128 135.729 197.535V199.857H133.355C130.897 199.857 128.872 201.69 128.633 204.036H121.017V196.584C123.415 196.352 125.288 194.372 125.288 191.965V189.643H127.662C130.12 189.643 132.145 187.81 132.384 185.464H132.383ZM148.566 185.464H140.949V192.916C143.347 193.149 145.22 195.13 145.22 197.535V199.857H147.594C150.054 199.857 152.077 201.689 152.316 204.036H159.932V196.584C157.534 196.351 155.661 194.37 155.661 191.965V189.643H153.287C150.827 189.643 148.804 187.811 148.565 185.464H148.566ZM144.271 208.214V211.465C144.271 213.516 142.572 215.179 140.474 215.179C138.378 215.179 136.678 213.515 136.678 211.465V208.214H133.355C131.258 208.214 129.559 206.552 129.559 204.5C129.559 202.449 131.26 200.786 133.355 200.786H136.678V197.535C136.678 195.484 138.377 193.821 140.474 193.821C142.571 193.821 144.271 195.485 144.271 197.535V200.786H147.594C149.691 200.786 151.39 202.448 151.39 204.5C151.39 206.551 149.689 208.214 147.594 208.214H144.271Z" fill="white" fill-opacity="0.19"/>
<path fill-rule="evenodd" clip-rule="evenodd" d="M199.322 0.678572C197.226 0.678572 195.526 -0.985428 195.526 -3.03479V-6.28571H192.203C190.106 -6.28571 188.407 -7.94786 188.407 -10H170.373C170.373 -7.94925 168.672 -6.28571 166.577 -6.28571H163.254V-3.03479C163.254 -0.983572 161.555 0.678572 159.458 0.678572V18.3214C161.554 18.3214 163.254 19.9854 163.254 22.0348V25.2857H166.577C168.674 25.2857 170.373 26.9479 170.373 29H188.407C188.407 26.9493 190.108 25.2857 192.203 25.2857H195.526V22.0348C195.526 19.9836 197.225 18.3214 199.322 18.3214V0.678572ZM187.482 28.5357H179.865V21.0839C182.263 20.8518 184.136 18.8721 184.136 16.4652V14.1429H186.51C188.968 14.1429 190.992 12.3103 191.232 9.96428H198.848V17.4161C196.449 17.6482 194.576 19.6279 194.576 22.0348V24.3571H192.203C189.744 24.3571 187.72 26.1897 187.481 28.5357H187.482ZM171.299 28.5357H178.915V21.0839C176.517 20.8509 174.644 18.8702 174.644 16.4652V14.1429H172.27C169.81 14.1429 167.787 12.3108 167.548 9.96428H159.932V17.4161C162.33 17.6491 164.204 19.6298 164.204 22.0348V24.3571H166.577C169.038 24.3571 171.061 26.1892 171.299 28.5357H171.299ZM171.299 -9.53571H178.915V-2.08393C176.517 -1.85179 174.644 0.127929 174.644 2.53479V4.85714H172.27C169.812 4.85714 167.788 6.68968 167.548 9.03572H159.932V1.58393C162.331 1.35179 164.204 -0.627928 164.204 -3.03479V-5.35714H166.577C169.036 -5.35714 171.06 -7.18968 171.299 -9.53571H171.299ZM187.482 -9.53571H179.865V-2.08393C182.263 -1.85086 184.136 0.129786 184.136 2.53479V4.85714H186.51C188.97 4.85714 190.993 6.68921 191.232 9.03572H198.848V1.58393C196.45 1.35086 194.576 -0.629786 194.576 -3.03479V-5.35714H192.203C189.742 -5.35714 187.719 -7.18921 187.481 -9.53571H187.482ZM183.187 13.2143V16.4652C183.187 18.5164 181.488 20.1786 179.39 20.1786C177.294 20.1786 175.593 18.5146 175.593 16.4652V13.2143H172.27C170.174 13.2143 168.475 11.5521 168.475 9.5C168.475 7.44925 170.176 5.78571 172.27 5.78571H175.593V2.53479C175.593 0.483571 177.292 -1.17857 179.39 -1.17857C181.486 -1.17857 183.187 0.485429 183.187 2.53479V5.78571H186.51C188.606 5.78571 190.305 7.44786 190.305 9.5C190.305 11.5507 188.604 13.2143 186.51 13.2143H183.187Z" fill="white" fill-opacity="0.19"/>
<path fill-rule="evenodd" clip-rule="evenodd" d="M199.797 117.679C197.7 117.679 196 116.015 196 113.965V110.714H192.677C190.58 110.714 188.881 109.052 188.881 107H170.848C170.848 109.051 169.147 110.714 167.052 110.714H163.729V113.965C163.729 116.016 162.03 117.679 159.932 117.679V135.321C162.028 135.321 163.729 136.985 163.729 139.035V142.286H167.052C169.149 142.286 170.848 143.948 170.848 146H188.881C188.881 143.949 190.582 142.286 192.677 142.286H196V139.035C196 136.984 197.699 135.321 199.797 135.321V117.679ZM187.956 145.536H180.339V138.084C182.738 137.852 184.61 135.872 184.61 133.465V131.143H186.984C189.442 131.143 191.467 129.31 191.706 126.964H199.322V134.416C196.924 134.648 195.051 136.628 195.051 139.035V141.357H192.677C190.219 141.357 188.194 143.19 187.955 145.536H187.956ZM171.773 145.536H179.39V138.084C176.992 137.851 175.119 135.87 175.119 133.465V131.143H172.745C170.285 131.143 168.262 129.311 168.023 126.964H160.407V134.416C162.805 134.649 164.678 136.63 164.678 139.035V141.357H167.052C169.512 141.357 171.535 143.189 171.774 145.536H171.773ZM171.773 107.464H179.39V114.916C176.991 115.148 175.119 117.128 175.119 119.535V121.857H172.745C170.287 121.857 168.262 123.69 168.023 126.036H160.407V118.584C162.805 118.352 164.678 116.372 164.678 113.965V111.643H167.052C169.51 111.643 171.535 109.81 171.774 107.464H171.773ZM187.956 107.464H180.339V114.916C182.737 115.149 184.61 117.13 184.61 119.535V121.857H186.984C189.444 121.857 191.467 123.689 191.706 126.036H199.322V118.584C196.924 118.351 195.051 116.37 195.051 113.965V111.643H192.677C190.217 111.643 188.194 109.811 187.955 107.464H187.956ZM183.661 130.214V133.465C183.661 135.516 181.962 137.179 179.864 137.179C177.768 137.179 176.068 135.515 176.068 133.465V130.214H172.745C170.648 130.214 168.949 128.552 168.949 126.5C168.949 124.449 170.65 122.786 172.745 122.786H176.068V119.535C176.068 117.484 177.767 115.821 179.864 115.821C181.961 115.821 183.661 117.485 183.661 119.535V122.786H186.984C189.081 122.786 190.78 124.448 190.78 126.5C190.78 128.551 189.079 130.214 186.984 130.214H183.661Z" fill="white" fill-opacity="0.19"/>
<path fill-rule="evenodd" clip-rule="evenodd" d="M199.797 39.6786C197.7 39.6786 196 38.0146 196 35.9652V32.7143H192.677C190.58 32.7143 188.881 31.0521 188.881 29H170.848C170.848 31.0507 169.147 32.7143 167.052 32.7143H163.729V35.9652C163.729 38.0164 162.03 39.6786 159.932 39.6786V57.3214C162.028 57.3214 163.729 58.9854 163.729 61.0348V64.2857H167.052C169.149 64.2857 170.848 65.9479 170.848 68H188.881C188.881 65.9492 190.582 64.2857 192.677 64.2857H196V61.0348C196 58.9836 197.699 57.3214 199.797 57.3214V39.6786ZM187.956 67.5357H180.339V60.0839C182.738 59.8518 184.61 57.8721 184.61 55.4652V53.1429H186.984C189.442 53.1429 191.467 51.3103 191.706 48.9643H199.322V56.4161C196.924 56.6482 195.051 58.6279 195.051 61.0348V63.3571H192.677C190.219 63.3571 188.194 65.1897 187.955 67.5357H187.956ZM171.773 67.5357H179.39V60.0839C176.992 59.8508 175.119 57.8702 175.119 55.4652V53.1429H172.745C170.285 53.1429 168.262 51.3108 168.023 48.9643H160.407V56.4161C162.805 56.6491 164.678 58.6298 164.678 61.0348V63.3571H167.052C169.512 63.3571 171.535 65.1892 171.774 67.5357H171.773ZM171.773 29.4643H179.39V36.9161C176.991 37.1482 175.119 39.1279 175.119 41.5348V43.8571H172.745C170.287 43.8571 168.262 45.6897 168.023 48.0357H160.407V40.5839C162.805 40.3518 164.678 38.3721 164.678 35.9652V33.6428H167.052C169.51 33.6428 171.535 31.8103 171.774 29.4643H171.773ZM187.956 29.4643H180.339V36.9161C182.737 37.1491 184.61 39.1298 184.61 41.5348V43.8571H186.984C189.444 43.8571 191.467 45.6892 191.706 48.0357H199.322V40.5839C196.924 40.3508 195.051 38.3702 195.051 35.9652V33.6428H192.677C190.217 33.6428 188.194 31.8108 187.955 29.4643H187.956ZM183.661 52.2143V55.4652C183.661 57.5164 181.962 59.1786 179.864 59.1786C177.768 59.1786 176.068 57.5146 176.068 55.4652V52.2143H172.745C170.648 52.2143 168.949 50.5521 168.949 48.5C168.949 46.4492 170.65 44.7857 172.745 44.7857H176.068V41.5348C176.068 39.4836 177.767 37.8214 179.864 37.8214C181.961 37.8214 183.661 39.4854 183.661 41.5348V44.7857H186.984C189.081 44.7857 190.78 46.4478 190.78 48.5C190.78 50.5507 189.079 52.2143 186.984 52.2143H183.661Z" fill="white" fill-opacity="0.19"/>
<path fill-rule="evenodd" clip-rule="evenodd" d="M200.271 156.679C198.175 156.679 196.475 155.015 196.475 152.965V149.714H193.152C191.055 149.714 189.356 148.052 189.356 146H171.322C171.322 148.051 169.621 149.714 167.526 149.714H164.203V152.965C164.203 155.016 162.504 156.679 160.407 156.679V174.321C162.503 174.321 164.203 175.985 164.203 178.035V181.286H167.526C169.623 181.286 171.322 182.948 171.322 185H189.356C189.356 182.949 191.057 181.286 193.152 181.286H196.475V178.035C196.475 175.984 198.174 174.321 200.271 174.321V156.679ZM188.431 184.536H180.814V177.084C183.212 176.852 185.085 174.872 185.085 172.465V170.143H187.459C189.917 170.143 191.942 168.31 192.181 165.964H199.797V173.416C197.398 173.648 195.526 175.628 195.526 178.035V180.357H193.152C190.693 180.357 188.669 182.19 188.43 184.536H188.431ZM172.248 184.536H179.865V177.084C177.466 176.851 175.593 174.87 175.593 172.465V170.143H173.219C170.759 170.143 168.736 168.311 168.497 165.964H160.881V173.416C163.279 173.649 165.153 175.63 165.153 178.035V180.357H167.526C169.987 180.357 172.01 182.189 172.249 184.536H172.248ZM172.248 146.464H179.865V153.916C177.466 154.148 175.593 156.128 175.593 158.535V160.857H173.219C170.761 160.857 168.737 162.69 168.497 165.036H160.881V157.584C163.28 157.352 165.153 155.372 165.153 152.965V150.643H167.526C169.985 150.643 172.009 148.81 172.249 146.464H172.248ZM188.431 146.464H180.814V153.916C183.212 154.149 185.085 156.13 185.085 158.535V160.857H187.459C189.919 160.857 191.942 162.689 192.181 165.036H199.797V157.584C197.399 157.351 195.526 155.37 195.526 152.965V150.643H193.152C190.692 150.643 188.668 148.811 188.43 146.464H188.431ZM184.136 169.214V172.465C184.136 174.516 182.437 176.179 180.339 176.179C178.243 176.179 176.542 174.515 176.542 172.465V169.214H173.219C171.123 169.214 169.424 167.552 169.424 165.5C169.424 163.449 171.125 161.786 173.219 161.786H176.542V158.535C176.542 156.484 178.241 154.821 180.339 154.821C182.435 154.821 184.136 156.485 184.136 158.535V161.786H187.459C189.555 161.786 191.254 163.448 191.254 165.5C191.254 167.551 189.553 169.214 187.459 169.214H184.136Z" fill="white" fill-opacity="0.19"/>
<path fill-rule="evenodd" clip-rule="evenodd" d="M199.797 78.6786C197.7 78.6786 196 77.0145 196 74.9652V71.7143H192.677C190.58 71.7143 188.881 70.0521 188.881 68H170.848C170.848 70.0507 169.147 71.7143 167.052 71.7143H163.729V74.9652C163.729 77.0164 162.03 78.6786 159.932 78.6786V96.3214C162.028 96.3214 163.729 97.9854 163.729 100.035V103.286H167.052C169.149 103.286 170.848 104.948 170.848 107H188.881C188.881 104.949 190.582 103.286 192.677 103.286H196V100.035C196 97.9836 197.699 96.3214 199.797 96.3214V78.6786ZM187.956 106.536H180.339V99.0839C182.738 98.8518 184.61 96.8721 184.61 94.4652V92.1428H186.984C189.442 92.1428 191.467 90.3103 191.706 87.9643H199.322V95.416C196.924 95.6482 195.051 97.6279 195.051 100.035V102.357H192.677C190.219 102.357 188.194 104.19 187.955 106.536H187.956ZM171.773 106.536H179.39V99.0839C176.992 98.8508 175.119 96.8702 175.119 94.4652V92.1428H172.745C170.285 92.1428 168.262 90.3108 168.023 87.9643H160.407V95.416C162.805 95.6491 164.678 97.6298 164.678 100.035V102.357H167.052C169.512 102.357 171.535 104.189 171.774 106.536H171.773ZM171.773 68.4643H179.39V75.9161C176.991 76.1482 175.119 78.1279 175.119 80.5348V82.8571H172.745C170.287 82.8571 168.262 84.6897 168.023 87.0357H160.407V79.5839C162.805 79.3518 164.678 77.372 164.678 74.9652V72.6428H167.052C169.51 72.6428 171.535 70.8103 171.774 68.4643H171.773ZM187.956 68.4643H180.339V75.9161C182.737 76.1491 184.61 78.1298 184.61 80.5348V82.8571H186.984C189.444 82.8571 191.467 84.6892 191.706 87.0357H199.322V79.5839C196.924 79.3508 195.051 77.3702 195.051 74.9652V72.6428H192.677C190.217 72.6428 188.194 70.8108 187.955 68.4643H187.956ZM183.661 91.2143V94.4652C183.661 96.5164 181.962 98.1786 179.864 98.1786C177.768 98.1786 176.068 96.5146 176.068 94.4652V91.2143H172.745C170.648 91.2143 168.949 89.5521 168.949 87.5C168.949 85.4492 170.65 83.7857 172.745 83.7857H176.068V80.5348C176.068 78.4836 177.767 76.8214 179.864 76.8214C181.961 76.8214 183.661 78.4854 183.661 80.5348V83.7857H186.984C189.081 83.7857 190.78 85.4478 190.78 87.5C190.78 89.5507 189.079 91.2143 186.984 91.2143H183.661Z" fill="white" fill-opacity="0.19"/>
<path fill-rule="evenodd" clip-rule="evenodd" d="M200.271 195.679C198.175 195.679 196.475 194.015 196.475 191.965V188.714H193.152C191.055 188.714 189.356 187.052 189.356 185H171.322C171.322 187.051 169.621 188.714 167.526 188.714H164.203V191.965C164.203 194.016 162.504 195.679 160.407 195.679V213.321C162.503 213.321 164.203 214.985 164.203 217.035V220.286H167.526C169.623 220.286 171.322 221.948 171.322 224H189.356C189.356 221.949 191.057 220.286 193.152 220.286H196.475V217.035C196.475 214.984 198.174 213.321 200.271 213.321V195.679ZM188.431 223.536H180.814V216.084C183.212 215.852 185.085 213.872 185.085 211.465V209.143H187.459C189.917 209.143 191.942 207.31 192.181 204.964H199.797V212.416C197.398 212.648 195.526 214.628 195.526 217.035V219.357H193.152C190.693 219.357 188.669 221.19 188.43 223.536H188.431ZM172.248 223.536H179.865V216.084C177.466 215.851 175.593 213.87 175.593 211.465V209.143H173.219C170.759 209.143 168.736 207.311 168.497 204.964H160.881V212.416C163.279 212.649 165.153 214.63 165.153 217.035V219.357H167.526C169.987 219.357 172.01 221.189 172.249 223.536H172.248ZM172.248 185.464H179.865V192.916C177.466 193.148 175.593 195.128 175.593 197.535V199.857H173.219C170.761 199.857 168.737 201.69 168.497 204.036H160.881V196.584C163.28 196.352 165.153 194.372 165.153 191.965V189.643H167.526C169.985 189.643 172.009 187.81 172.249 185.464H172.248ZM188.431 185.464H180.814V192.916C183.212 193.149 185.085 195.13 185.085 197.535V199.857H187.459C189.919 199.857 191.942 201.689 192.181 204.036H199.797V196.584C197.399 196.351 195.526 194.37 195.526 191.965V189.643H193.152C190.692 189.643 188.668 187.811 188.43 185.464H188.431ZM184.136 208.214V211.465C184.136 213.516 182.437 215.179 180.339 215.179C178.243 215.179 176.542 213.515 176.542 211.465V208.214H173.219C171.123 208.214 169.424 206.552 169.424 204.5C169.424 202.449 171.125 200.786 173.219 200.786H176.542V197.535C176.542 195.484 178.241 193.821 180.339 193.821C182.435 193.821 184.136 195.485 184.136 197.535V200.786H187.459C189.555 200.786 191.254 202.448 191.254 204.5C191.254 206.551 189.553 208.214 187.459 208.214H184.136Z" fill="white" fill-opacity="0.19"/>
<path fill-rule="evenodd" clip-rule="evenodd" d="M239.187 0.678572C237.091 0.678572 235.39 -0.985428 235.39 -3.03479V-6.28571H232.067C229.97 -6.28571 228.271 -7.94786 228.271 -10H210.238C210.238 -7.94925 208.537 -6.28571 206.442 -6.28571H203.119V-3.03479C203.119 -0.983572 201.42 0.678572 199.322 0.678572V18.3214C201.418 18.3214 203.119 19.9854 203.119 22.0348V25.2857H206.442C208.539 25.2857 210.238 26.9479 210.238 29H228.271C228.271 26.9493 229.972 25.2857 232.067 25.2857H235.39V22.0348C235.39 19.9836 237.089 18.3214 239.187 18.3214V0.678572ZM227.346 28.5357H219.729V21.0839C222.128 20.8518 224 18.8721 224 16.4652V14.1429H226.374C228.832 14.1429 230.857 12.3103 231.096 9.96428H238.712V17.4161C236.314 17.6482 234.441 19.6279 234.441 22.0348V24.3571H232.067C229.609 24.3571 227.584 26.1897 227.345 28.5357H227.346ZM211.163 28.5357H218.78V21.0839C216.382 20.8509 214.509 18.8702 214.509 16.4652V14.1429H212.135C209.675 14.1429 207.652 12.3108 207.413 9.96428H199.797V17.4161C202.195 17.6491 204.068 19.6298 204.068 22.0348V24.3571H206.442C208.902 24.3571 210.925 26.1892 211.164 28.5357H211.163ZM211.163 -9.53571H218.78V-2.08393C216.381 -1.85179 214.509 0.127929 214.509 2.53479V4.85714H212.135C209.677 4.85714 207.652 6.68968 207.413 9.03572H199.797V1.58393C202.195 1.35179 204.068 -0.627928 204.068 -3.03479V-5.35714H206.442C208.9 -5.35714 210.925 -7.18968 211.164 -9.53571H211.163ZM227.346 -9.53571H219.729V-2.08393C222.127 -1.85086 224 0.129786 224 2.53479V4.85714H226.374C228.834 4.85714 230.857 6.68921 231.096 9.03572H238.712V1.58393C236.314 1.35086 234.441 -0.629786 234.441 -3.03479V-5.35714H232.067C229.607 -5.35714 227.584 -7.18921 227.345 -9.53571H227.346ZM223.051 13.2143V16.4652C223.051 18.5164 221.352 20.1786 219.255 20.1786C217.158 20.1786 215.458 18.5146 215.458 16.4652V13.2143H212.135C210.038 13.2143 208.339 11.5521 208.339 9.5C208.339 7.44925 210.04 5.78571 212.135 5.78571H215.458V2.53479C215.458 0.483571 217.157 -1.17857 219.255 -1.17857C221.351 -1.17857 223.051 0.485429 223.051 2.53479V5.78571H226.374C228.471 5.78571 230.17 7.44786 230.17 9.5C230.17 11.5507 228.469 13.2143 226.374 13.2143H223.051Z" fill="white" fill-opacity="0.19"/>
<path fill-rule="evenodd" clip-rule="evenodd" d="M239.661 117.679C237.565 117.679 235.865 116.015 235.865 113.965V110.714H232.542C230.445 110.714 228.746 109.052 228.746 107H210.712C210.712 109.051 209.011 110.714 206.916 110.714H203.593V113.965C203.593 116.016 201.894 117.679 199.797 117.679V135.321C201.893 135.321 203.593 136.985 203.593 139.035V142.286H206.916C209.013 142.286 210.712 143.948 210.712 146H228.746C228.746 143.949 230.447 142.286 232.542 142.286H235.865V139.035C235.865 136.984 237.564 135.321 239.661 135.321V117.679ZM227.82 145.536H220.203V138.084C222.602 137.852 224.475 135.872 224.475 133.465V131.143H226.849C229.307 131.143 231.331 129.31 231.571 126.964H239.187V134.416C236.788 134.648 234.915 136.628 234.915 139.035V141.357H232.542C230.083 141.357 228.059 143.19 227.82 145.536H227.82ZM211.637 145.536H219.254V138.084C216.856 137.851 214.983 135.87 214.983 133.465V131.143H212.609C210.149 131.143 208.126 129.311 207.887 126.964H200.271V134.416C202.669 134.649 204.542 136.63 204.542 139.035V141.357H206.916C209.377 141.357 211.4 143.189 211.638 145.536H211.637ZM211.637 107.464H219.254V114.916C216.856 115.148 214.983 117.128 214.983 119.535V121.857H212.609C210.151 121.857 208.126 123.69 207.887 126.036H200.271V118.584C202.67 118.352 204.542 116.372 204.542 113.965V111.643H206.916C209.375 111.643 211.399 109.81 211.638 107.464H211.637ZM227.82 107.464H220.203V114.916C222.602 115.149 224.475 117.13 224.475 119.535V121.857H226.849C229.309 121.857 231.332 123.689 231.571 126.036H239.187V118.584C236.789 118.351 234.915 116.37 234.915 113.965V111.643H232.542C230.081 111.643 228.058 109.811 227.82 107.464H227.82ZM223.526 130.214V133.465C223.526 135.516 221.827 137.179 219.729 137.179C217.633 137.179 215.932 135.515 215.932 133.465V130.214H212.609C210.513 130.214 208.814 128.552 208.814 126.5C208.814 124.449 210.515 122.786 212.609 122.786H215.932V119.535C215.932 117.484 217.631 115.821 219.729 115.821C221.825 115.821 223.526 117.485 223.526 119.535V122.786H226.849C228.945 122.786 230.644 124.448 230.644 126.5C230.644 128.551 228.943 130.214 226.849 130.214H223.526Z" fill="white" fill-opacity="0.19"/>
<path fill-rule="evenodd" clip-rule="evenodd" d="M239.661 39.6786C237.565 39.6786 235.865 38.0146 235.865 35.9652V32.7143H232.542C230.445 32.7143 228.746 31.0521 228.746 29H210.712C210.712 31.0507 209.011 32.7143 206.916 32.7143H203.593V35.9652C203.593 38.0164 201.894 39.6786 199.797 39.6786V57.3214C201.893 57.3214 203.593 58.9854 203.593 61.0348V64.2857H206.916C209.013 64.2857 210.712 65.9479 210.712 68H228.746C228.746 65.9492 230.447 64.2857 232.542 64.2857H235.865V61.0348C235.865 58.9836 237.564 57.3214 239.661 57.3214V39.6786ZM227.82 67.5357H220.203V60.0839C222.602 59.8518 224.475 57.8721 224.475 55.4652V53.1429H226.849C229.307 53.1429 231.331 51.3103 231.571 48.9643H239.187V56.4161C236.788 56.6482 234.915 58.6279 234.915 61.0348V63.3571H232.542C230.083 63.3571 228.059 65.1897 227.82 67.5357H227.82ZM211.637 67.5357H219.254V60.0839C216.856 59.8508 214.983 57.8702 214.983 55.4652V53.1429H212.609C210.149 53.1429 208.126 51.3108 207.887 48.9643H200.271V56.4161C202.669 56.6491 204.542 58.6298 204.542 61.0348V63.3571H206.916C209.377 63.3571 211.4 65.1892 211.638 67.5357H211.637ZM211.637 29.4643H219.254V36.9161C216.856 37.1482 214.983 39.1279 214.983 41.5348V43.8571H212.609C210.151 43.8571 208.126 45.6897 207.887 48.0357H200.271V40.5839C202.67 40.3518 204.542 38.3721 204.542 35.9652V33.6428H206.916C209.375 33.6428 211.399 31.8103 211.638 29.4643H211.637ZM227.82 29.4643H220.203V36.9161C222.602 37.1491 224.475 39.1298 224.475 41.5348V43.8571H226.849C229.309 43.8571 231.332 45.6892 231.571 48.0357H239.187V40.5839C236.789 40.3508 234.915 38.3702 234.915 35.9652V33.6428H232.542C230.081 33.6428 228.058 31.8108 227.82 29.4643H227.82ZM223.526 52.2143V55.4652C223.526 57.5164 221.827 59.1786 219.729 59.1786C217.633 59.1786 215.932 57.5146 215.932 55.4652V52.2143H212.609C210.513 52.2143 208.814 50.5521 208.814 48.5C208.814 46.4492 210.515 44.7857 212.609 44.7857H215.932V41.5348C215.932 39.4836 217.631 37.8214 219.729 37.8214C221.825 37.8214 223.526 39.4854 223.526 41.5348V44.7857H226.849C228.945 44.7857 230.644 46.4478 230.644 48.5C230.644 50.5507 228.943 52.2143 226.849 52.2143H223.526Z" fill="white" fill-opacity="0.19"/>
<path fill-rule="evenodd" clip-rule="evenodd" d="M240.136 156.679C238.04 156.679 236.339 155.015 236.339 152.965V149.714H233.016C230.919 149.714 229.221 148.052 229.221 146H211.187C211.187 148.051 209.486 149.714 207.391 149.714H204.068V152.965C204.068 155.016 202.369 156.679 200.271 156.679V174.321C202.368 174.321 204.068 175.985 204.068 178.035V181.286H207.391C209.488 181.286 211.187 182.948 211.187 185H229.221C229.221 182.949 230.921 181.286 233.016 181.286H236.339V178.035C236.339 175.984 238.038 174.321 240.136 174.321V156.679ZM228.295 184.536H220.678V177.084C223.077 176.852 224.949 174.872 224.949 172.465V170.143H227.323C229.781 170.143 231.806 168.31 232.045 165.964H239.661V173.416C237.263 173.648 235.39 175.628 235.39 178.035V180.357H233.016C230.558 180.357 228.533 182.19 228.294 184.536H228.295ZM212.112 184.536H219.729V177.084C217.331 176.851 215.458 174.87 215.458 172.465V170.143H213.084C210.624 170.143 208.601 168.311 208.362 165.964H200.746V173.416C203.144 173.649 205.017 175.63 205.017 178.035V180.357H207.391C209.851 180.357 211.874 182.189 212.113 184.536H212.112ZM212.112 146.464H219.729V153.916C217.33 154.148 215.458 156.128 215.458 158.535V160.857H213.084C210.626 160.857 208.601 162.69 208.362 165.036H200.746V157.584C203.144 157.352 205.017 155.372 205.017 152.965V150.643H207.391C209.849 150.643 211.874 148.81 212.113 146.464H212.112ZM228.295 146.464H220.678V153.916C223.076 154.149 224.949 156.13 224.949 158.535V160.857H227.323C229.783 160.857 231.806 162.689 232.045 165.036H239.661V157.584C237.263 157.351 235.39 155.37 235.39 152.965V150.643H233.016C230.556 150.643 228.533 148.811 228.294 146.464H228.295ZM224 169.214V172.465C224 174.516 222.301 176.179 220.204 176.179C218.107 176.179 216.407 174.515 216.407 172.465V169.214H213.084C210.987 169.214 209.288 167.552 209.288 165.5C209.288 163.449 210.989 161.786 213.084 161.786H216.407V158.535C216.407 156.484 218.106 154.821 220.204 154.821C222.3 154.821 224 156.485 224 158.535V161.786H227.323C229.42 161.786 231.119 163.448 231.119 165.5C231.119 167.551 229.418 169.214 227.323 169.214H224Z" fill="white" fill-opacity="0.19"/>
<path fill-rule="evenodd" clip-rule="evenodd" d="M239.661 78.6786C237.565 78.6786 235.865 77.0145 235.865 74.9652V71.7143H232.542C230.445 71.7143 228.746 70.0521 228.746 68H210.712C210.712 70.0507 209.011 71.7143 206.916 71.7143H203.593V74.9652C203.593 77.0164 201.894 78.6786 199.797 78.6786V96.3214C201.893 96.3214 203.593 97.9854 203.593 100.035V103.286H206.916C209.013 103.286 210.712 104.948 210.712 107H228.746C228.746 104.949 230.447 103.286 232.542 103.286H235.865V100.035C235.865 97.9836 237.564 96.3214 239.661 96.3214V78.6786ZM227.82 106.536H220.203V99.0839C222.602 98.8518 224.475 96.8721 224.475 94.4652V92.1428H226.849C229.307 92.1428 231.331 90.3103 231.571 87.9643H239.187V95.416C236.788 95.6482 234.915 97.6279 234.915 100.035V102.357H232.542C230.083 102.357 228.059 104.19 227.82 106.536H227.82ZM211.637 106.536H219.254V99.0839C216.856 98.8508 214.983 96.8702 214.983 94.4652V92.1428H212.609C210.149 92.1428 208.126 90.3108 207.887 87.9643H200.271V95.416C202.669 95.6491 204.542 97.6298 204.542 100.035V102.357H206.916C209.377 102.357 211.4 104.189 211.638 106.536H211.637ZM211.637 68.4643H219.254V75.9161C216.856 76.1482 214.983 78.1279 214.983 80.5348V82.8571H212.609C210.151 82.8571 208.126 84.6897 207.887 87.0357H200.271V79.5839C202.67 79.3518 204.542 77.372 204.542 74.9652V72.6428H206.916C209.375 72.6428 211.399 70.8103 211.638 68.4643H211.637ZM227.82 68.4643H220.203V75.9161C222.602 76.1491 224.475 78.1298 224.475 80.5348V82.8571H226.849C229.309 82.8571 231.332 84.6892 231.571 87.0357H239.187V79.5839C236.789 79.3508 234.915 77.3702 234.915 74.9652V72.6428H232.542C230.081 72.6428 228.058 70.8108 227.82 68.4643H227.82ZM223.526 91.2143V94.4652C223.526 96.5164 221.827 98.1786 219.729 98.1786C217.633 98.1786 215.932 96.5146 215.932 94.4652V91.2143H212.609C210.513 91.2143 208.814 89.5521 208.814 87.5C208.814 85.4492 210.515 83.7857 212.609 83.7857H215.932V80.5348C215.932 78.4836 217.631 76.8214 219.729 76.8214C221.825 76.8214 223.526 78.4854 223.526 80.5348V83.7857H226.849C228.945 83.7857 230.644 85.4478 230.644 87.5C230.644 89.5507 228.943 91.2143 226.849 91.2143H223.526Z" fill="white" fill-opacity="0.19"/>
<path fill-rule="evenodd" clip-rule="evenodd" d="M240.136 195.679C238.04 195.679 236.339 194.015 236.339 191.965V188.714H233.016C230.919 188.714 229.221 187.052 229.221 185H211.187C211.187 187.051 209.486 188.714 207.391 188.714H204.068V191.965C204.068 194.016 202.369 195.679 200.271 195.679V213.321C202.368 213.321 204.068 214.985 204.068 217.035V220.286H207.391C209.488 220.286 211.187 221.948 211.187 224H229.221C229.221 221.949 230.921 220.286 233.016 220.286H236.339V217.035C236.339 214.984 238.038 213.321 240.136 213.321V195.679ZM228.295 223.536H220.678V216.084C223.077 215.852 224.949 213.872 224.949 211.465V209.143H227.323C229.781 209.143 231.806 207.31 232.045 204.964H239.661V212.416C237.263 212.648 235.39 214.628 235.39 217.035V219.357H233.016C230.558 219.357 228.533 221.19 228.294 223.536H228.295ZM212.112 223.536H219.729V216.084C217.331 215.851 215.458 213.87 215.458 211.465V209.143H213.084C210.624 209.143 208.601 207.311 208.362 204.964H200.746V212.416C203.144 212.649 205.017 214.63 205.017 217.035V219.357H207.391C209.851 219.357 211.874 221.189 212.113 223.536H212.112ZM212.112 185.464H219.729V192.916C217.33 193.148 215.458 195.128 215.458 197.535V199.857H213.084C210.626 199.857 208.601 201.69 208.362 204.036H200.746V196.584C203.144 196.352 205.017 194.372 205.017 191.965V189.643H207.391C209.849 189.643 211.874 187.81 212.113 185.464H212.112ZM228.295 185.464H220.678V192.916C223.076 193.149 224.949 195.13 224.949 197.535V199.857H227.323C229.783 199.857 231.806 201.689 232.045 204.036H239.661V196.584C237.263 196.351 235.39 194.37 235.39 191.965V189.643H233.016C230.556 189.643 228.533 187.811 228.294 185.464H228.295ZM224 208.214V211.465C224 213.516 222.301 215.179 220.204 215.179C218.107 215.179 216.407 213.515 216.407 211.465V208.214H213.084C210.987 208.214 209.288 206.552 209.288 204.5C209.288 202.449 210.989 200.786 213.084 200.786H216.407V197.535C216.407 195.484 218.106 193.821 220.204 193.821C222.3 193.821 224 195.485 224 197.535V200.786H227.323C229.42 200.786 231.119 202.448 231.119 204.5C231.119 206.551 229.418 208.214 227.323 208.214H224Z" fill="white" fill-opacity="0.19"/>
<path fill-rule="evenodd" clip-rule="evenodd" d="M279.051 0.678572C276.955 0.678572 275.254 -0.985428 275.254 -3.03479V-6.28571H271.931C269.835 -6.28571 268.136 -7.94786 268.136 -10H250.102C250.102 -7.94925 248.401 -6.28571 246.306 -6.28571H242.983V-3.03479C242.983 -0.983572 241.284 0.678572 239.187 0.678572V18.3214C241.283 18.3214 242.983 19.9854 242.983 22.0348V25.2857H246.306C248.403 25.2857 250.102 26.9479 250.102 29H268.136C268.136 26.9493 269.837 25.2857 271.931 25.2857H275.254V22.0348C275.254 19.9836 276.953 18.3214 279.051 18.3214V0.678572ZM267.21 28.5357H259.593V21.0839C261.992 20.8518 263.865 18.8721 263.865 16.4652V14.1429H266.238C268.697 14.1429 270.721 12.3103 270.96 9.96428H278.576V17.4161C276.178 17.6482 274.305 19.6279 274.305 22.0348V24.3571H271.931C269.473 24.3571 267.448 26.1897 267.209 28.5357H267.21ZM251.027 28.5357H258.644V21.0839C256.246 20.8509 254.373 18.8702 254.373 16.4652V14.1429H251.999C249.539 14.1429 247.516 12.3108 247.277 9.96428H239.661V17.4161C242.059 17.6491 243.932 19.6298 243.932 22.0348V24.3571H246.306C248.766 24.3571 250.789 26.1892 251.028 28.5357H251.027ZM251.027 -9.53571H258.644V-2.08393C256.246 -1.85179 254.373 0.127929 254.373 2.53479V4.85714H251.999C249.541 4.85714 247.516 6.68968 247.277 9.03572H239.661V1.58393C242.06 1.35179 243.932 -0.627928 243.932 -3.03479V-5.35714H246.306C248.764 -5.35714 250.789 -7.18968 251.028 -9.53571H251.027ZM267.21 -9.53571H259.593V-2.08393C261.991 -1.85086 263.865 0.129786 263.865 2.53479V4.85714H266.238C268.699 4.85714 270.722 6.68921 270.96 9.03572H278.576V1.58393C276.178 1.35086 274.305 -0.629786 274.305 -3.03479V-5.35714H271.931C269.471 -5.35714 267.448 -7.18921 267.209 -9.53571H267.21ZM262.915 13.2143V16.4652C262.915 18.5164 261.216 20.1786 259.119 20.1786C257.023 20.1786 255.322 18.5146 255.322 16.4652V13.2143H251.999C249.902 13.2143 248.203 11.5521 248.203 9.5C248.203 7.44925 249.904 5.78571 251.999 5.78571H255.322V2.53479C255.322 0.483571 257.021 -1.17857 259.119 -1.17857C261.215 -1.17857 262.915 0.485429 262.915 2.53479V5.78571H266.238C268.335 5.78571 270.034 7.44786 270.034 9.5C270.034 11.5507 268.333 13.2143 266.238 13.2143H262.915Z" fill="white" fill-opacity="0.19"/>
<path fill-rule="evenodd" clip-rule="evenodd" d="M279.525 117.679C277.429 117.679 275.729 116.015 275.729 113.965V110.714H272.406C270.309 110.714 268.61 109.052 268.61 107H250.576C250.576 109.051 248.875 110.714 246.781 110.714H243.458V113.965C243.458 116.016 241.759 117.679 239.661 117.679V135.321C241.757 135.321 243.458 136.985 243.458 139.035V142.286H246.781C248.877 142.286 250.576 143.948 250.576 146H268.61C268.61 143.949 270.311 142.286 272.406 142.286H275.729V139.035C275.729 136.984 277.428 135.321 279.525 135.321V117.679ZM267.685 145.536H260.068V138.084C262.466 137.852 264.339 135.872 264.339 133.465V131.143H266.713C269.171 131.143 271.196 129.31 271.435 126.964H279.051V134.416C276.652 134.648 274.78 136.628 274.78 139.035V141.357H272.406C269.947 141.357 267.923 143.19 267.684 145.536H267.685ZM251.502 145.536H259.119V138.084C256.721 137.851 254.847 135.87 254.847 133.465V131.143H252.474C250.013 131.143 247.99 129.311 247.752 126.964H240.136V134.416C242.534 134.649 244.407 136.63 244.407 139.035V141.357H246.781C249.241 141.357 251.264 143.189 251.503 145.536H251.502ZM251.502 107.464H259.119V114.916C256.72 115.148 254.847 117.128 254.847 119.535V121.857H252.474C250.015 121.857 247.991 123.69 247.752 126.036H240.136V118.584C242.534 118.352 244.407 116.372 244.407 113.965V111.643H246.781C249.239 111.643 251.263 109.81 251.503 107.464H251.502ZM267.685 107.464H260.068V114.916C262.466 115.149 264.339 117.13 264.339 119.535V121.857H266.713C269.173 121.857 271.196 123.689 271.435 126.036H279.051V118.584C276.653 118.351 274.78 116.37 274.78 113.965V111.643H272.406C269.946 111.643 267.922 109.811 267.684 107.464H267.685ZM263.39 130.214V133.465C263.39 135.516 261.691 137.179 259.593 137.179C257.497 137.179 255.797 135.515 255.797 133.465V130.214H252.474C250.377 130.214 248.678 128.552 248.678 126.5C248.678 124.449 250.379 122.786 252.474 122.786H255.797V119.535C255.797 117.484 257.496 115.821 259.593 115.821C261.689 115.821 263.39 117.485 263.39 119.535V122.786H266.713C268.809 122.786 270.508 124.448 270.508 126.5C270.508 128.551 268.808 130.214 266.713 130.214H263.39Z" fill="white" fill-opacity="0.19"/>
<path fill-rule="evenodd" clip-rule="evenodd" d="M279.525 39.6786C277.429 39.6786 275.729 38.0146 275.729 35.9652V32.7143H272.406C270.309 32.7143 268.61 31.0521 268.61 29H250.576C250.576 31.0507 248.875 32.7143 246.781 32.7143H243.458V35.9652C243.458 38.0164 241.759 39.6786 239.661 39.6786V57.3214C241.757 57.3214 243.458 58.9854 243.458 61.0348V64.2857H246.781C248.877 64.2857 250.576 65.9479 250.576 68H268.61C268.61 65.9492 270.311 64.2857 272.406 64.2857H275.729V61.0348C275.729 58.9836 277.428 57.3214 279.525 57.3214V39.6786ZM267.685 67.5357H260.068V60.0839C262.466 59.8518 264.339 57.8721 264.339 55.4652V53.1429H266.713C269.171 53.1429 271.196 51.3103 271.435 48.9643H279.051V56.4161C276.652 56.6482 274.78 58.6279 274.78 61.0348V63.3571H272.406C269.947 63.3571 267.923 65.1897 267.684 67.5357H267.685ZM251.502 67.5357H259.119V60.0839C256.721 59.8508 254.847 57.8702 254.847 55.4652V53.1429H252.474C250.013 53.1429 247.99 51.3108 247.752 48.9643H240.136V56.4161C242.534 56.6491 244.407 58.6298 244.407 61.0348V63.3571H246.781C249.241 63.3571 251.264 65.1892 251.503 67.5357H251.502ZM251.502 29.4643H259.119V36.9161C256.72 37.1482 254.847 39.1279 254.847 41.5348V43.8571H252.474C250.015 43.8571 247.991 45.6897 247.752 48.0357H240.136V40.5839C242.534 40.3518 244.407 38.3721 244.407 35.9652V33.6428H246.781C249.239 33.6428 251.263 31.8103 251.503 29.4643H251.502ZM267.685 29.4643H260.068V36.9161C262.466 37.1491 264.339 39.1298 264.339 41.5348V43.8571H266.713C269.173 43.8571 271.196 45.6892 271.435 48.0357H279.051V40.5839C276.653 40.3508 274.78 38.3702 274.78 35.9652V33.6428H272.406C269.946 33.6428 267.922 31.8108 267.684 29.4643H267.685ZM263.39 52.2143V55.4652C263.39 57.5164 261.691 59.1786 259.593 59.1786C257.497 59.1786 255.797 57.5146 255.797 55.4652V52.2143H252.474C250.377 52.2143 248.678 50.5521 248.678 48.5C248.678 46.4492 250.379 44.7857 252.474 44.7857H255.797V41.5348C255.797 39.4836 257.496 37.8214 259.593 37.8214C261.689 37.8214 263.39 39.4854 263.39 41.5348V44.7857H266.713C268.809 44.7857 270.508 46.4478 270.508 48.5C270.508 50.5507 268.808 52.2143 266.713 52.2143H263.39Z" fill="white" fill-opacity="0.19"/>
<path fill-rule="evenodd" clip-rule="evenodd" d="M280 156.679C277.904 156.679 276.203 155.015 276.203 152.965V149.714H272.88C270.784 149.714 269.085 148.052 269.085 146H251.051C251.051 148.051 249.35 149.714 247.255 149.714H243.932V152.965C243.932 155.016 242.233 156.679 240.136 156.679V174.321C242.232 174.321 243.932 175.985 243.932 178.035V181.286H247.255C249.352 181.286 251.051 182.948 251.051 185H269.085C269.085 182.949 270.786 181.286 272.88 181.286H276.203V178.035C276.203 175.984 277.902 174.321 280 174.321V156.679ZM268.159 184.536H260.542V177.084C262.941 176.852 264.814 174.872 264.814 172.465V170.143H267.187C269.646 170.143 271.67 168.31 271.909 165.964H279.525V173.416C277.127 173.648 275.254 175.628 275.254 178.035V180.357H272.88C270.422 180.357 268.398 182.19 268.158 184.536H268.159ZM251.976 184.536H259.593V177.084C257.195 176.851 255.322 174.87 255.322 172.465V170.143H252.948C250.488 170.143 248.465 168.311 248.226 165.964H240.61V173.416C243.008 173.649 244.881 175.63 244.881 178.035V180.357H247.255C249.715 180.357 251.739 182.189 251.977 184.536H251.976ZM251.976 146.464H259.593V153.916C257.195 154.148 255.322 156.128 255.322 158.535V160.857H252.948C250.49 160.857 248.465 162.69 248.226 165.036H240.61V157.584C243.009 157.352 244.881 155.372 244.881 152.965V150.643H247.255C249.713 150.643 251.738 148.81 251.977 146.464H251.976ZM268.159 146.464H260.542V153.916C262.94 154.149 264.814 156.13 264.814 158.535V160.857H267.187C269.648 160.857 271.671 162.689 271.909 165.036H279.525V157.584C277.127 157.351 275.254 155.37 275.254 152.965V150.643H272.88C270.42 150.643 268.397 148.811 268.158 146.464H268.159ZM263.864 169.214V172.465C263.864 174.516 262.165 176.179 260.068 176.179C257.972 176.179 256.271 174.515 256.271 172.465V169.214H252.948C250.852 169.214 249.153 167.552 249.153 165.5C249.153 163.449 250.853 161.786 252.948 161.786H256.271V158.535C256.271 156.484 257.97 154.821 260.068 154.821C262.164 154.821 263.864 156.485 263.864 158.535V161.786H267.187C269.284 161.786 270.983 163.448 270.983 165.5C270.983 167.551 269.282 169.214 267.187 169.214H263.864Z" fill="white" fill-opacity="0.19"/>
<path fill-rule="evenodd" clip-rule="evenodd" d="M279.525 78.6786C277.429 78.6786 275.729 77.0145 275.729 74.9652V71.7143H272.406C270.309 71.7143 268.61 70.0521 268.61 68H250.576C250.576 70.0507 248.875 71.7143 246.781 71.7143H243.458V74.9652C243.458 77.0164 241.759 78.6786 239.661 78.6786V96.3214C241.757 96.3214 243.458 97.9854 243.458 100.035V103.286H246.781C248.877 103.286 250.576 104.948 250.576 107H268.61C268.61 104.949 270.311 103.286 272.406 103.286H275.729V100.035C275.729 97.9836 277.428 96.3214 279.525 96.3214V78.6786ZM267.685 106.536H260.068V99.0839C262.466 98.8518 264.339 96.8721 264.339 94.4652V92.1428H266.713C269.171 92.1428 271.196 90.3103 271.435 87.9643H279.051V95.416C276.652 95.6482 274.78 97.6279 274.78 100.035V102.357H272.406C269.947 102.357 267.923 104.19 267.684 106.536H267.685ZM251.502 106.536H259.119V99.0839C256.721 98.8508 254.847 96.8702 254.847 94.4652V92.1428H252.474C250.013 92.1428 247.99 90.3108 247.752 87.9643H240.136V95.416C242.534 95.6491 244.407 97.6298 244.407 100.035V102.357H246.781C249.241 102.357 251.264 104.189 251.503 106.536H251.502ZM251.502 68.4643H259.119V75.9161C256.72 76.1482 254.847 78.1279 254.847 80.5348V82.8571H252.474C250.015 82.8571 247.991 84.6897 247.752 87.0357H240.136V79.5839C242.534 79.3518 244.407 77.372 244.407 74.9652V72.6428H246.781C249.239 72.6428 251.263 70.8103 251.503 68.4643H251.502ZM267.685 68.4643H260.068V75.9161C262.466 76.1491 264.339 78.1298 264.339 80.5348V82.8571H266.713C269.173 82.8571 271.196 84.6892 271.435 87.0357H279.051V79.5839C276.653 79.3508 274.78 77.3702 274.78 74.9652V72.6428H272.406C269.946 72.6428 267.922 70.8108 267.684 68.4643H267.685ZM263.39 91.2143V94.4652C263.39 96.5164 261.691 98.1786 259.593 98.1786C257.497 98.1786 255.797 96.5146 255.797 94.4652V91.2143H252.474C250.377 91.2143 248.678 89.5521 248.678 87.5C248.678 85.4492 250.379 83.7857 252.474 83.7857H255.797V80.5348C255.797 78.4836 257.496 76.8214 259.593 76.8214C261.689 76.8214 263.39 78.4854 263.39 80.5348V83.7857H266.713C268.809 83.7857 270.508 85.4478 270.508 87.5C270.508 89.5507 268.808 91.2143 266.713 91.2143H263.39Z" fill="white" fill-opacity="0.19"/>
<path fill-rule="evenodd" clip-rule="evenodd" d="M280 195.679C277.904 195.679 276.203 194.015 276.203 191.965V188.714H272.88C270.784 188.714 269.085 187.052 269.085 185H251.051C251.051 187.051 249.35 188.714 247.255 188.714H243.932V191.965C243.932 194.016 242.233 195.679 240.136 195.679V213.321C242.232 213.321 243.932 214.985 243.932 217.035V220.286H247.255C249.352 220.286 251.051 221.948 251.051 224H269.085C269.085 221.949 270.786 220.286 272.88 220.286H276.203V217.035C276.203 214.984 277.902 213.321 280 213.321V195.679ZM268.159 223.536H260.542V216.084C262.941 215.852 264.814 213.872 264.814 211.465V209.143H267.187C269.646 209.143 271.67 207.31 271.909 204.964H279.525V212.416C277.127 212.648 275.254 214.628 275.254 217.035V219.357H272.88C270.422 219.357 268.398 221.19 268.158 223.536H268.159ZM251.976 223.536H259.593V216.084C257.195 215.851 255.322 213.87 255.322 211.465V209.143H252.948C250.488 209.143 248.465 207.311 248.226 204.964H240.61V212.416C243.008 212.649 244.881 214.63 244.881 217.035V219.357H247.255C249.715 219.357 251.739 221.189 251.977 223.536H251.976ZM251.976 185.464H259.593V192.916C257.195 193.148 255.322 195.128 255.322 197.535V199.857H252.948C250.49 199.857 248.465 201.69 248.226 204.036H240.61V196.584C243.009 196.352 244.881 194.372 244.881 191.965V189.643H247.255C249.713 189.643 251.738 187.81 251.977 185.464H251.976ZM268.159 185.464H260.542V192.916C262.94 193.149 264.814 195.13 264.814 197.535V199.857H267.187C269.648 199.857 271.671 201.689 271.909 204.036H279.525V196.584C277.127 196.351 275.254 194.37 275.254 191.965V189.643H272.88C270.42 189.643 268.397 187.811 268.158 185.464H268.159ZM263.864 208.214V211.465C263.864 213.516 262.165 215.179 260.068 215.179C257.972 215.179 256.271 213.515 256.271 211.465V208.214H252.948C250.852 208.214 249.153 206.552 249.153 204.5C249.153 202.449 250.853 200.786 252.948 200.786H256.271V197.535C256.271 195.484 257.97 193.821 260.068 193.821C262.164 193.821 263.864 195.485 263.864 197.535V200.786H267.187C269.284 200.786 270.983 202.448 270.983 204.5C270.983 206.551 269.282 208.214 267.187 208.214H263.864Z" fill="white" fill-opacity="0.19"/>
</g>
</svg>
