<svg width="65" height="65" viewBox="0 0 65 65" fill="none" xmlns="http://www.w3.org/2000/svg">
<path d="M24.376 1.12667C24.7726 1.60855 25.0155 2.19829 25.0735 2.81967C25.1314 3.44106 25.0017 4.06555 24.701 4.61244C22.3522 8.92486 21.1256 13.7587 21.134 18.6693C21.134 35.0053 34.4514 48.2333 50.8646 48.2333C53.0056 48.2333 55.0898 48.0099 57.0927 47.5833C57.7067 47.4503 58.3462 47.5012 58.9314 47.7295C59.5167 47.9578 60.0217 48.3535 60.3835 48.8671C60.7653 49.4011 60.96 50.0464 60.9372 50.7025C60.9144 51.3586 60.6755 51.9888 60.2575 52.4951C57.0711 56.4092 53.0513 59.5629 48.4913 61.7262C43.9313 63.8895 38.946 65.008 33.8989 65C15.17 65 0 49.9112 0 31.3204C0 17.3286 8.58848 5.32747 20.8171 0.241005C21.4263 -0.0164384 22.1025 -0.0692776 22.7442 0.0904253C23.386 0.250128 23.9586 0.61375 24.376 1.12667ZM19.7364 5.3234C15.0343 7.84563 11.1034 11.5947 8.36151 16.1722C5.61959 20.7497 4.16911 25.9846 4.16424 31.3204C4.16424 47.6524 17.4857 60.8804 33.8989 60.8804C37.8293 60.8872 41.722 60.1144 45.3518 58.6067C48.9815 57.099 52.2762 54.8864 55.0451 52.0969C53.676 52.2676 52.2825 52.3529 50.8646 52.3529C32.1357 52.3529 16.9698 37.2641 16.9698 18.6733C16.9698 13.9322 17.9529 9.41858 19.7364 5.3234Z" fill="#535353"/>
<path d="M43.8527 12.7855C43.911 12.6096 44.0232 12.4565 44.1734 12.348C44.3237 12.2395 44.5043 12.181 44.6896 12.181C44.8749 12.181 45.0556 12.2395 45.2058 12.348C45.356 12.4565 45.4683 12.6096 45.5265 12.7855L47.0988 17.5063C47.8016 19.6108 49.4511 21.2602 51.5555 21.9631L56.2764 23.5353C56.4523 23.5936 56.6054 23.7058 56.7139 23.8561C56.8224 24.0063 56.8808 24.1869 56.8808 24.3723C56.8808 24.5576 56.8224 24.7382 56.7139 24.8884C56.6054 25.0387 56.4523 25.1509 56.2764 25.2092L51.5555 26.7814C50.5176 27.1272 49.5745 27.71 48.8009 28.4836C48.0274 29.2571 47.4446 30.2003 47.0988 31.2382L45.5265 35.959C45.4683 36.1349 45.356 36.288 45.2058 36.3965C45.0556 36.5051 44.8749 36.5635 44.6896 36.5635C44.5043 36.5635 44.3237 36.5051 44.1734 36.3965C44.0232 36.288 43.911 36.1349 43.8527 35.959L42.2805 31.2382C41.9347 30.2003 41.3519 29.2571 40.5783 28.4836C39.8047 27.71 38.8616 27.1272 37.8237 26.7814L33.1029 25.2092C32.9269 25.1509 32.7738 25.0387 32.6653 24.8884C32.5568 24.7382 32.4984 24.5576 32.4984 24.3723C32.4984 24.1869 32.5568 24.0063 32.6653 23.8561C32.7738 23.7058 32.9269 23.5936 33.1029 23.5353L37.8237 21.9631C38.8616 21.6173 39.8047 21.0345 40.5783 20.2609C41.3519 19.4874 41.9347 18.5443 42.2805 17.5063L43.8527 12.7855ZM56.321 0.39844C56.3611 0.282761 56.4363 0.182452 56.536 0.11146C56.6358 0.0404674 56.7552 0.00231934 56.8776 0.00231934C57.0001 0.00231934 57.1194 0.0404674 57.2192 0.11146C57.319 0.182452 57.3941 0.282761 57.4342 0.39844L58.4824 3.54295C58.9496 4.94863 60.0506 6.04961 61.4563 6.51682L64.6008 7.56499C64.7164 7.60509 64.8167 7.68025 64.8877 7.78C64.9587 7.87975 64.9969 7.99914 64.9969 8.12157C64.9969 8.24401 64.9587 8.3634 64.8877 8.46315C64.8167 8.5629 64.7164 8.63806 64.6008 8.67816L61.4563 9.72633C60.7635 9.95678 60.1341 10.3455 59.6178 10.8618C59.1016 11.378 58.7128 12.0075 58.4824 12.7002L57.4342 15.8447C57.3941 15.9604 57.319 16.0607 57.2192 16.1317C57.1194 16.2027 57.0001 16.2408 56.8776 16.2408C56.7552 16.2408 56.6358 16.2027 56.536 16.1317C56.4363 16.0607 56.3611 15.9604 56.321 15.8447L55.2729 12.7002C55.0424 12.0075 54.6537 11.378 54.1374 10.8618C53.6212 10.3455 52.9917 9.95678 52.299 9.72633L49.1545 8.67816C49.0388 8.63806 48.9385 8.5629 48.8675 8.46315C48.7965 8.3634 48.7584 8.24401 48.7584 8.12157C48.7584 7.99914 48.7965 7.87975 48.8675 7.78C48.9385 7.68025 49.0388 7.60509 49.1545 7.56499L52.299 6.51682C53.7047 6.04961 54.8057 4.94863 55.2729 3.54295L56.321 0.402503V0.39844Z" fill="#535353"/>
</svg>
