<svg width="50" height="85" viewBox="0 0 50 85" fill="none" xmlns="http://www.w3.org/2000/svg">
<path d="M46.5664 78.0035V85.0001H21.2374V42.2029C21.2374 35.6485 23.546 29.4451 27.7208 24.686C29.9827 22.0975 32.6422 19.8823 35.6749 18.0383C37.2613 19.7647 38.7766 21.631 40.0587 23.5906C37.3079 25.1526 34.9284 27.0656 32.9688 29.3274C29.9137 32.7801 28.234 37.3505 28.234 42.2029V78.0035H46.5664Z" fill="#48B09F"/>
<path d="M49.737 85H42.7404V31.3539C42.7404 29.2705 42.2231 27.2562 41.2453 25.5298C36.8595 17.7826 28.6011 11.1877 24.8705 8.45517C21.1379 11.1938 12.8653 17.8049 8.49168 25.5298C7.5139 27.2562 6.99661 29.2705 6.99661 31.3539V85H0V31.3539C0 28.0635 0.831715 24.8584 2.40185 22.0812C8.98462 10.4554 22.3875 1.62085 22.9535 1.24961L24.8665 0L26.7794 1.24961C27.3474 1.61882 40.7483 10.4554 47.3311 22.0812C48.9032 24.8563 49.7329 28.0635 49.7329 31.3539V85H49.737Z" fill="#48B09F"/>
</svg>
