<svg width="32" height="32" viewBox="0 0 32 32" fill="none" xmlns="http://www.w3.org/2000/svg">
<path id="Vector" d="M15.9993 10.6745C13.0508 10.6745 10.6738 13.0744 10.6738 16C10.6738 18.9256 13.0737 21.3255 15.9993 21.3255C18.9249 21.3255 21.3248 18.9256 21.3248 16C21.3248 13.0744 18.9249 10.6745 15.9993 10.6745ZM31.9986 16C31.9986 13.783 31.9986 11.6116 31.8843 9.3946C31.77 6.83471 31.1758 4.5491 29.3015 2.69776C27.4273 0.823553 25.1646 0.229294 22.6047 0.115013C20.3877 0.000732311 18.2163 0.000732422 15.9993 0.000732422C13.7822 0.000732422 11.6109 0.000732311 9.39387 0.115013C6.83398 0.229294 4.54837 0.823553 2.69702 2.69776C0.822821 4.57196 0.228561 6.83471 0.114281 9.3946C-1.10689e-07 11.6116 0 13.783 0 16C0 18.2171 -1.10689e-07 20.3884 0.114281 22.6054C0.228561 25.1653 0.822821 27.4509 2.69702 29.3023C4.57122 31.1765 6.83398 31.7707 9.39387 31.885C11.6109 31.9993 13.7822 31.9993 15.9993 31.9993C18.2163 31.9993 20.3877 31.9993 22.6047 31.885C25.1646 31.7707 27.4502 31.1765 29.3015 29.3023C31.1758 27.4281 31.77 25.1653 31.8843 22.6054C32.0214 20.4113 31.9986 18.2171 31.9986 16ZM15.9993 24.2054C11.4509 24.2054 7.79394 20.5484 7.79394 16C7.79394 11.4517 11.4509 7.79467 15.9993 7.79467C20.5477 7.79467 24.2046 11.4517 24.2046 16C24.2046 20.5484 20.5477 24.2054 15.9993 24.2054ZM24.5475 9.37174C23.4961 9.37174 22.6276 8.52607 22.6276 7.45183C22.6276 6.37759 23.4732 5.53191 24.5475 5.53191C25.6217 5.53191 26.4674 6.37759 26.4674 7.45183C26.4732 7.70219 26.4275 7.95106 26.3331 8.18303C26.2388 8.415 26.0977 8.62511 25.9188 8.80034C25.7436 8.97924 25.5335 9.12025 25.3015 9.21461C25.0696 9.30897 24.8207 9.35467 24.5703 9.34889L24.5475 9.37174Z" fill="#50C3B1"/>
</svg>
